<svg xmlns="http://www.w3.org/2000/svg" width="250" height="350" viewBox="0 0 250 350"><rect x="3" y="3" width="244" height="344" rx="16" fill="#ffffff" stroke="#d9dde3" stroke-width="2"/><g transform="translate(73.0 62.0) scale(1.180)"><g fill="#23272e"><path d="M0,-18 C7,-7 20,-2 20,9 C20,17 13,21 7,19 C4,18 2,16 1,14 C2,20 4,24 8,27 L-8,27 C-4,24 -2,20 -1,14 C-2,16 -4,18 -7,19 C-13,21 -20,17 -20,9 C-20,-2 -7,-7 0,-18 Z"/></g></g><g transform="translate(177.0 62.0) scale(1.180)"><g fill="#23272e"><path d="M0,-18 C7,-7 20,-2 20,9 C20,17 13,21 7,19 C4,18 2,16 1,14 C2,20 4,24 8,27 L-8,27 C-4,24 -2,20 -1,14 C-2,16 -4,18 -7,19 C-13,21 -20,17 -20,9 C-20,-2 -7,-7 0,-18 Z"/></g></g><g transform="translate(125.0 101.4) scale(1.180)"><g fill="#23272e"><path d="M0,-18 C7,-7 20,-2 20,9 C20,17 13,21 7,19 C4,18 2,16 1,14 C2,20 4,24 8,27 L-8,27 C-4,24 -2,20 -1,14 C-2,16 -4,18 -7,19 C-13,21 -20,17 -20,9 C-20,-2 -7,-7 0,-18 Z"/></g></g><g transform="translate(73.0 138.6) scale(1.180)"><g fill="#23272e"><path d="M0,-18 C7,-7 20,-2 20,9 C20,17 13,21 7,19 C4,18 2,16 1,14 C2,20 4,24 8,27 L-8,27 C-4,24 -2,20 -1,14 C-2,16 -4,18 -7,19 C-13,21 -20,17 -20,9 C-20,-2 -7,-7 0,-18 Z"/></g></g><g transform="translate(177.0 138.6) scale(1.180)"><g fill="#23272e"><path d="M0,-18 C7,-7 20,-2 20,9 C20,17 13,21 7,19 C4,18 2,16 1,14 C2,20 4,24 8,27 L-8,27 C-4,24 -2,20 -1,14 C-2,16 -4,18 -7,19 C-13,21 -20,17 -20,9 C-20,-2 -7,-7 0,-18 Z"/></g></g><g transform="translate(73.0 217.4) scale(1.180) rotate(180)"><g fill="#23272e"><path d="M0,-18 C7,-7 20,-2 20,9 C20,17 13,21 7,19 C4,18 2,16 1,14 C2,20 4,24 8,27 L-8,27 C-4,24 -2,20 -1,14 C-2,16 -4,18 -7,19 C-13,21 -20,17 -20,9 C-20,-2 -7,-7 0,-18 Z"/></g></g><g transform="translate(177.0 217.4) scale(1.180) rotate(180)"><g fill="#23272e"><path d="M0,-18 C7,-7 20,-2 20,9 C20,17 13,21 7,19 C4,18 2,16 1,14 C2,20 4,24 8,27 L-8,27 C-4,24 -2,20 -1,14 C-2,16 -4,18 -7,19 C-13,21 -20,17 -20,9 C-20,-2 -7,-7 0,-18 Z"/></g></g><g transform="translate(125.0 254.6) scale(1.180) rotate(180)"><g fill="#23272e"><path d="M0,-18 C7,-7 20,-2 20,9 C20,17 13,21 7,19 C4,18 2,16 1,14 C2,20 4,24 8,27 L-8,27 C-4,24 -2,20 -1,14 C-2,16 -4,18 -7,19 C-13,21 -20,17 -20,9 C-20,-2 -7,-7 0,-18 Z"/></g></g><g transform="translate(73.0 294.0) scale(1.180) rotate(180)"><g fill="#23272e"><path d="M0,-18 C7,-7 20,-2 20,9 C20,17 13,21 7,19 C4,18 2,16 1,14 C2,20 4,24 8,27 L-8,27 C-4,24 -2,20 -1,14 C-2,16 -4,18 -7,19 C-13,21 -20,17 -20,9 C-20,-2 -7,-7 0,-18 Z"/></g></g><g transform="translate(177.0 294.0) scale(1.180) rotate(180)"><g fill="#23272e"><path d="M0,-18 C7,-7 20,-2 20,9 C20,17 13,21 7,19 C4,18 2,16 1,14 C2,20 4,24 8,27 L-8,27 C-4,24 -2,20 -1,14 C-2,16 -4,18 -7,19 C-13,21 -20,17 -20,9 C-20,-2 -7,-7 0,-18 Z"/></g></g><g transform="translate(27 38)"><text x="0" y="0" font-family="'DejaVu Sans','Helvetica',sans-serif" font-weight="bold" font-size="29" fill="#23272e" text-anchor="middle">10</text><g transform="translate(0 19) scale(0.4)"><g fill="#23272e"><path d="M0,-18 C7,-7 20,-2 20,9 C20,17 13,21 7,19 C4,18 2,16 1,14 C2,20 4,24 8,27 L-8,27 C-4,24 -2,20 -1,14 C-2,16 -4,18 -7,19 C-13,21 -20,17 -20,9 C-20,-2 -7,-7 0,-18 Z"/></g></g></g><g transform="translate(223 312) rotate(180)"><text x="0" y="0" font-family="'DejaVu Sans','Helvetica',sans-serif" font-weight="bold" font-size="29" fill="#23272e" text-anchor="middle">10</text><g transform="translate(0 19) scale(0.4)"><g fill="#23272e"><path d="M0,-18 C7,-7 20,-2 20,9 C20,17 13,21 7,19 C4,18 2,16 1,14 C2,20 4,24 8,27 L-8,27 C-4,24 -2,20 -1,14 C-2,16 -4,18 -7,19 C-13,21 -20,17 -20,9 C-20,-2 -7,-7 0,-18 Z"/></g></g></g></svg>