<svg xmlns="http://www.w3.org/2000/svg" width="250" height="350" viewBox="0 0 250 350"><rect x="3" y="3" width="244" height="344" rx="16" fill="#ffffff" stroke="#d9dde3" stroke-width="2"/><g transform="translate(125.0 62.0) scale(1.180)"><g fill="#c4302b"><path d="M0,-25 C7,-12 13,-6 19,0 C13,6 7,12 0,25 C-7,12 -13,6 -19,0 C-13,-6 -7,-12 0,-25 Z"/></g></g><g transform="translate(125.0 178.0) scale(1.180)"><g fill="#c4302b"><path d="M0,-25 C7,-12 13,-6 19,0 C13,6 7,12 0,25 C-7,12 -13,6 -19,0 C-13,-6 -7,-12 0,-25 Z"/></g></g><g transform="translate(125.0 294.0) scale(1.180) rotate(180)"><g fill="#c4302b"><path d="M0,-25 C7,-12 13,-6 19,0 C13,6 7,12 0,25 C-7,12 -13,6 -19,0 C-13,-6 -7,-12 0,-25 Z"/></g></g><g transform="translate(27 38)"><text x="0" y="0" font-family="'DejaVu Sans','Helvetica',sans-serif" font-weight="bold" font-size="29" fill="#c4302b" text-anchor="middle">3</text><g transform="translate(0 19) scale(0.4)"><g fill="#c4302b"><path d="M0,-25 C7,-12 13,-6 19,0 C13,6 7,12 0,25 C-7,12 -13,6 -19,0 C-13,-6 -7,-12 0,-25 Z"/></g></g></g><g transform="translate(223 312) rotate(180)"><text x="0" y="0" font-family="'DejaVu Sans','Helvetica',sans-serif" font-weight="bold" font-size="29" fill="#c4302b" text-anchor="middle">3</text><g transform="translate(0 19) scale(0.4)"><g fill="#c4302b"><path d="M0,-25 C7,-12 13,-6 19,0 C13,6 7,12 0,25 C-7,12 -13,6 -19,0 C-13,-6 -7,-12 0,-25 Z"/></g></g></g></svg>