<svg xmlns="http://www.w3.org/2000/svg" width="250" height="350" viewBox="0 0 250 350"><rect x="3" y="3" width="244" height="344" rx="16" fill="#ffffff" stroke="#d9dde3" stroke-width="2"/>
    <g transform="translate(125 154.6) scale(5.2)" opacity="0.9"><g fill="#d3d3d5"><circle cx="0" cy="-9" r="9"/><circle cx="-10" cy="6" r="9"/><circle cx="10" cy="6" r="9"/><path d="M-3,4 C-3,14 -6,22 -9,27 L9,27 C6,22 3,14 3,4 Z"/></g></g>
    <line x1="74" y1="96" x2="176" y2="96" stroke="#9c9da0" stroke-width="2"/>
    <line x1="74" y1="260" x2="176" y2="260" stroke="#9c9da0" stroke-width="2"/>
    <text x="125" y="178" font-family="'DejaVu Sans','Helvetica',sans-serif" font-weight="bold" font-size="132"
          fill="#23272e" text-anchor="middle" dominant-baseline="central">J</text><g transform="translate(27 38)"><text x="0" y="0" font-family="'DejaVu Sans','Helvetica',sans-serif" font-weight="bold" font-size="29" fill="#23272e" text-anchor="middle">J</text><g transform="translate(0 19) scale(0.4)"><g fill="#23272e"><circle cx="0" cy="-9" r="9"/><circle cx="-10" cy="6" r="9"/><circle cx="10" cy="6" r="9"/><path d="M-3,4 C-3,14 -6,22 -9,27 L9,27 C6,22 3,14 3,4 Z"/></g></g></g><g transform="translate(223 312) rotate(180)"><text x="0" y="0" font-family="'DejaVu Sans','Helvetica',sans-serif" font-weight="bold" font-size="29" fill="#23272e" text-anchor="middle">J</text><g transform="translate(0 19) scale(0.4)"><g fill="#23272e"><circle cx="0" cy="-9" r="9"/><circle cx="-10" cy="6" r="9"/><circle cx="10" cy="6" r="9"/><path d="M-3,4 C-3,14 -6,22 -9,27 L9,27 C6,22 3,14 3,4 Z"/></g></g></g></svg>