<svg xmlns="http://www.w3.org/2000/svg" width="250" height="350" viewBox="0 0 250 350"><rect x="3" y="3" width="244" height="344" rx="16" fill="#ffffff" stroke="#d9dde3" stroke-width="2"/>
    <g transform="translate(125 178.0) scale(5.2)" opacity="0.9"><g fill="#f3d5d4"><path d="M0,-25 C7,-12 13,-6 19,0 C13,6 7,12 0,25 C-7,12 -13,6 -19,0 C-13,-6 -7,-12 0,-25 Z"/></g></g>
    <line x1="74" y1="96" x2="176" y2="96" stroke="#e4a19f" stroke-width="2"/>
    <line x1="74" y1="260" x2="176" y2="260" stroke="#e4a19f" stroke-width="2"/>
    <text x="125" y="178" font-family="'DejaVu Sans','Helvetica',sans-serif" font-weight="bold" font-size="132"
          fill="#c4302b" text-anchor="middle" dominant-baseline="central">J</text><g transform="translate(27 38)"><text x="0" y="0" font-family="'DejaVu Sans','Helvetica',sans-serif" font-weight="bold" font-size="29" fill="#c4302b" text-anchor="middle">J</text><g transform="translate(0 19) scale(0.4)"><g fill="#c4302b"><path d="M0,-25 C7,-12 13,-6 19,0 C13,6 7,12 0,25 C-7,12 -13,6 -19,0 C-13,-6 -7,-12 0,-25 Z"/></g></g></g><g transform="translate(223 312) rotate(180)"><text x="0" y="0" font-family="'DejaVu Sans','Helvetica',sans-serif" font-weight="bold" font-size="29" fill="#c4302b" text-anchor="middle">J</text><g transform="translate(0 19) scale(0.4)"><g fill="#c4302b"><path d="M0,-25 C7,-12 13,-6 19,0 C13,6 7,12 0,25 C-7,12 -13,6 -19,0 C-13,-6 -7,-12 0,-25 Z"/></g></g></g></svg>