<svg xmlns="http://www.w3.org/2000/svg" width="250" height="350" viewBox="0 0 250 350"><defs>
    <radialGradient id="oroGrade" cx="40%" cy="35%" r="75%"><stop offset="0%" stop-color="#fdeaa0"/><stop offset="55%" stop-color="#e9c34e"/><stop offset="100%" stop-color="#c2941f"/></radialGradient>
    <radialGradient id="oroCoree" cx="40%" cy="35%" r="80%"><stop offset="0%" stop-color="#fdeaa0"/><stop offset="100%" stop-color="#d9ad33"/></radialGradient>
    <linearGradient id="copaBowle" x1="0" y1="0" x2="0" y2="1"><stop offset="0%" stop-color="#f0c45e"/><stop offset="100%" stop-color="#c2901f"/></linearGradient>
    <linearGradient id="copaSteme" x1="0" y1="0" x2="1" y2="0"><stop offset="0%" stop-color="#ecc25a"/><stop offset="100%" stop-color="#b8881c"/></linearGradient>
    <linearGradient id="copaFoote" x1="0" y1="0" x2="0" y2="1"><stop offset="0%" stop-color="#f0c45e"/><stop offset="100%" stop-color="#b8881c"/></linearGradient>
    <linearGradient id="bladee" x1="0" y1="0" x2="1" y2="0"><stop offset="0%" stop-color="#9fb2c4"/><stop offset="50%" stop-color="#e8eef4"/><stop offset="100%" stop-color="#7f93a6"/></linearGradient>
    <linearGradient id="guarde" x1="0" y1="0" x2="0" y2="1"><stop offset="0%" stop-color="#f0d36a"/><stop offset="100%" stop-color="#b8881c"/></linearGradient>
    <linearGradient id="gripe" x1="0" y1="0" x2="1" y2="0"><stop offset="0%" stop-color="#6a4a24"/><stop offset="100%" stop-color="#3a260f"/></linearGradient>
    <radialGradient id="pommele" cx="40%" cy="35%" r="75%"><stop offset="0%" stop-color="#f0d36a"/><stop offset="100%" stop-color="#b8881c"/></radialGradient>
    <linearGradient id="woode" x1="0" y1="0" x2="1" y2="0"><stop offset="0%" stop-color="#b98a4e"/><stop offset="45%" stop-color="#9c6b2f"/><stop offset="100%" stop-color="#6e4720"/></linearGradient>
    <linearGradient id="parche" x1="0" y1="0" x2="0" y2="1"><stop offset="0%" stop-color="#fbf5e3"/><stop offset="100%" stop-color="#efe2c4"/></linearGradient>
    <radialGradient id="oroGradei" cx="40%" cy="35%" r="75%"><stop offset="0%" stop-color="#fdeaa0"/><stop offset="55%" stop-color="#e9c34e"/><stop offset="100%" stop-color="#c2941f"/></radialGradient>
    <radialGradient id="oroCoreei" cx="40%" cy="35%" r="80%"><stop offset="0%" stop-color="#fdeaa0"/><stop offset="100%" stop-color="#d9ad33"/></radialGradient>
    <linearGradient id="copaBowlei" x1="0" y1="0" x2="0" y2="1"><stop offset="0%" stop-color="#f0c45e"/><stop offset="100%" stop-color="#c2901f"/></linearGradient>
    <linearGradient id="copaStemei" x1="0" y1="0" x2="1" y2="0"><stop offset="0%" stop-color="#ecc25a"/><stop offset="100%" stop-color="#b8881c"/></linearGradient>
    <linearGradient id="copaFootei" x1="0" y1="0" x2="0" y2="1"><stop offset="0%" stop-color="#f0c45e"/><stop offset="100%" stop-color="#b8881c"/></linearGradient>
    <linearGradient id="bladeei" x1="0" y1="0" x2="1" y2="0"><stop offset="0%" stop-color="#9fb2c4"/><stop offset="50%" stop-color="#e8eef4"/><stop offset="100%" stop-color="#7f93a6"/></linearGradient>
    <linearGradient id="guardei" x1="0" y1="0" x2="0" y2="1"><stop offset="0%" stop-color="#f0d36a"/><stop offset="100%" stop-color="#b8881c"/></linearGradient>
    <linearGradient id="gripei" x1="0" y1="0" x2="1" y2="0"><stop offset="0%" stop-color="#6a4a24"/><stop offset="100%" stop-color="#3a260f"/></linearGradient>
    <radialGradient id="pommelei" cx="40%" cy="35%" r="75%"><stop offset="0%" stop-color="#f0d36a"/><stop offset="100%" stop-color="#b8881c"/></radialGradient>
    <linearGradient id="woodei" x1="0" y1="0" x2="1" y2="0"><stop offset="0%" stop-color="#b98a4e"/><stop offset="45%" stop-color="#9c6b2f"/><stop offset="100%" stop-color="#6e4720"/></linearGradient>
    <linearGradient id="parchei" x1="0" y1="0" x2="0" y2="1"><stop offset="0%" stop-color="#fbf5e3"/><stop offset="100%" stop-color="#efe2c4"/></linearGradient></defs>
    <rect x="3" y="3" width="244" height="344" rx="16" fill="url(#parche)" stroke="#cdbb8e" stroke-width="2"/>
    <rect x="12" y="12" width="226" height="326" rx="11" fill="none" stroke="#2f5b9c" stroke-width="2.4" opacity="0.9"/>
    <rect x="17" y="17" width="216" height="316" rx="8" fill="none" stroke="#2f5b9c" stroke-width="1" opacity="0.5"/>
    <g fill="#2f5b9c">
      <circle cx="12" cy="12" r="3.2"/><circle cx="238" cy="12" r="3.2"/>
      <circle cx="12" cy="338" r="3.2"/><circle cx="238" cy="338" r="3.2"/>
    </g><g transform="translate(125.0 100.1) scale(0.820) rotate(12)"><g>
      <path d="M0,-54 L7,-30 L6,34 L0,40 L-6,34 L-7,-30 Z" fill="url(#bladee)" stroke="#5b6b7a" stroke-width="1.4"/>
      <line x1="0" y1="-46" x2="0" y2="32" stroke="#ffffff" stroke-width="1.2" opacity="0.5"/>
      <rect x="-22" y="34" width="44" height="8" rx="3" fill="url(#guarde)" stroke="#7a5a10" stroke-width="1.2"/>
      <circle cx="-22" cy="38" r="5" fill="#eac84e" stroke="#7a5a10" stroke-width="1"/>
      <circle cx="22" cy="38" r="5" fill="#eac84e" stroke="#7a5a10" stroke-width="1"/>
      <rect x="-5" y="42" width="10" height="22" rx="3" fill="url(#gripe)" stroke="#3a2a14" stroke-width="1.2"/>
      <g stroke="#2a1d0e" stroke-width="1.1"><line x1="-5" y1="48" x2="5" y2="46"/><line x1="-5" y1="54" x2="5" y2="52"/><line x1="-5" y1="60" x2="5" y2="58"/></g>
      <circle cx="0" cy="68" r="6.5" fill="url(#pommele)" stroke="#7a5a10" stroke-width="1.2"/>
    </g></g>
<g transform="translate(125.0 255.9) scale(0.820) rotate(-12)"><g>
      <path d="M0,-54 L7,-30 L6,34 L0,40 L-6,34 L-7,-30 Z" fill="url(#bladee)" stroke="#5b6b7a" stroke-width="1.4"/>
      <line x1="0" y1="-46" x2="0" y2="32" stroke="#ffffff" stroke-width="1.2" opacity="0.5"/>
      <rect x="-22" y="34" width="44" height="8" rx="3" fill="url(#guarde)" stroke="#7a5a10" stroke-width="1.2"/>
      <circle cx="-22" cy="38" r="5" fill="#eac84e" stroke="#7a5a10" stroke-width="1"/>
      <circle cx="22" cy="38" r="5" fill="#eac84e" stroke="#7a5a10" stroke-width="1"/>
      <rect x="-5" y="42" width="10" height="22" rx="3" fill="url(#gripe)" stroke="#3a2a14" stroke-width="1.2"/>
      <g stroke="#2a1d0e" stroke-width="1.1"><line x1="-5" y1="48" x2="5" y2="46"/><line x1="-5" y1="54" x2="5" y2="52"/><line x1="-5" y1="60" x2="5" y2="58"/></g>
      <circle cx="0" cy="68" r="6.5" fill="url(#pommele)" stroke="#7a5a10" stroke-width="1.2"/>
    </g></g><g transform="translate(30 40)"><text x="0" y="0" font-family="Georgia,serif" font-weight="bold" font-size="30" fill="#2f5b9c" text-anchor="middle">2</text><g transform="translate(0 22)"><g transform="scale(0.22)"><g>
      <path d="M0,-54 L7,-30 L6,34 L0,40 L-6,34 L-7,-30 Z" fill="url(#bladeei)" stroke="#5b6b7a" stroke-width="1.4"/>
      <line x1="0" y1="-46" x2="0" y2="32" stroke="#ffffff" stroke-width="1.2" opacity="0.5"/>
      <rect x="-22" y="34" width="44" height="8" rx="3" fill="url(#guardei)" stroke="#7a5a10" stroke-width="1.2"/>
      <circle cx="-22" cy="38" r="5" fill="#eac84e" stroke="#7a5a10" stroke-width="1"/>
      <circle cx="22" cy="38" r="5" fill="#eac84e" stroke="#7a5a10" stroke-width="1"/>
      <rect x="-5" y="42" width="10" height="22" rx="3" fill="url(#gripei)" stroke="#3a2a14" stroke-width="1.2"/>
      <g stroke="#2a1d0e" stroke-width="1.1"><line x1="-5" y1="48" x2="5" y2="46"/><line x1="-5" y1="54" x2="5" y2="52"/><line x1="-5" y1="60" x2="5" y2="58"/></g>
      <circle cx="0" cy="68" r="6.5" fill="url(#pommelei)" stroke="#7a5a10" stroke-width="1.2"/>
    </g></g></g></g><g transform="translate(220 310) rotate(180)"><text x="0" y="0" font-family="Georgia,serif" font-weight="bold" font-size="30" fill="#2f5b9c" text-anchor="middle">2</text><g transform="translate(0 22)"><g transform="scale(0.22)"><g>
      <path d="M0,-54 L7,-30 L6,34 L0,40 L-6,34 L-7,-30 Z" fill="url(#bladeei)" stroke="#5b6b7a" stroke-width="1.4"/>
      <line x1="0" y1="-46" x2="0" y2="32" stroke="#ffffff" stroke-width="1.2" opacity="0.5"/>
      <rect x="-22" y="34" width="44" height="8" rx="3" fill="url(#guardei)" stroke="#7a5a10" stroke-width="1.2"/>
      <circle cx="-22" cy="38" r="5" fill="#eac84e" stroke="#7a5a10" stroke-width="1"/>
      <circle cx="22" cy="38" r="5" fill="#eac84e" stroke="#7a5a10" stroke-width="1"/>
      <rect x="-5" y="42" width="10" height="22" rx="3" fill="url(#gripei)" stroke="#3a2a14" stroke-width="1.2"/>
      <g stroke="#2a1d0e" stroke-width="1.1"><line x1="-5" y1="48" x2="5" y2="46"/><line x1="-5" y1="54" x2="5" y2="52"/><line x1="-5" y1="60" x2="5" y2="58"/></g>
      <circle cx="0" cy="68" r="6.5" fill="url(#pommelei)" stroke="#7a5a10" stroke-width="1.2"/>
    </g></g></g></g></svg>