<svg xmlns="http://www.w3.org/2000/svg" width="250" height="350" viewBox="0 0 250 350"><defs>
    <linearGradient id="parch" x1="0" y1="0" x2="0.3" y2="1"><stop offset="0%" stop-color="#fbf5e3"/><stop offset="100%" stop-color="#efe2c4"/></linearGradient>
    <radialGradient id="parchGlow" cx="50%" cy="42%" r="70%"><stop offset="0%" stop-color="#fffdf3" stop-opacity="0.6"/><stop offset="100%" stop-color="#fffdf3" stop-opacity="0"/></radialGradient>
    <radialGradient id="oroGradc" cx="40%" cy="35%" r="75%"><stop offset="0%" stop-color="#fdeaa0"/><stop offset="55%" stop-color="#e9c34e"/><stop offset="100%" stop-color="#c2941f"/></radialGradient>
    <radialGradient id="oroCorec" cx="40%" cy="35%" r="80%"><stop offset="0%" stop-color="#fdeaa0"/><stop offset="100%" stop-color="#d9ad33"/></radialGradient>
    <linearGradient id="copaBowlc" x1="0" y1="0" x2="0" y2="1"><stop offset="0%" stop-color="#f0c45e"/><stop offset="100%" stop-color="#c2901f"/></linearGradient>
    <linearGradient id="copaStemc" x1="0" y1="0" x2="1" y2="0"><stop offset="0%" stop-color="#ecc25a"/><stop offset="100%" stop-color="#b8881c"/></linearGradient>
    <linearGradient id="copaFootc" x1="0" y1="0" x2="0" y2="1"><stop offset="0%" stop-color="#f0c45e"/><stop offset="100%" stop-color="#b8881c"/></linearGradient>
    <linearGradient id="bladec" x1="0" y1="0" x2="1" y2="0"><stop offset="0%" stop-color="#9fb2c4"/><stop offset="50%" stop-color="#e8eef4"/><stop offset="100%" stop-color="#7f93a6"/></linearGradient>
    <linearGradient id="guardc" x1="0" y1="0" x2="0" y2="1"><stop offset="0%" stop-color="#f0d36a"/><stop offset="100%" stop-color="#b8881c"/></linearGradient>
    <linearGradient id="gripc" x1="0" y1="0" x2="1" y2="0"><stop offset="0%" stop-color="#6a4a24"/><stop offset="100%" stop-color="#3a260f"/></linearGradient>
    <radialGradient id="pommelc" cx="40%" cy="35%" r="75%"><stop offset="0%" stop-color="#f0d36a"/><stop offset="100%" stop-color="#b8881c"/></radialGradient>
    <linearGradient id="woodc" x1="0" y1="0" x2="1" y2="0"><stop offset="0%" stop-color="#b98a4e"/><stop offset="45%" stop-color="#9c6b2f"/><stop offset="100%" stop-color="#6e4720"/></linearGradient>
    <radialGradient id="oroGradci" cx="40%" cy="35%" r="75%"><stop offset="0%" stop-color="#fdeaa0"/><stop offset="55%" stop-color="#e9c34e"/><stop offset="100%" stop-color="#c2941f"/></radialGradient>
    <radialGradient id="oroCoreci" cx="40%" cy="35%" r="80%"><stop offset="0%" stop-color="#fdeaa0"/><stop offset="100%" stop-color="#d9ad33"/></radialGradient>
    <linearGradient id="copaBowlci" x1="0" y1="0" x2="0" y2="1"><stop offset="0%" stop-color="#f0c45e"/><stop offset="100%" stop-color="#c2901f"/></linearGradient>
    <linearGradient id="copaStemci" x1="0" y1="0" x2="1" y2="0"><stop offset="0%" stop-color="#ecc25a"/><stop offset="100%" stop-color="#b8881c"/></linearGradient>
    <linearGradient id="copaFootci" x1="0" y1="0" x2="0" y2="1"><stop offset="0%" stop-color="#f0c45e"/><stop offset="100%" stop-color="#b8881c"/></linearGradient>
    <linearGradient id="bladeci" x1="0" y1="0" x2="1" y2="0"><stop offset="0%" stop-color="#9fb2c4"/><stop offset="50%" stop-color="#e8eef4"/><stop offset="100%" stop-color="#7f93a6"/></linearGradient>
    <linearGradient id="guardci" x1="0" y1="0" x2="0" y2="1"><stop offset="0%" stop-color="#f0d36a"/><stop offset="100%" stop-color="#b8881c"/></linearGradient>
    <linearGradient id="gripci" x1="0" y1="0" x2="1" y2="0"><stop offset="0%" stop-color="#6a4a24"/><stop offset="100%" stop-color="#3a260f"/></linearGradient>
    <radialGradient id="pommelci" cx="40%" cy="35%" r="75%"><stop offset="0%" stop-color="#f0d36a"/><stop offset="100%" stop-color="#b8881c"/></radialGradient>
    <linearGradient id="woodci" x1="0" y1="0" x2="1" y2="0"><stop offset="0%" stop-color="#b98a4e"/><stop offset="45%" stop-color="#9c6b2f"/><stop offset="100%" stop-color="#6e4720"/></linearGradient></defs>
    <rect x="2.5" y="2.5" width="245" height="345" rx="17" fill="url(#parch)" stroke="#cbb98a" stroke-width="2"/>
    <rect x="2.5" y="2.5" width="245" height="345" rx="17" fill="url(#parchGlow)"/>
    <rect x="11" y="11" width="228" height="328" rx="12" fill="none" stroke="#b0271c" stroke-width="2.6"/>
    <rect x="16" y="16" width="218" height="318" rx="8.5" fill="none" stroke="#b0271c" stroke-width="1" opacity="0.5"/>
    <path transform="translate(125.0 19) rotate(45)" d="M-2.6,-2.6 h5.2 v5.2 h-5.2 Z" fill="#b0271c"/><path transform="translate(125.0 331) rotate(45)" d="M-2.6,-2.6 h5.2 v5.2 h-5.2 Z" fill="#b0271c"/><g transform="translate(125.0 100.1) scale(0.860)"><g>
      <ellipse cx="0" cy="50" rx="24" ry="6" fill="#7a4a12" opacity="0.30"/>
      <path d="M-30,-34 Q-30,8 0,16 Q30,8 30,-34 Z" fill="url(#copaBowlc)" stroke="#8a3b22" stroke-width="2"/>
      <path d="M-30,-34 Q0,-22 30,-34 L30,-25 Q0,-13 -30,-25 Z" fill="#b0271c" stroke="#8a3b22" stroke-width="1.4"/>
      <ellipse cx="0" cy="-34" rx="30" ry="8" fill="#ecc25a" stroke="#8a6414" stroke-width="1.5"/>
      <circle cx="0" cy="-44" r="5" fill="#ecc25a" stroke="#8a6414" stroke-width="1.2"/>
      <rect x="-4.5" y="16" width="9" height="20" fill="url(#copaStemc)" stroke="#8a6414" stroke-width="1"/>
      <ellipse cx="0" cy="22" rx="9" ry="4.5" fill="#ecc25a" stroke="#8a6414" stroke-width="1.1"/>
      <path d="M-24,46 Q0,34 24,46 Q0,40 -24,46 Z M-24,46 Q0,52 24,46" fill="url(#copaFootc)" stroke="#8a6414" stroke-width="1.5"/>
    </g></g>
<g transform="translate(125.0 255.9) scale(0.860)"><g>
      <ellipse cx="0" cy="50" rx="24" ry="6" fill="#7a4a12" opacity="0.30"/>
      <path d="M-30,-34 Q-30,8 0,16 Q30,8 30,-34 Z" fill="url(#copaBowlc)" stroke="#8a3b22" stroke-width="2"/>
      <path d="M-30,-34 Q0,-22 30,-34 L30,-25 Q0,-13 -30,-25 Z" fill="#b0271c" stroke="#8a3b22" stroke-width="1.4"/>
      <ellipse cx="0" cy="-34" rx="30" ry="8" fill="#ecc25a" stroke="#8a6414" stroke-width="1.5"/>
      <circle cx="0" cy="-44" r="5" fill="#ecc25a" stroke="#8a6414" stroke-width="1.2"/>
      <rect x="-4.5" y="16" width="9" height="20" fill="url(#copaStemc)" stroke="#8a6414" stroke-width="1"/>
      <ellipse cx="0" cy="22" rx="9" ry="4.5" fill="#ecc25a" stroke="#8a6414" stroke-width="1.1"/>
      <path d="M-24,46 Q0,34 24,46 Q0,40 -24,46 Z M-24,46 Q0,52 24,46" fill="url(#copaFootc)" stroke="#8a6414" stroke-width="1.5"/>
    </g></g><g transform="translate(31 41)"><text x="0" y="0" font-family="Georgia,serif" font-weight="bold" font-size="31" fill="#b0271c" text-anchor="middle">2</text><g transform="translate(0 23)"><g transform="scale(0.21)"><g>
      <ellipse cx="0" cy="50" rx="24" ry="6" fill="#7a4a12" opacity="0.30"/>
      <path d="M-30,-34 Q-30,8 0,16 Q30,8 30,-34 Z" fill="url(#copaBowlci)" stroke="#8a3b22" stroke-width="2"/>
      <path d="M-30,-34 Q0,-22 30,-34 L30,-25 Q0,-13 -30,-25 Z" fill="#b0271c" stroke="#8a3b22" stroke-width="1.4"/>
      <ellipse cx="0" cy="-34" rx="30" ry="8" fill="#ecc25a" stroke="#8a6414" stroke-width="1.5"/>
      <circle cx="0" cy="-44" r="5" fill="#ecc25a" stroke="#8a6414" stroke-width="1.2"/>
      <rect x="-4.5" y="16" width="9" height="20" fill="url(#copaStemci)" stroke="#8a6414" stroke-width="1"/>
      <ellipse cx="0" cy="22" rx="9" ry="4.5" fill="#ecc25a" stroke="#8a6414" stroke-width="1.1"/>
      <path d="M-24,46 Q0,34 24,46 Q0,40 -24,46 Z M-24,46 Q0,52 24,46" fill="url(#copaFootci)" stroke="#8a6414" stroke-width="1.5"/>
    </g></g></g></g><g transform="translate(219 309) rotate(180)"><text x="0" y="0" font-family="Georgia,serif" font-weight="bold" font-size="31" fill="#b0271c" text-anchor="middle">2</text><g transform="translate(0 23)"><g transform="scale(0.21)"><g>
      <ellipse cx="0" cy="50" rx="24" ry="6" fill="#7a4a12" opacity="0.30"/>
      <path d="M-30,-34 Q-30,8 0,16 Q30,8 30,-34 Z" fill="url(#copaBowlci)" stroke="#8a3b22" stroke-width="2"/>
      <path d="M-30,-34 Q0,-22 30,-34 L30,-25 Q0,-13 -30,-25 Z" fill="#b0271c" stroke="#8a3b22" stroke-width="1.4"/>
      <ellipse cx="0" cy="-34" rx="30" ry="8" fill="#ecc25a" stroke="#8a6414" stroke-width="1.5"/>
      <circle cx="0" cy="-44" r="5" fill="#ecc25a" stroke="#8a6414" stroke-width="1.2"/>
      <rect x="-4.5" y="16" width="9" height="20" fill="url(#copaStemci)" stroke="#8a6414" stroke-width="1"/>
      <ellipse cx="0" cy="22" rx="9" ry="4.5" fill="#ecc25a" stroke="#8a6414" stroke-width="1.1"/>
      <path d="M-24,46 Q0,34 24,46 Q0,40 -24,46 Z M-24,46 Q0,52 24,46" fill="url(#copaFootci)" stroke="#8a6414" stroke-width="1.5"/>
    </g></g></g></g></svg>