<svg xmlns="http://www.w3.org/2000/svg" width="250" height="350" viewBox="0 0 250 350"><defs>
    <radialGradient id="oroGradb" cx="40%" cy="35%" r="75%"><stop offset="0%" stop-color="#fdeaa0"/><stop offset="55%" stop-color="#e9c34e"/><stop offset="100%" stop-color="#c2941f"/></radialGradient>
    <radialGradient id="oroCoreb" cx="40%" cy="35%" r="80%"><stop offset="0%" stop-color="#fdeaa0"/><stop offset="100%" stop-color="#d9ad33"/></radialGradient>
    <linearGradient id="copaBowlb" x1="0" y1="0" x2="0" y2="1"><stop offset="0%" stop-color="#f0c45e"/><stop offset="100%" stop-color="#c2901f"/></linearGradient>
    <linearGradient id="copaStemb" x1="0" y1="0" x2="1" y2="0"><stop offset="0%" stop-color="#ecc25a"/><stop offset="100%" stop-color="#b8881c"/></linearGradient>
    <linearGradient id="copaFootb" x1="0" y1="0" x2="0" y2="1"><stop offset="0%" stop-color="#f0c45e"/><stop offset="100%" stop-color="#b8881c"/></linearGradient>
    <linearGradient id="bladeb" x1="0" y1="0" x2="1" y2="0"><stop offset="0%" stop-color="#9fb2c4"/><stop offset="50%" stop-color="#e8eef4"/><stop offset="100%" stop-color="#7f93a6"/></linearGradient>
    <linearGradient id="guardb" x1="0" y1="0" x2="0" y2="1"><stop offset="0%" stop-color="#f0d36a"/><stop offset="100%" stop-color="#b8881c"/></linearGradient>
    <linearGradient id="gripb" x1="0" y1="0" x2="1" y2="0"><stop offset="0%" stop-color="#6a4a24"/><stop offset="100%" stop-color="#3a260f"/></linearGradient>
    <radialGradient id="pommelb" cx="40%" cy="35%" r="75%"><stop offset="0%" stop-color="#f0d36a"/><stop offset="100%" stop-color="#b8881c"/></radialGradient>
    <linearGradient id="woodb" x1="0" y1="0" x2="1" y2="0"><stop offset="0%" stop-color="#b98a4e"/><stop offset="45%" stop-color="#9c6b2f"/><stop offset="100%" stop-color="#6e4720"/></linearGradient>
    <linearGradient id="parchb" x1="0" y1="0" x2="0" y2="1"><stop offset="0%" stop-color="#fbf5e3"/><stop offset="100%" stop-color="#efe2c4"/></linearGradient>
    <radialGradient id="oroGradbi" cx="40%" cy="35%" r="75%"><stop offset="0%" stop-color="#fdeaa0"/><stop offset="55%" stop-color="#e9c34e"/><stop offset="100%" stop-color="#c2941f"/></radialGradient>
    <radialGradient id="oroCorebi" cx="40%" cy="35%" r="80%"><stop offset="0%" stop-color="#fdeaa0"/><stop offset="100%" stop-color="#d9ad33"/></radialGradient>
    <linearGradient id="copaBowlbi" x1="0" y1="0" x2="0" y2="1"><stop offset="0%" stop-color="#f0c45e"/><stop offset="100%" stop-color="#c2901f"/></linearGradient>
    <linearGradient id="copaStembi" x1="0" y1="0" x2="1" y2="0"><stop offset="0%" stop-color="#ecc25a"/><stop offset="100%" stop-color="#b8881c"/></linearGradient>
    <linearGradient id="copaFootbi" x1="0" y1="0" x2="0" y2="1"><stop offset="0%" stop-color="#f0c45e"/><stop offset="100%" stop-color="#b8881c"/></linearGradient>
    <linearGradient id="bladebi" x1="0" y1="0" x2="1" y2="0"><stop offset="0%" stop-color="#9fb2c4"/><stop offset="50%" stop-color="#e8eef4"/><stop offset="100%" stop-color="#7f93a6"/></linearGradient>
    <linearGradient id="guardbi" x1="0" y1="0" x2="0" y2="1"><stop offset="0%" stop-color="#f0d36a"/><stop offset="100%" stop-color="#b8881c"/></linearGradient>
    <linearGradient id="gripbi" x1="0" y1="0" x2="1" y2="0"><stop offset="0%" stop-color="#6a4a24"/><stop offset="100%" stop-color="#3a260f"/></linearGradient>
    <radialGradient id="pommelbi" cx="40%" cy="35%" r="75%"><stop offset="0%" stop-color="#f0d36a"/><stop offset="100%" stop-color="#b8881c"/></radialGradient>
    <linearGradient id="woodbi" x1="0" y1="0" x2="1" y2="0"><stop offset="0%" stop-color="#b98a4e"/><stop offset="45%" stop-color="#9c6b2f"/><stop offset="100%" stop-color="#6e4720"/></linearGradient>
    <linearGradient id="parchbi" x1="0" y1="0" x2="0" y2="1"><stop offset="0%" stop-color="#fbf5e3"/><stop offset="100%" stop-color="#efe2c4"/></linearGradient></defs>
    <rect x="3" y="3" width="244" height="344" rx="16" fill="url(#parchb)" stroke="#cdbb8e" stroke-width="2"/>
    <rect x="12" y="12" width="226" height="326" rx="11" fill="none" stroke="#2f7d4f" stroke-width="2.4" opacity="0.9"/>
    <rect x="17" y="17" width="216" height="316" rx="8" fill="none" stroke="#2f7d4f" stroke-width="1" opacity="0.5"/>
    <g fill="#2f7d4f">
      <circle cx="12" cy="12" r="3.2"/><circle cx="238" cy="12" r="3.2"/>
      <circle cx="12" cy="338" r="3.2"/><circle cx="238" cy="338" r="3.2"/>
    </g><g transform="translate(80.4 81.2) scale(0.580) rotate(12)"><g>
      <path d="M-9,-50 Q-15,-46 -13,-30 L-7,38 Q-9,52 0,54 Q9,52 7,38 L13,-30 Q15,-46 9,-50 Q0,-56 -9,-50 Z"
            fill="url(#woodb)" stroke="#5a3a18" stroke-width="2"/>
      <path d="M11,-22 Q25,-30 30,-18 Q21,-19 13,-9 Z" fill="url(#woodb)" stroke="#5a3a18" stroke-width="1.6"/>
      <ellipse cx="28" cy="-20" rx="3.4" ry="2.6" fill="#caa066"/>
      <path d="M-12,0 Q-27,-3 -32,10 Q-22,7 -11,13 Z" fill="url(#woodb)" stroke="#5a3a18" stroke-width="1.6"/>
      <ellipse cx="-30" cy="9" rx="3.4" ry="2.6" fill="#caa066"/>
      <g fill="#6a4420"><ellipse cx="-1" cy="-34" rx="3.6" ry="4.6"/><ellipse cx="4" cy="-6" rx="3.6" ry="4.6"/><ellipse cx="-4" cy="22" rx="3.6" ry="4.6"/></g>
      <path d="M-4,-48 Q-6,-20 -2,40" fill="none" stroke="#caa066" stroke-width="1.6" opacity="0.55"/>
    </g></g>
<g transform="translate(169.6 81.2) scale(0.580) rotate(-12)"><g>
      <path d="M-9,-50 Q-15,-46 -13,-30 L-7,38 Q-9,52 0,54 Q9,52 7,38 L13,-30 Q15,-46 9,-50 Q0,-56 -9,-50 Z"
            fill="url(#woodb)" stroke="#5a3a18" stroke-width="2"/>
      <path d="M11,-22 Q25,-30 30,-18 Q21,-19 13,-9 Z" fill="url(#woodb)" stroke="#5a3a18" stroke-width="1.6"/>
      <ellipse cx="28" cy="-20" rx="3.4" ry="2.6" fill="#caa066"/>
      <path d="M-12,0 Q-27,-3 -32,10 Q-22,7 -11,13 Z" fill="url(#woodb)" stroke="#5a3a18" stroke-width="1.6"/>
      <ellipse cx="-30" cy="9" rx="3.4" ry="2.6" fill="#caa066"/>
      <g fill="#6a4420"><ellipse cx="-1" cy="-34" rx="3.6" ry="4.6"/><ellipse cx="4" cy="-6" rx="3.6" ry="4.6"/><ellipse cx="-4" cy="22" rx="3.6" ry="4.6"/></g>
      <path d="M-4,-48 Q-6,-20 -2,40" fill="none" stroke="#caa066" stroke-width="1.6" opacity="0.55"/>
    </g></g>
<g transform="translate(80.4 178.0) scale(0.580) rotate(12)"><g>
      <path d="M-9,-50 Q-15,-46 -13,-30 L-7,38 Q-9,52 0,54 Q9,52 7,38 L13,-30 Q15,-46 9,-50 Q0,-56 -9,-50 Z"
            fill="url(#woodb)" stroke="#5a3a18" stroke-width="2"/>
      <path d="M11,-22 Q25,-30 30,-18 Q21,-19 13,-9 Z" fill="url(#woodb)" stroke="#5a3a18" stroke-width="1.6"/>
      <ellipse cx="28" cy="-20" rx="3.4" ry="2.6" fill="#caa066"/>
      <path d="M-12,0 Q-27,-3 -32,10 Q-22,7 -11,13 Z" fill="url(#woodb)" stroke="#5a3a18" stroke-width="1.6"/>
      <ellipse cx="-30" cy="9" rx="3.4" ry="2.6" fill="#caa066"/>
      <g fill="#6a4420"><ellipse cx="-1" cy="-34" rx="3.6" ry="4.6"/><ellipse cx="4" cy="-6" rx="3.6" ry="4.6"/><ellipse cx="-4" cy="22" rx="3.6" ry="4.6"/></g>
      <path d="M-4,-48 Q-6,-20 -2,40" fill="none" stroke="#caa066" stroke-width="1.6" opacity="0.55"/>
    </g></g>
<g transform="translate(169.6 178.0) scale(0.580) rotate(-12)"><g>
      <path d="M-9,-50 Q-15,-46 -13,-30 L-7,38 Q-9,52 0,54 Q9,52 7,38 L13,-30 Q15,-46 9,-50 Q0,-56 -9,-50 Z"
            fill="url(#woodb)" stroke="#5a3a18" stroke-width="2"/>
      <path d="M11,-22 Q25,-30 30,-18 Q21,-19 13,-9 Z" fill="url(#woodb)" stroke="#5a3a18" stroke-width="1.6"/>
      <ellipse cx="28" cy="-20" rx="3.4" ry="2.6" fill="#caa066"/>
      <path d="M-12,0 Q-27,-3 -32,10 Q-22,7 -11,13 Z" fill="url(#woodb)" stroke="#5a3a18" stroke-width="1.6"/>
      <ellipse cx="-30" cy="9" rx="3.4" ry="2.6" fill="#caa066"/>
      <g fill="#6a4420"><ellipse cx="-1" cy="-34" rx="3.6" ry="4.6"/><ellipse cx="4" cy="-6" rx="3.6" ry="4.6"/><ellipse cx="-4" cy="22" rx="3.6" ry="4.6"/></g>
      <path d="M-4,-48 Q-6,-20 -2,40" fill="none" stroke="#caa066" stroke-width="1.6" opacity="0.55"/>
    </g></g>
<g transform="translate(80.4 274.8) scale(0.580) rotate(12)"><g>
      <path d="M-9,-50 Q-15,-46 -13,-30 L-7,38 Q-9,52 0,54 Q9,52 7,38 L13,-30 Q15,-46 9,-50 Q0,-56 -9,-50 Z"
            fill="url(#woodb)" stroke="#5a3a18" stroke-width="2"/>
      <path d="M11,-22 Q25,-30 30,-18 Q21,-19 13,-9 Z" fill="url(#woodb)" stroke="#5a3a18" stroke-width="1.6"/>
      <ellipse cx="28" cy="-20" rx="3.4" ry="2.6" fill="#caa066"/>
      <path d="M-12,0 Q-27,-3 -32,10 Q-22,7 -11,13 Z" fill="url(#woodb)" stroke="#5a3a18" stroke-width="1.6"/>
      <ellipse cx="-30" cy="9" rx="3.4" ry="2.6" fill="#caa066"/>
      <g fill="#6a4420"><ellipse cx="-1" cy="-34" rx="3.6" ry="4.6"/><ellipse cx="4" cy="-6" rx="3.6" ry="4.6"/><ellipse cx="-4" cy="22" rx="3.6" ry="4.6"/></g>
      <path d="M-4,-48 Q-6,-20 -2,40" fill="none" stroke="#caa066" stroke-width="1.6" opacity="0.55"/>
    </g></g>
<g transform="translate(169.6 274.8) scale(0.580) rotate(-12)"><g>
      <path d="M-9,-50 Q-15,-46 -13,-30 L-7,38 Q-9,52 0,54 Q9,52 7,38 L13,-30 Q15,-46 9,-50 Q0,-56 -9,-50 Z"
            fill="url(#woodb)" stroke="#5a3a18" stroke-width="2"/>
      <path d="M11,-22 Q25,-30 30,-18 Q21,-19 13,-9 Z" fill="url(#woodb)" stroke="#5a3a18" stroke-width="1.6"/>
      <ellipse cx="28" cy="-20" rx="3.4" ry="2.6" fill="#caa066"/>
      <path d="M-12,0 Q-27,-3 -32,10 Q-22,7 -11,13 Z" fill="url(#woodb)" stroke="#5a3a18" stroke-width="1.6"/>
      <ellipse cx="-30" cy="9" rx="3.4" ry="2.6" fill="#caa066"/>
      <g fill="#6a4420"><ellipse cx="-1" cy="-34" rx="3.6" ry="4.6"/><ellipse cx="4" cy="-6" rx="3.6" ry="4.6"/><ellipse cx="-4" cy="22" rx="3.6" ry="4.6"/></g>
      <path d="M-4,-48 Q-6,-20 -2,40" fill="none" stroke="#caa066" stroke-width="1.6" opacity="0.55"/>
    </g></g><g transform="translate(30 40)"><text x="0" y="0" font-family="Georgia,serif" font-weight="bold" font-size="30" fill="#2f7d4f" text-anchor="middle">6</text><g transform="translate(0 22)"><g transform="scale(0.22)"><g>
      <path d="M-9,-50 Q-15,-46 -13,-30 L-7,38 Q-9,52 0,54 Q9,52 7,38 L13,-30 Q15,-46 9,-50 Q0,-56 -9,-50 Z"
            fill="url(#woodbi)" stroke="#5a3a18" stroke-width="2"/>
      <path d="M11,-22 Q25,-30 30,-18 Q21,-19 13,-9 Z" fill="url(#woodbi)" stroke="#5a3a18" stroke-width="1.6"/>
      <ellipse cx="28" cy="-20" rx="3.4" ry="2.6" fill="#caa066"/>
      <path d="M-12,0 Q-27,-3 -32,10 Q-22,7 -11,13 Z" fill="url(#woodbi)" stroke="#5a3a18" stroke-width="1.6"/>
      <ellipse cx="-30" cy="9" rx="3.4" ry="2.6" fill="#caa066"/>
      <g fill="#6a4420"><ellipse cx="-1" cy="-34" rx="3.6" ry="4.6"/><ellipse cx="4" cy="-6" rx="3.6" ry="4.6"/><ellipse cx="-4" cy="22" rx="3.6" ry="4.6"/></g>
      <path d="M-4,-48 Q-6,-20 -2,40" fill="none" stroke="#caa066" stroke-width="1.6" opacity="0.55"/>
    </g></g></g></g><g transform="translate(220 310) rotate(180)"><text x="0" y="0" font-family="Georgia,serif" font-weight="bold" font-size="30" fill="#2f7d4f" text-anchor="middle">6</text><g transform="translate(0 22)"><g transform="scale(0.22)"><g>
      <path d="M-9,-50 Q-15,-46 -13,-30 L-7,38 Q-9,52 0,54 Q9,52 7,38 L13,-30 Q15,-46 9,-50 Q0,-56 -9,-50 Z"
            fill="url(#woodbi)" stroke="#5a3a18" stroke-width="2"/>
      <path d="M11,-22 Q25,-30 30,-18 Q21,-19 13,-9 Z" fill="url(#woodbi)" stroke="#5a3a18" stroke-width="1.6"/>
      <ellipse cx="28" cy="-20" rx="3.4" ry="2.6" fill="#caa066"/>
      <path d="M-12,0 Q-27,-3 -32,10 Q-22,7 -11,13 Z" fill="url(#woodbi)" stroke="#5a3a18" stroke-width="1.6"/>
      <ellipse cx="-30" cy="9" rx="3.4" ry="2.6" fill="#caa066"/>
      <g fill="#6a4420"><ellipse cx="-1" cy="-34" rx="3.6" ry="4.6"/><ellipse cx="4" cy="-6" rx="3.6" ry="4.6"/><ellipse cx="-4" cy="22" rx="3.6" ry="4.6"/></g>
      <path d="M-4,-48 Q-6,-20 -2,40" fill="none" stroke="#caa066" stroke-width="1.6" opacity="0.55"/>
    </g></g></g></g></svg>