<svg xmlns="http://www.w3.org/2000/svg" width="250" height="350" viewBox="0 0 250 350"><defs>
    <linearGradient id="parch" x1="0" y1="0" x2="0.3" y2="1"><stop offset="0%" stop-color="#fbf5e3"/><stop offset="100%" stop-color="#efe2c4"/></linearGradient>
    <radialGradient id="parchGlow" cx="50%" cy="42%" r="70%"><stop offset="0%" stop-color="#fffdf3" stop-opacity="0.6"/><stop offset="100%" stop-color="#fffdf3" stop-opacity="0"/></radialGradient>
    <radialGradient id="oroGrade" cx="40%" cy="35%" r="75%"><stop offset="0%" stop-color="#fdeaa0"/><stop offset="55%" stop-color="#e9c34e"/><stop offset="100%" stop-color="#c2941f"/></radialGradient>
    <radialGradient id="oroCoree" cx="40%" cy="35%" r="80%"><stop offset="0%" stop-color="#fdeaa0"/><stop offset="100%" stop-color="#d9ad33"/></radialGradient>
    <linearGradient id="copaBowle" x1="0" y1="0" x2="0" y2="1"><stop offset="0%" stop-color="#f0c45e"/><stop offset="100%" stop-color="#c2901f"/></linearGradient>
    <linearGradient id="copaSteme" x1="0" y1="0" x2="1" y2="0"><stop offset="0%" stop-color="#ecc25a"/><stop offset="100%" stop-color="#b8881c"/></linearGradient>
    <linearGradient id="copaFoote" x1="0" y1="0" x2="0" y2="1"><stop offset="0%" stop-color="#f0c45e"/><stop offset="100%" stop-color="#b8881c"/></linearGradient>
    <linearGradient id="bladee" x1="0" y1="0" x2="1" y2="0"><stop offset="0%" stop-color="#9fb2c4"/><stop offset="50%" stop-color="#e8eef4"/><stop offset="100%" stop-color="#7f93a6"/></linearGradient>
    <linearGradient id="guarde" x1="0" y1="0" x2="0" y2="1"><stop offset="0%" stop-color="#f0d36a"/><stop offset="100%" stop-color="#b8881c"/></linearGradient>
    <linearGradient id="gripe" x1="0" y1="0" x2="1" y2="0"><stop offset="0%" stop-color="#6a4a24"/><stop offset="100%" stop-color="#3a260f"/></linearGradient>
    <radialGradient id="pommele" cx="40%" cy="35%" r="75%"><stop offset="0%" stop-color="#f0d36a"/><stop offset="100%" stop-color="#b8881c"/></radialGradient>
    <linearGradient id="woode" x1="0" y1="0" x2="1" y2="0"><stop offset="0%" stop-color="#b98a4e"/><stop offset="45%" stop-color="#9c6b2f"/><stop offset="100%" stop-color="#6e4720"/></linearGradient>
    <radialGradient id="oroGradei" cx="40%" cy="35%" r="75%"><stop offset="0%" stop-color="#fdeaa0"/><stop offset="55%" stop-color="#e9c34e"/><stop offset="100%" stop-color="#c2941f"/></radialGradient>
    <radialGradient id="oroCoreei" cx="40%" cy="35%" r="80%"><stop offset="0%" stop-color="#fdeaa0"/><stop offset="100%" stop-color="#d9ad33"/></radialGradient>
    <linearGradient id="copaBowlei" x1="0" y1="0" x2="0" y2="1"><stop offset="0%" stop-color="#f0c45e"/><stop offset="100%" stop-color="#c2901f"/></linearGradient>
    <linearGradient id="copaStemei" x1="0" y1="0" x2="1" y2="0"><stop offset="0%" stop-color="#ecc25a"/><stop offset="100%" stop-color="#b8881c"/></linearGradient>
    <linearGradient id="copaFootei" x1="0" y1="0" x2="0" y2="1"><stop offset="0%" stop-color="#f0c45e"/><stop offset="100%" stop-color="#b8881c"/></linearGradient>
    <linearGradient id="bladeei" x1="0" y1="0" x2="1" y2="0"><stop offset="0%" stop-color="#9fb2c4"/><stop offset="50%" stop-color="#e8eef4"/><stop offset="100%" stop-color="#7f93a6"/></linearGradient>
    <linearGradient id="guardei" x1="0" y1="0" x2="0" y2="1"><stop offset="0%" stop-color="#f0d36a"/><stop offset="100%" stop-color="#b8881c"/></linearGradient>
    <linearGradient id="gripei" x1="0" y1="0" x2="1" y2="0"><stop offset="0%" stop-color="#6a4a24"/><stop offset="100%" stop-color="#3a260f"/></linearGradient>
    <radialGradient id="pommelei" cx="40%" cy="35%" r="75%"><stop offset="0%" stop-color="#f0d36a"/><stop offset="100%" stop-color="#b8881c"/></radialGradient>
    <linearGradient id="woodei" x1="0" y1="0" x2="1" y2="0"><stop offset="0%" stop-color="#b98a4e"/><stop offset="45%" stop-color="#9c6b2f"/><stop offset="100%" stop-color="#6e4720"/></linearGradient></defs>
    <rect x="2.5" y="2.5" width="245" height="345" rx="17" fill="url(#parch)" stroke="#cbb98a" stroke-width="2"/>
    <rect x="2.5" y="2.5" width="245" height="345" rx="17" fill="url(#parchGlow)"/>
    <rect x="11" y="11" width="228" height="328" rx="12" fill="none" stroke="#2f5b9c" stroke-width="2.6"/>
    <rect x="16" y="16" width="218" height="318" rx="8.5" fill="none" stroke="#2f5b9c" stroke-width="1" opacity="0.5"/>
    <path transform="translate(118.5 19) rotate(45)" d="M-2.6,-2.6 h5.2 v5.2 h-5.2 Z" fill="#2f5b9c"/><path transform="translate(118.5 331) rotate(45)" d="M-2.6,-2.6 h5.2 v5.2 h-5.2 Z" fill="#2f5b9c"/><path transform="translate(131.5 19) rotate(45)" d="M-2.6,-2.6 h5.2 v5.2 h-5.2 Z" fill="#2f5b9c"/><path transform="translate(131.5 331) rotate(45)" d="M-2.6,-2.6 h5.2 v5.2 h-5.2 Z" fill="#2f5b9c"/><g transform="translate(80.4 77.7) scale(0.560) rotate(16)"><g>
      <path d="M0,-54 L7,-30 L6,34 L0,40 L-6,34 L-7,-30 Z" fill="url(#bladee)" stroke="#5b6b7a" stroke-width="1.4"/>
      <line x1="0" y1="-46" x2="0" y2="32" stroke="#ffffff" stroke-width="1.2" opacity="0.5"/>
      <rect x="-22" y="34" width="44" height="8" rx="3" fill="url(#guarde)" stroke="#7a5a10" stroke-width="1.2"/>
      <circle cx="-22" cy="38" r="5" fill="#eac84e" stroke="#7a5a10" stroke-width="1"/>
      <circle cx="22" cy="38" r="5" fill="#eac84e" stroke="#7a5a10" stroke-width="1"/>
      <rect x="-5" y="42" width="10" height="22" rx="3" fill="url(#gripe)" stroke="#3a2a14" stroke-width="1.2"/>
      <g stroke="#2a1d0e" stroke-width="1.1"><line x1="-5" y1="48" x2="5" y2="46"/><line x1="-5" y1="54" x2="5" y2="52"/><line x1="-5" y1="60" x2="5" y2="58"/></g>
      <circle cx="0" cy="68" r="6.5" fill="url(#pommele)" stroke="#7a5a10" stroke-width="1.2"/>
    </g></g>
<g transform="translate(169.6 77.7) scale(0.560) rotate(-16)"><g>
      <path d="M0,-54 L7,-30 L6,34 L0,40 L-6,34 L-7,-30 Z" fill="url(#bladee)" stroke="#5b6b7a" stroke-width="1.4"/>
      <line x1="0" y1="-46" x2="0" y2="32" stroke="#ffffff" stroke-width="1.2" opacity="0.5"/>
      <rect x="-22" y="34" width="44" height="8" rx="3" fill="url(#guarde)" stroke="#7a5a10" stroke-width="1.2"/>
      <circle cx="-22" cy="38" r="5" fill="#eac84e" stroke="#7a5a10" stroke-width="1"/>
      <circle cx="22" cy="38" r="5" fill="#eac84e" stroke="#7a5a10" stroke-width="1"/>
      <rect x="-5" y="42" width="10" height="22" rx="3" fill="url(#gripe)" stroke="#3a2a14" stroke-width="1.2"/>
      <g stroke="#2a1d0e" stroke-width="1.1"><line x1="-5" y1="48" x2="5" y2="46"/><line x1="-5" y1="54" x2="5" y2="52"/><line x1="-5" y1="60" x2="5" y2="58"/></g>
      <circle cx="0" cy="68" r="6.5" fill="url(#pommele)" stroke="#7a5a10" stroke-width="1.2"/>
    </g></g>
<g transform="translate(125.0 128.4) scale(0.560) rotate(16)"><g>
      <path d="M0,-54 L7,-30 L6,34 L0,40 L-6,34 L-7,-30 Z" fill="url(#bladee)" stroke="#5b6b7a" stroke-width="1.4"/>
      <line x1="0" y1="-46" x2="0" y2="32" stroke="#ffffff" stroke-width="1.2" opacity="0.5"/>
      <rect x="-22" y="34" width="44" height="8" rx="3" fill="url(#guarde)" stroke="#7a5a10" stroke-width="1.2"/>
      <circle cx="-22" cy="38" r="5" fill="#eac84e" stroke="#7a5a10" stroke-width="1"/>
      <circle cx="22" cy="38" r="5" fill="#eac84e" stroke="#7a5a10" stroke-width="1"/>
      <rect x="-5" y="42" width="10" height="22" rx="3" fill="url(#gripe)" stroke="#3a2a14" stroke-width="1.2"/>
      <g stroke="#2a1d0e" stroke-width="1.1"><line x1="-5" y1="48" x2="5" y2="46"/><line x1="-5" y1="54" x2="5" y2="52"/><line x1="-5" y1="60" x2="5" y2="58"/></g>
      <circle cx="0" cy="68" r="6.5" fill="url(#pommele)" stroke="#7a5a10" stroke-width="1.2"/>
    </g></g>
<g transform="translate(80.4 183.9) scale(0.560) rotate(16)"><g>
      <path d="M0,-54 L7,-30 L6,34 L0,40 L-6,34 L-7,-30 Z" fill="url(#bladee)" stroke="#5b6b7a" stroke-width="1.4"/>
      <line x1="0" y1="-46" x2="0" y2="32" stroke="#ffffff" stroke-width="1.2" opacity="0.5"/>
      <rect x="-22" y="34" width="44" height="8" rx="3" fill="url(#guarde)" stroke="#7a5a10" stroke-width="1.2"/>
      <circle cx="-22" cy="38" r="5" fill="#eac84e" stroke="#7a5a10" stroke-width="1"/>
      <circle cx="22" cy="38" r="5" fill="#eac84e" stroke="#7a5a10" stroke-width="1"/>
      <rect x="-5" y="42" width="10" height="22" rx="3" fill="url(#gripe)" stroke="#3a2a14" stroke-width="1.2"/>
      <g stroke="#2a1d0e" stroke-width="1.1"><line x1="-5" y1="48" x2="5" y2="46"/><line x1="-5" y1="54" x2="5" y2="52"/><line x1="-5" y1="60" x2="5" y2="58"/></g>
      <circle cx="0" cy="68" r="6.5" fill="url(#pommele)" stroke="#7a5a10" stroke-width="1.2"/>
    </g></g>
<g transform="translate(169.6 183.9) scale(0.560) rotate(-16)"><g>
      <path d="M0,-54 L7,-30 L6,34 L0,40 L-6,34 L-7,-30 Z" fill="url(#bladee)" stroke="#5b6b7a" stroke-width="1.4"/>
      <line x1="0" y1="-46" x2="0" y2="32" stroke="#ffffff" stroke-width="1.2" opacity="0.5"/>
      <rect x="-22" y="34" width="44" height="8" rx="3" fill="url(#guarde)" stroke="#7a5a10" stroke-width="1.2"/>
      <circle cx="-22" cy="38" r="5" fill="#eac84e" stroke="#7a5a10" stroke-width="1"/>
      <circle cx="22" cy="38" r="5" fill="#eac84e" stroke="#7a5a10" stroke-width="1"/>
      <rect x="-5" y="42" width="10" height="22" rx="3" fill="url(#gripe)" stroke="#3a2a14" stroke-width="1.2"/>
      <g stroke="#2a1d0e" stroke-width="1.1"><line x1="-5" y1="48" x2="5" y2="46"/><line x1="-5" y1="54" x2="5" y2="52"/><line x1="-5" y1="60" x2="5" y2="58"/></g>
      <circle cx="0" cy="68" r="6.5" fill="url(#pommele)" stroke="#7a5a10" stroke-width="1.2"/>
    </g></g>
<g transform="translate(80.4 278.3) scale(0.560) rotate(16)"><g>
      <path d="M0,-54 L7,-30 L6,34 L0,40 L-6,34 L-7,-30 Z" fill="url(#bladee)" stroke="#5b6b7a" stroke-width="1.4"/>
      <line x1="0" y1="-46" x2="0" y2="32" stroke="#ffffff" stroke-width="1.2" opacity="0.5"/>
      <rect x="-22" y="34" width="44" height="8" rx="3" fill="url(#guarde)" stroke="#7a5a10" stroke-width="1.2"/>
      <circle cx="-22" cy="38" r="5" fill="#eac84e" stroke="#7a5a10" stroke-width="1"/>
      <circle cx="22" cy="38" r="5" fill="#eac84e" stroke="#7a5a10" stroke-width="1"/>
      <rect x="-5" y="42" width="10" height="22" rx="3" fill="url(#gripe)" stroke="#3a2a14" stroke-width="1.2"/>
      <g stroke="#2a1d0e" stroke-width="1.1"><line x1="-5" y1="48" x2="5" y2="46"/><line x1="-5" y1="54" x2="5" y2="52"/><line x1="-5" y1="60" x2="5" y2="58"/></g>
      <circle cx="0" cy="68" r="6.5" fill="url(#pommele)" stroke="#7a5a10" stroke-width="1.2"/>
    </g></g>
<g transform="translate(169.6 278.3) scale(0.560) rotate(-16)"><g>
      <path d="M0,-54 L7,-30 L6,34 L0,40 L-6,34 L-7,-30 Z" fill="url(#bladee)" stroke="#5b6b7a" stroke-width="1.4"/>
      <line x1="0" y1="-46" x2="0" y2="32" stroke="#ffffff" stroke-width="1.2" opacity="0.5"/>
      <rect x="-22" y="34" width="44" height="8" rx="3" fill="url(#guarde)" stroke="#7a5a10" stroke-width="1.2"/>
      <circle cx="-22" cy="38" r="5" fill="#eac84e" stroke="#7a5a10" stroke-width="1"/>
      <circle cx="22" cy="38" r="5" fill="#eac84e" stroke="#7a5a10" stroke-width="1"/>
      <rect x="-5" y="42" width="10" height="22" rx="3" fill="url(#gripe)" stroke="#3a2a14" stroke-width="1.2"/>
      <g stroke="#2a1d0e" stroke-width="1.1"><line x1="-5" y1="48" x2="5" y2="46"/><line x1="-5" y1="54" x2="5" y2="52"/><line x1="-5" y1="60" x2="5" y2="58"/></g>
      <circle cx="0" cy="68" r="6.5" fill="url(#pommele)" stroke="#7a5a10" stroke-width="1.2"/>
    </g></g><g transform="translate(31 41)"><text x="0" y="0" font-family="Georgia,serif" font-weight="bold" font-size="31" fill="#2f5b9c" text-anchor="middle">7</text><g transform="translate(0 23)"><g transform="scale(0.21)"><g>
      <path d="M0,-54 L7,-30 L6,34 L0,40 L-6,34 L-7,-30 Z" fill="url(#bladeei)" stroke="#5b6b7a" stroke-width="1.4"/>
      <line x1="0" y1="-46" x2="0" y2="32" stroke="#ffffff" stroke-width="1.2" opacity="0.5"/>
      <rect x="-22" y="34" width="44" height="8" rx="3" fill="url(#guardei)" stroke="#7a5a10" stroke-width="1.2"/>
      <circle cx="-22" cy="38" r="5" fill="#eac84e" stroke="#7a5a10" stroke-width="1"/>
      <circle cx="22" cy="38" r="5" fill="#eac84e" stroke="#7a5a10" stroke-width="1"/>
      <rect x="-5" y="42" width="10" height="22" rx="3" fill="url(#gripei)" stroke="#3a2a14" stroke-width="1.2"/>
      <g stroke="#2a1d0e" stroke-width="1.1"><line x1="-5" y1="48" x2="5" y2="46"/><line x1="-5" y1="54" x2="5" y2="52"/><line x1="-5" y1="60" x2="5" y2="58"/></g>
      <circle cx="0" cy="68" r="6.5" fill="url(#pommelei)" stroke="#7a5a10" stroke-width="1.2"/>
    </g></g></g></g><g transform="translate(219 309) rotate(180)"><text x="0" y="0" font-family="Georgia,serif" font-weight="bold" font-size="31" fill="#2f5b9c" text-anchor="middle">7</text><g transform="translate(0 23)"><g transform="scale(0.21)"><g>
      <path d="M0,-54 L7,-30 L6,34 L0,40 L-6,34 L-7,-30 Z" fill="url(#bladeei)" stroke="#5b6b7a" stroke-width="1.4"/>
      <line x1="0" y1="-46" x2="0" y2="32" stroke="#ffffff" stroke-width="1.2" opacity="0.5"/>
      <rect x="-22" y="34" width="44" height="8" rx="3" fill="url(#guardei)" stroke="#7a5a10" stroke-width="1.2"/>
      <circle cx="-22" cy="38" r="5" fill="#eac84e" stroke="#7a5a10" stroke-width="1"/>
      <circle cx="22" cy="38" r="5" fill="#eac84e" stroke="#7a5a10" stroke-width="1"/>
      <rect x="-5" y="42" width="10" height="22" rx="3" fill="url(#gripei)" stroke="#3a2a14" stroke-width="1.2"/>
      <g stroke="#2a1d0e" stroke-width="1.1"><line x1="-5" y1="48" x2="5" y2="46"/><line x1="-5" y1="54" x2="5" y2="52"/><line x1="-5" y1="60" x2="5" y2="58"/></g>
      <circle cx="0" cy="68" r="6.5" fill="url(#pommelei)" stroke="#7a5a10" stroke-width="1.2"/>
    </g></g></g></g></svg>