<svg xmlns="http://www.w3.org/2000/svg" width="250" height="350" viewBox="0 0 250 350"><defs>
    <linearGradient id="parch" x1="0" y1="0" x2="0.3" y2="1"><stop offset="0%" stop-color="#fbf5e3"/><stop offset="100%" stop-color="#efe2c4"/></linearGradient>
    <radialGradient id="parchGlow" cx="50%" cy="42%" r="70%"><stop offset="0%" stop-color="#fffdf3" stop-opacity="0.6"/><stop offset="100%" stop-color="#fffdf3" stop-opacity="0"/></radialGradient>
    <radialGradient id="oroGrade" cx="40%" cy="35%" r="75%"><stop offset="0%" stop-color="#fdeaa0"/><stop offset="55%" stop-color="#e9c34e"/><stop offset="100%" stop-color="#c2941f"/></radialGradient>
    <radialGradient id="oroCoree" cx="40%" cy="35%" r="80%"><stop offset="0%" stop-color="#fdeaa0"/><stop offset="100%" stop-color="#d9ad33"/></radialGradient>
    <linearGradient id="copaBowle" x1="0" y1="0" x2="0" y2="1"><stop offset="0%" stop-color="#f0c45e"/><stop offset="100%" stop-color="#c2901f"/></linearGradient>
    <linearGradient id="copaSteme" x1="0" y1="0" x2="1" y2="0"><stop offset="0%" stop-color="#ecc25a"/><stop offset="100%" stop-color="#b8881c"/></linearGradient>
    <linearGradient id="copaFoote" x1="0" y1="0" x2="0" y2="1"><stop offset="0%" stop-color="#f0c45e"/><stop offset="100%" stop-color="#b8881c"/></linearGradient>
    <linearGradient id="bladee" x1="0" y1="0" x2="1" y2="0"><stop offset="0%" stop-color="#9fb2c4"/><stop offset="50%" stop-color="#e8eef4"/><stop offset="100%" stop-color="#7f93a6"/></linearGradient>
    <linearGradient id="guarde" x1="0" y1="0" x2="0" y2="1"><stop offset="0%" stop-color="#f0d36a"/><stop offset="100%" stop-color="#b8881c"/></linearGradient>
    <linearGradient id="gripe" x1="0" y1="0" x2="1" y2="0"><stop offset="0%" stop-color="#6a4a24"/><stop offset="100%" stop-color="#3a260f"/></linearGradient>
    <radialGradient id="pommele" cx="40%" cy="35%" r="75%"><stop offset="0%" stop-color="#f0d36a"/><stop offset="100%" stop-color="#b8881c"/></radialGradient>
    <linearGradient id="woode" x1="0" y1="0" x2="1" y2="0"><stop offset="0%" stop-color="#b98a4e"/><stop offset="45%" stop-color="#9c6b2f"/><stop offset="100%" stop-color="#6e4720"/></linearGradient>
    <radialGradient id="oroGradei" cx="40%" cy="35%" r="75%"><stop offset="0%" stop-color="#fdeaa0"/><stop offset="55%" stop-color="#e9c34e"/><stop offset="100%" stop-color="#c2941f"/></radialGradient>
    <radialGradient id="oroCoreei" cx="40%" cy="35%" r="80%"><stop offset="0%" stop-color="#fdeaa0"/><stop offset="100%" stop-color="#d9ad33"/></radialGradient>
    <linearGradient id="copaBowlei" x1="0" y1="0" x2="0" y2="1"><stop offset="0%" stop-color="#f0c45e"/><stop offset="100%" stop-color="#c2901f"/></linearGradient>
    <linearGradient id="copaStemei" x1="0" y1="0" x2="1" y2="0"><stop offset="0%" stop-color="#ecc25a"/><stop offset="100%" stop-color="#b8881c"/></linearGradient>
    <linearGradient id="copaFootei" x1="0" y1="0" x2="0" y2="1"><stop offset="0%" stop-color="#f0c45e"/><stop offset="100%" stop-color="#b8881c"/></linearGradient>
    <linearGradient id="bladeei" x1="0" y1="0" x2="1" y2="0"><stop offset="0%" stop-color="#9fb2c4"/><stop offset="50%" stop-color="#e8eef4"/><stop offset="100%" stop-color="#7f93a6"/></linearGradient>
    <linearGradient id="guardei" x1="0" y1="0" x2="0" y2="1"><stop offset="0%" stop-color="#f0d36a"/><stop offset="100%" stop-color="#b8881c"/></linearGradient>
    <linearGradient id="gripei" x1="0" y1="0" x2="1" y2="0"><stop offset="0%" stop-color="#6a4a24"/><stop offset="100%" stop-color="#3a260f"/></linearGradient>
    <radialGradient id="pommelei" cx="40%" cy="35%" r="75%"><stop offset="0%" stop-color="#f0d36a"/><stop offset="100%" stop-color="#b8881c"/></radialGradient>
    <linearGradient id="woodei" x1="0" y1="0" x2="1" y2="0"><stop offset="0%" stop-color="#b98a4e"/><stop offset="45%" stop-color="#9c6b2f"/><stop offset="100%" stop-color="#6e4720"/></linearGradient>
    <radialGradient id="oroGradeh" cx="40%" cy="35%" r="75%"><stop offset="0%" stop-color="#fdeaa0"/><stop offset="55%" stop-color="#e9c34e"/><stop offset="100%" stop-color="#c2941f"/></radialGradient>
    <radialGradient id="oroCoreeh" cx="40%" cy="35%" r="80%"><stop offset="0%" stop-color="#fdeaa0"/><stop offset="100%" stop-color="#d9ad33"/></radialGradient>
    <linearGradient id="copaBowleh" x1="0" y1="0" x2="0" y2="1"><stop offset="0%" stop-color="#f0c45e"/><stop offset="100%" stop-color="#c2901f"/></linearGradient>
    <linearGradient id="copaStemeh" x1="0" y1="0" x2="1" y2="0"><stop offset="0%" stop-color="#ecc25a"/><stop offset="100%" stop-color="#b8881c"/></linearGradient>
    <linearGradient id="copaFooteh" x1="0" y1="0" x2="0" y2="1"><stop offset="0%" stop-color="#f0c45e"/><stop offset="100%" stop-color="#b8881c"/></linearGradient>
    <linearGradient id="bladeeh" x1="0" y1="0" x2="1" y2="0"><stop offset="0%" stop-color="#9fb2c4"/><stop offset="50%" stop-color="#e8eef4"/><stop offset="100%" stop-color="#7f93a6"/></linearGradient>
    <linearGradient id="guardeh" x1="0" y1="0" x2="0" y2="1"><stop offset="0%" stop-color="#f0d36a"/><stop offset="100%" stop-color="#b8881c"/></linearGradient>
    <linearGradient id="gripeh" x1="0" y1="0" x2="1" y2="0"><stop offset="0%" stop-color="#6a4a24"/><stop offset="100%" stop-color="#3a260f"/></linearGradient>
    <radialGradient id="pommeleh" cx="40%" cy="35%" r="75%"><stop offset="0%" stop-color="#f0d36a"/><stop offset="100%" stop-color="#b8881c"/></radialGradient>
    <linearGradient id="woodeh" x1="0" y1="0" x2="1" y2="0"><stop offset="0%" stop-color="#b98a4e"/><stop offset="45%" stop-color="#9c6b2f"/><stop offset="100%" stop-color="#6e4720"/></linearGradient></defs>
    <rect x="2.5" y="2.5" width="245" height="345" rx="17" fill="url(#parch)" stroke="#cbb98a" stroke-width="2"/>
    <rect x="2.5" y="2.5" width="245" height="345" rx="17" fill="url(#parchGlow)"/>
    <rect x="11" y="11" width="228" height="328" rx="12" fill="none" stroke="#2f5b9c" stroke-width="2.6"/>
    <rect x="16" y="16" width="218" height="318" rx="8.5" fill="none" stroke="#2f5b9c" stroke-width="1" opacity="0.5"/>
    <path transform="translate(118.5 19) rotate(45)" d="M-2.6,-2.6 h5.2 v5.2 h-5.2 Z" fill="#2f5b9c"/><path transform="translate(118.5 331) rotate(45)" d="M-2.6,-2.6 h5.2 v5.2 h-5.2 Z" fill="#2f5b9c"/><path transform="translate(131.5 19) rotate(45)" d="M-2.6,-2.6 h5.2 v5.2 h-5.2 Z" fill="#2f5b9c"/><path transform="translate(131.5 331) rotate(45)" d="M-2.6,-2.6 h5.2 v5.2 h-5.2 Z" fill="#2f5b9c"/>
    <ellipse cx="124" cy="298" rx="84" ry="7" fill="#000" opacity="0.10"/>
    <!-- horse body -->
    <path d="M58,236 Q56,196 96,186 Q150,178 176,196 Q196,210 192,250 L178,250 Q180,220 168,212
             Q120,198 92,210 Q74,220 74,248 Z" fill="#efe7d4" stroke="#2b2117" stroke-width="1.8"/>
    <!-- legs -->
    <g fill="#efe7d4" stroke="#2b2117" stroke-width="1.5">
      <path d="M80,244 L76,292 L86,292 L90,246 Z"/><path d="M104,248 L100,292 L110,292 L114,250 Z"/>
      <path d="M156,248 L160,292 L170,292 L164,250 Z"/><path d="M176,244 L184,290 L194,290 L186,246 Z"/>
    </g>
    <g fill="#2b2117"><rect x="74" y="289" width="14" height="5" rx="1.5"/><rect x="99" y="289" width="14" height="5" rx="1.5"/>
       <rect x="158" y="289" width="14" height="5" rx="1.5"/><rect x="183" y="289" width="14" height="5" rx="1.5"/></g>
    <!-- neck + head -->
    <path d="M58,236 Q40,214 36,188 Q34,174 44,172 Q54,190 76,206 Q84,214 80,232 Z" fill="#efe7d4" stroke="#2b2117" stroke-width="1.8"/>
    <path d="M44,174 Q30,170 24,182 Q20,192 28,196 Q38,198 46,190 Q52,182 52,174 Z" fill="#efe7d4" stroke="#2b2117" stroke-width="1.6"/>
    <path d="M24,182 Q17,187 19,194 L28,193 Q27,186 32,183 Z" fill="#cdc2a6" stroke="#2b2117" stroke-width="1.1"/>
    <path d="M46,166 L42,154 L54,164 Z" fill="#efe7d4" stroke="#2b2117" stroke-width="1.2"/>
    <path d="M55,166 L53,153 L65,166 Z" fill="#efe7d4" stroke="#2b2117" stroke-width="1.2"/>
    <circle cx="40" cy="184" r="2.2" fill="#2b2117"/>
    <!-- mane + tail -->
    <path d="M52,166 Q66,176 74,202 Q66,196 58,202 Q56,182 46,170 Z" fill="#2b2117" opacity="0.85"/>
    <path d="M190,206 Q210,214 208,256 Q200,236 192,240 Q196,222 184,212 Z" fill="#2b2117" opacity="0.85"/>
    <!-- saddle blanket -->
    <path d="M88,206 Q124,220 162,206 L168,224 Q124,238 84,224 Z" fill="#2f5b9c" stroke="#2b2117" stroke-width="1.5"/>
    <path d="M86,214 L166,214" stroke="#e3b53a" stroke-width="2"/>
    <!-- reins -->
    <path d="M46,178 Q90,156 116,176" fill="none" stroke="#2b2117" stroke-width="1.8"/>
    <!-- rider held emblem -->
    <g transform="translate(178 120) scale(0.5) rotate(6)"><g>
      <path d="M0,-54 L7,-30 L6,34 L0,40 L-6,34 L-7,-30 Z" fill="url(#bladeeh)" stroke="#5b6b7a" stroke-width="1.4"/>
      <line x1="0" y1="-46" x2="0" y2="32" stroke="#ffffff" stroke-width="1.2" opacity="0.5"/>
      <rect x="-22" y="34" width="44" height="8" rx="3" fill="url(#guardeh)" stroke="#7a5a10" stroke-width="1.2"/>
      <circle cx="-22" cy="38" r="5" fill="#eac84e" stroke="#7a5a10" stroke-width="1"/>
      <circle cx="22" cy="38" r="5" fill="#eac84e" stroke="#7a5a10" stroke-width="1"/>
      <rect x="-5" y="42" width="10" height="22" rx="3" fill="url(#gripeh)" stroke="#3a2a14" stroke-width="1.2"/>
      <g stroke="#2a1d0e" stroke-width="1.1"><line x1="-5" y1="48" x2="5" y2="46"/><line x1="-5" y1="54" x2="5" y2="52"/><line x1="-5" y1="60" x2="5" y2="58"/></g>
      <circle cx="0" cy="68" r="6.5" fill="url(#pommeleh)" stroke="#7a5a10" stroke-width="1.2"/>
    </g></g>
    <!-- rider torso -->
    <path d="M104,200 Q98,172 110,158 L132,158 Q146,172 140,202 Q122,212 104,200 Z" fill="#2f5b9c" stroke="#2b2117" stroke-width="1.8"/>
    <g stroke="#2b2117" stroke-width="0.9" opacity="0.4" fill="none"><path d="M122,162 L120,200"/></g>
    <rect x="103" y="194" width="38" height="8" rx="2" fill="#e3b53a" stroke="#2b2117" stroke-width="1.2"/>
    <!-- raised arm to emblem -->
    <path d="M134,176 Q156,150 172,132 L164,124 Q146,142 122,168 Z" fill="#2f5b9c" stroke="#2b2117" stroke-width="1.6"/>
    <ellipse cx="170" cy="130" rx="7.5" ry="8.5" fill="#e8b88a" stroke="#2b2117" stroke-width="1.3"/>
    <!-- leg over horse -->
    <path d="M106,196 Q96,214 96,236 L108,236 Q108,214 118,202 Z" fill="#2f5b9c" stroke="#2b2117" stroke-width="1.6"/>
    <path d="M104,232 L98,246 L112,246 L114,234 Z" fill="#6a4a24" stroke="#2b2117" stroke-width="1.3"/>
    <rect x="116" y="146" width="16" height="16" rx="3" fill="#e8b88a" stroke="#2b2117" stroke-width="1.3"/>
    <path d="M98,120 Q94,146 109,158 Q102,140 103,120 Z" fill="#2b2117"/><path d="M150,120 Q154,146 139,158 Q146,140 145,120 Z" fill="#2b2117"/><ellipse cx="124" cy="124" rx="22" ry="25" fill="#e8b88a" stroke="#2b2117" stroke-width="1.7"/><ellipse cx="103" cy="126" rx="3.4" ry="5" fill="#e8b88a" stroke="#2b2117" stroke-width="1.1"/><ellipse cx="145" cy="126" rx="3.4" ry="5" fill="#e8b88a" stroke="#2b2117" stroke-width="1.1"/><path d="M108,116 Q115,112 121,116" fill="none" stroke="#2b2117" stroke-width="1.6"/><path d="M127,116 Q133,112 140,116" fill="none" stroke="#2b2117" stroke-width="1.6"/><path d="M108,122 Q114,118 120,122 Q114,126 108,122 Z" fill="#fff" stroke="#2b2117" stroke-width="1.1"/><circle cx="114" cy="122" r="2.1" fill="#2b2117"/><path d="M128,122 Q134,118 140,122 Q134,126 128,122 Z" fill="#fff" stroke="#2b2117" stroke-width="1.1"/><circle cx="134" cy="122" r="2.1" fill="#2b2117"/><path d="M124,122 L121,134 Q124,137 127,134" fill="none" stroke="#2b2117" stroke-width="1.4"/><ellipse cx="110" cy="132" rx="3.6" ry="2.4" fill="#b0271c" opacity="0.22"/><ellipse cx="138" cy="132" rx="3.6" ry="2.4" fill="#b0271c" opacity="0.22"/><path d="M117,139 Q124,142 131,139" fill="none" stroke="#9a3b2a" stroke-width="1.6"/>
    <path d="M98,130 Q96,100 124,98 Q152,100 150,130 Q124,118 98,130 Z" fill="#2f5b9c" stroke="#2b2117" stroke-width="1.7"/><rect x="97" y="126" width="54" height="9" rx="3" fill="#6384b4" stroke="#2b2117" stroke-width="1.3"/><path d="M146,118 Q172,102 178,78 Q164,108 148,112 Z" fill="#e3b53a" stroke="#2b2117" stroke-width="1.2"/><g transform="translate(31 41)"><text x="0" y="0" font-family="Georgia,serif" font-weight="bold" font-size="31" fill="#2f5b9c" text-anchor="middle">11</text><g transform="translate(0 23)"><g transform="scale(0.21)"><g>
      <path d="M0,-54 L7,-30 L6,34 L0,40 L-6,34 L-7,-30 Z" fill="url(#bladeei)" stroke="#5b6b7a" stroke-width="1.4"/>
      <line x1="0" y1="-46" x2="0" y2="32" stroke="#ffffff" stroke-width="1.2" opacity="0.5"/>
      <rect x="-22" y="34" width="44" height="8" rx="3" fill="url(#guardei)" stroke="#7a5a10" stroke-width="1.2"/>
      <circle cx="-22" cy="38" r="5" fill="#eac84e" stroke="#7a5a10" stroke-width="1"/>
      <circle cx="22" cy="38" r="5" fill="#eac84e" stroke="#7a5a10" stroke-width="1"/>
      <rect x="-5" y="42" width="10" height="22" rx="3" fill="url(#gripei)" stroke="#3a2a14" stroke-width="1.2"/>
      <g stroke="#2a1d0e" stroke-width="1.1"><line x1="-5" y1="48" x2="5" y2="46"/><line x1="-5" y1="54" x2="5" y2="52"/><line x1="-5" y1="60" x2="5" y2="58"/></g>
      <circle cx="0" cy="68" r="6.5" fill="url(#pommelei)" stroke="#7a5a10" stroke-width="1.2"/>
    </g></g></g></g><g transform="translate(219 309) rotate(180)"><text x="0" y="0" font-family="Georgia,serif" font-weight="bold" font-size="31" fill="#2f5b9c" text-anchor="middle">11</text><g transform="translate(0 23)"><g transform="scale(0.21)"><g>
      <path d="M0,-54 L7,-30 L6,34 L0,40 L-6,34 L-7,-30 Z" fill="url(#bladeei)" stroke="#5b6b7a" stroke-width="1.4"/>
      <line x1="0" y1="-46" x2="0" y2="32" stroke="#ffffff" stroke-width="1.2" opacity="0.5"/>
      <rect x="-22" y="34" width="44" height="8" rx="3" fill="url(#guardei)" stroke="#7a5a10" stroke-width="1.2"/>
      <circle cx="-22" cy="38" r="5" fill="#eac84e" stroke="#7a5a10" stroke-width="1"/>
      <circle cx="22" cy="38" r="5" fill="#eac84e" stroke="#7a5a10" stroke-width="1"/>
      <rect x="-5" y="42" width="10" height="22" rx="3" fill="url(#gripei)" stroke="#3a2a14" stroke-width="1.2"/>
      <g stroke="#2a1d0e" stroke-width="1.1"><line x1="-5" y1="48" x2="5" y2="46"/><line x1="-5" y1="54" x2="5" y2="52"/><line x1="-5" y1="60" x2="5" y2="58"/></g>
      <circle cx="0" cy="68" r="6.5" fill="url(#pommelei)" stroke="#7a5a10" stroke-width="1.2"/>
    </g></g></g></g></svg>