<svg xmlns="http://www.w3.org/2000/svg" width="250" height="350" viewBox="0 0 250 350"><defs>
    <radialGradient id="oroGradc" cx="40%" cy="35%" r="75%"><stop offset="0%" stop-color="#fdeaa0"/><stop offset="55%" stop-color="#e9c34e"/><stop offset="100%" stop-color="#c2941f"/></radialGradient>
    <radialGradient id="oroCorec" cx="40%" cy="35%" r="80%"><stop offset="0%" stop-color="#fdeaa0"/><stop offset="100%" stop-color="#d9ad33"/></radialGradient>
    <linearGradient id="copaBowlc" x1="0" y1="0" x2="0" y2="1"><stop offset="0%" stop-color="#f0c45e"/><stop offset="100%" stop-color="#c2901f"/></linearGradient>
    <linearGradient id="copaStemc" x1="0" y1="0" x2="1" y2="0"><stop offset="0%" stop-color="#ecc25a"/><stop offset="100%" stop-color="#b8881c"/></linearGradient>
    <linearGradient id="copaFootc" x1="0" y1="0" x2="0" y2="1"><stop offset="0%" stop-color="#f0c45e"/><stop offset="100%" stop-color="#b8881c"/></linearGradient>
    <linearGradient id="bladec" x1="0" y1="0" x2="1" y2="0"><stop offset="0%" stop-color="#9fb2c4"/><stop offset="50%" stop-color="#e8eef4"/><stop offset="100%" stop-color="#7f93a6"/></linearGradient>
    <linearGradient id="guardc" x1="0" y1="0" x2="0" y2="1"><stop offset="0%" stop-color="#f0d36a"/><stop offset="100%" stop-color="#b8881c"/></linearGradient>
    <linearGradient id="gripc" x1="0" y1="0" x2="1" y2="0"><stop offset="0%" stop-color="#6a4a24"/><stop offset="100%" stop-color="#3a260f"/></linearGradient>
    <radialGradient id="pommelc" cx="40%" cy="35%" r="75%"><stop offset="0%" stop-color="#f0d36a"/><stop offset="100%" stop-color="#b8881c"/></radialGradient>
    <linearGradient id="woodc" x1="0" y1="0" x2="1" y2="0"><stop offset="0%" stop-color="#b98a4e"/><stop offset="45%" stop-color="#9c6b2f"/><stop offset="100%" stop-color="#6e4720"/></linearGradient>
    <linearGradient id="parchc" x1="0" y1="0" x2="0" y2="1"><stop offset="0%" stop-color="#fbf5e3"/><stop offset="100%" stop-color="#efe2c4"/></linearGradient>
    <radialGradient id="oroGradci" cx="40%" cy="35%" r="75%"><stop offset="0%" stop-color="#fdeaa0"/><stop offset="55%" stop-color="#e9c34e"/><stop offset="100%" stop-color="#c2941f"/></radialGradient>
    <radialGradient id="oroCoreci" cx="40%" cy="35%" r="80%"><stop offset="0%" stop-color="#fdeaa0"/><stop offset="100%" stop-color="#d9ad33"/></radialGradient>
    <linearGradient id="copaBowlci" x1="0" y1="0" x2="0" y2="1"><stop offset="0%" stop-color="#f0c45e"/><stop offset="100%" stop-color="#c2901f"/></linearGradient>
    <linearGradient id="copaStemci" x1="0" y1="0" x2="1" y2="0"><stop offset="0%" stop-color="#ecc25a"/><stop offset="100%" stop-color="#b8881c"/></linearGradient>
    <linearGradient id="copaFootci" x1="0" y1="0" x2="0" y2="1"><stop offset="0%" stop-color="#f0c45e"/><stop offset="100%" stop-color="#b8881c"/></linearGradient>
    <linearGradient id="bladeci" x1="0" y1="0" x2="1" y2="0"><stop offset="0%" stop-color="#9fb2c4"/><stop offset="50%" stop-color="#e8eef4"/><stop offset="100%" stop-color="#7f93a6"/></linearGradient>
    <linearGradient id="guardci" x1="0" y1="0" x2="0" y2="1"><stop offset="0%" stop-color="#f0d36a"/><stop offset="100%" stop-color="#b8881c"/></linearGradient>
    <linearGradient id="gripci" x1="0" y1="0" x2="1" y2="0"><stop offset="0%" stop-color="#6a4a24"/><stop offset="100%" stop-color="#3a260f"/></linearGradient>
    <radialGradient id="pommelci" cx="40%" cy="35%" r="75%"><stop offset="0%" stop-color="#f0d36a"/><stop offset="100%" stop-color="#b8881c"/></radialGradient>
    <linearGradient id="woodci" x1="0" y1="0" x2="1" y2="0"><stop offset="0%" stop-color="#b98a4e"/><stop offset="45%" stop-color="#9c6b2f"/><stop offset="100%" stop-color="#6e4720"/></linearGradient>
    <linearGradient id="parchci" x1="0" y1="0" x2="0" y2="1"><stop offset="0%" stop-color="#fbf5e3"/><stop offset="100%" stop-color="#efe2c4"/></linearGradient>
    <radialGradient id="oroGradch" cx="40%" cy="35%" r="75%"><stop offset="0%" stop-color="#fdeaa0"/><stop offset="55%" stop-color="#e9c34e"/><stop offset="100%" stop-color="#c2941f"/></radialGradient>
    <radialGradient id="oroCorech" cx="40%" cy="35%" r="80%"><stop offset="0%" stop-color="#fdeaa0"/><stop offset="100%" stop-color="#d9ad33"/></radialGradient>
    <linearGradient id="copaBowlch" x1="0" y1="0" x2="0" y2="1"><stop offset="0%" stop-color="#f0c45e"/><stop offset="100%" stop-color="#c2901f"/></linearGradient>
    <linearGradient id="copaStemch" x1="0" y1="0" x2="1" y2="0"><stop offset="0%" stop-color="#ecc25a"/><stop offset="100%" stop-color="#b8881c"/></linearGradient>
    <linearGradient id="copaFootch" x1="0" y1="0" x2="0" y2="1"><stop offset="0%" stop-color="#f0c45e"/><stop offset="100%" stop-color="#b8881c"/></linearGradient>
    <linearGradient id="bladech" x1="0" y1="0" x2="1" y2="0"><stop offset="0%" stop-color="#9fb2c4"/><stop offset="50%" stop-color="#e8eef4"/><stop offset="100%" stop-color="#7f93a6"/></linearGradient>
    <linearGradient id="guardch" x1="0" y1="0" x2="0" y2="1"><stop offset="0%" stop-color="#f0d36a"/><stop offset="100%" stop-color="#b8881c"/></linearGradient>
    <linearGradient id="gripch" x1="0" y1="0" x2="1" y2="0"><stop offset="0%" stop-color="#6a4a24"/><stop offset="100%" stop-color="#3a260f"/></linearGradient>
    <radialGradient id="pommelch" cx="40%" cy="35%" r="75%"><stop offset="0%" stop-color="#f0d36a"/><stop offset="100%" stop-color="#b8881c"/></radialGradient>
    <linearGradient id="woodch" x1="0" y1="0" x2="1" y2="0"><stop offset="0%" stop-color="#b98a4e"/><stop offset="45%" stop-color="#9c6b2f"/><stop offset="100%" stop-color="#6e4720"/></linearGradient>
    <linearGradient id="parchch" x1="0" y1="0" x2="0" y2="1"><stop offset="0%" stop-color="#fbf5e3"/><stop offset="100%" stop-color="#efe2c4"/></linearGradient>
    <linearGradient id="robec" x1="0" y1="0" x2="0" y2="1"><stop offset="0%" stop-color="#b0271c"/><stop offset="100%" stop-color="#7b1b13"/></linearGradient>
    <linearGradient id="crownc" x1="0" y1="0" x2="0" y2="1"><stop offset="0%" stop-color="#f4dd77"/><stop offset="100%" stop-color="#c79a2e"/></linearGradient>
    <linearGradient id="capc" x1="0" y1="0" x2="0" y2="1"><stop offset="0%" stop-color="#cf7d76"/><stop offset="100%" stop-color="#b0271c"/></linearGradient>
    <linearGradient id="horsec" x1="0" y1="0" x2="0" y2="1"><stop offset="0%" stop-color="#efe9dc"/><stop offset="100%" stop-color="#c9c1b0"/></linearGradient></defs>
    <rect x="3" y="3" width="244" height="344" rx="16" fill="url(#parchc)" stroke="#cdbb8e" stroke-width="2"/>
    <rect x="12" y="12" width="226" height="326" rx="11" fill="none" stroke="#b0271c" stroke-width="2.4" opacity="0.9"/>
    <rect x="17" y="17" width="216" height="316" rx="8" fill="none" stroke="#b0271c" stroke-width="1" opacity="0.5"/>
    <g fill="#b0271c">
      <circle cx="12" cy="12" r="3.2"/><circle cx="238" cy="12" r="3.2"/>
      <circle cx="12" cy="338" r="3.2"/><circle cx="238" cy="338" r="3.2"/>
    </g>
    <ellipse cx="120" cy="290" rx="78" ry="8" fill="#000000" opacity="0.12"/>
    <path d="M176,196 Q200,210 196,250 Q188,232 182,236 Q188,256 178,268 Q176,236 168,214 Z" fill="#5a4631"/>
    <path d="M150,236 L156,286 L148,286 L144,238 Z" fill="#b8b0a0" stroke="#00000022" stroke-width="1"/>
    <path d="M92,238 L88,286 L96,286 L100,238 Z" fill="#b8b0a0" stroke="#00000022" stroke-width="1"/>
    <ellipse cx="118" cy="216" rx="60" ry="27" fill="url(#horsec)" stroke="#9a9486" stroke-width="1.4"/>
    <path d="M70,210 Q52,196 46,176 Q44,166 52,164 Q60,178 78,192 Q86,200 84,214 Z" fill="url(#horsec)" stroke="#9a9486" stroke-width="1.4"/>
    <path d="M52,168 Q40,166 34,176 Q30,184 36,188 Q44,190 50,184 Q56,178 56,170 Z" fill="url(#horsec)" stroke="#9a9486" stroke-width="1.4"/>
    <path d="M34,176 Q28,180 30,186 L37,186 Q36,180 40,178 Z" fill="#b8b0a0"/>
    <path d="M54,160 L50,150 L60,158 Z" fill="url(#horsec)" stroke="#9a9486" stroke-width="1"/>
    <path d="M62,160 L60,149 L70,160 Z" fill="url(#horsec)" stroke="#9a9486" stroke-width="1"/>
    <circle cx="48" cy="174" r="2.2" fill="#2a221a"/>
    <path d="M58,158 Q70,166 76,188 Q70,184 64,190 Q60,176 52,166 Z" fill="#5a4631"/>
    <path d="M104,238 L100,287 L110,287 L112,240 Z" fill="url(#horsec)" stroke="#9a9486" stroke-width="1.2"/>
    <path d="M158,236 L164,287 L174,287 L168,238 Z" fill="url(#horsec)" stroke="#9a9486" stroke-width="1.2"/>
    <g fill="#2f2417"><rect x="99" y="284" width="13" height="6" rx="2"/><rect x="162" y="284" width="14" height="6" rx="2"/>
       <rect x="86" y="283" width="12" height="6" rx="2"/><rect x="145" y="283" width="12" height="6" rx="2"/></g>
    <path d="M92,198 Q120,210 150,198 L154,214 Q120,226 88,214 Z" fill="url(#robec)" stroke="#00000033" stroke-width="1"/>
    <rect x="86" y="206" width="70" height="5" fill="#e9c34e" opacity="0.8"/>
    <path d="M52,176 Q90,150 112,168" fill="none" stroke="#3a2a18" stroke-width="2"/>
    <g transform="translate(178 132) scale(0.46)"><g>
      <ellipse cx="0" cy="50" rx="24" ry="6" fill="#7a4a12" opacity="0.30"/>
      <path d="M-30,-34 Q-30,8 0,16 Q30,8 30,-34 Z" fill="url(#copaBowlch)" stroke="#8a3b22" stroke-width="2"/>
      <path d="M-30,-34 Q0,-22 30,-34 L30,-25 Q0,-13 -30,-25 Z" fill="#b0271c" stroke="#8a3b22" stroke-width="1.4"/>
      <ellipse cx="0" cy="-34" rx="30" ry="8" fill="#ecc25a" stroke="#8a6414" stroke-width="1.5"/>
      <circle cx="0" cy="-44" r="5" fill="#ecc25a" stroke="#8a6414" stroke-width="1.2"/>
      <rect x="-4.5" y="16" width="9" height="20" fill="url(#copaStemch)" stroke="#8a6414" stroke-width="1"/>
      <ellipse cx="0" cy="22" rx="9" ry="4.5" fill="#ecc25a" stroke="#8a6414" stroke-width="1.1"/>
      <path d="M-24,46 Q0,34 24,46 Q0,40 -24,46 Z M-24,46 Q0,52 24,46" fill="url(#copaFootch)" stroke="#8a6414" stroke-width="1.5"/>
    </g></g>
    <path d="M122,176 Q150,150 168,134 L160,126 Q142,142 116,166 Z" fill="url(#robec)" stroke="#00000022" stroke-width="1"/>
    <ellipse cx="166" cy="132" rx="7" ry="8" fill="#f0c9a0" stroke="#d9a878" stroke-width="1"/>
    <path d="M104,196 Q100,172 110,160 L130,160 Q140,172 136,196 Q120,204 104,196 Z" fill="url(#robec)" stroke="#00000033" stroke-width="1.3"/>
    <rect x="104" y="190" width="34" height="7" rx="2" fill="#7a5a2a"/>
    <path d="M108,168 Q96,176 100,190 L110,186 Q108,176 116,170 Z" fill="url(#robec)" stroke="#00000022" stroke-width="1"/>
    <ellipse cx="103" cy="188" rx="6" ry="7" fill="#f0c9a0" stroke="#d9a878" stroke-width="1"/>
    <path d="M108,160 Q120,152 132,160 Q120,168 108,160 Z" fill="#fbf7ee" stroke="#cbb78a" stroke-width="1"/>
    <rect x="114" y="145" width="12" height="12" fill="#f0c9a0"/>
    <ellipse cx="120" cy="130" rx="15" ry="17" fill="#f0c9a0" stroke="#d9a878" stroke-width="1"/>
    <path d="M106,128 Q105,144 114,150 Q110,138 110,128 Z" fill="#6e4a26"/>
    <g fill="#5a4631"><ellipse cx="115" cy="129" rx="1.7" ry="2.1"/><ellipse cx="126" cy="129" rx="1.7" ry="2.1"/></g>
    <path d="M116,146 Q120,148 124,146" fill="none" stroke="#a8694a" stroke-width="1.3"/>
    <ellipse cx="110" cy="138" rx="2.6" ry="1.8" fill="#e7a07e" opacity="0.5"/>
    <path d="M104,120 Q106,104 120,104 Q135,104 137,118 Q120,112 104,120 Z" fill="url(#capc)" stroke="#00000033" stroke-width="1.1"/>
    <rect x="105" y="116" width="32" height="5" rx="2" fill="#7a5a2a"/>
    <path d="M134,112 Q152,104 156,88 Q146,98 136,106 Z" fill="#e9c34e" stroke="#9a7415" stroke-width="1"/><g transform="translate(30 40)"><text x="0" y="0" font-family="Georgia,serif" font-weight="bold" font-size="30" fill="#b0271c" text-anchor="middle">11</text><g transform="translate(0 22)"><g transform="scale(0.22)"><g>
      <ellipse cx="0" cy="50" rx="24" ry="6" fill="#7a4a12" opacity="0.30"/>
      <path d="M-30,-34 Q-30,8 0,16 Q30,8 30,-34 Z" fill="url(#copaBowlci)" stroke="#8a3b22" stroke-width="2"/>
      <path d="M-30,-34 Q0,-22 30,-34 L30,-25 Q0,-13 -30,-25 Z" fill="#b0271c" stroke="#8a3b22" stroke-width="1.4"/>
      <ellipse cx="0" cy="-34" rx="30" ry="8" fill="#ecc25a" stroke="#8a6414" stroke-width="1.5"/>
      <circle cx="0" cy="-44" r="5" fill="#ecc25a" stroke="#8a6414" stroke-width="1.2"/>
      <rect x="-4.5" y="16" width="9" height="20" fill="url(#copaStemci)" stroke="#8a6414" stroke-width="1"/>
      <ellipse cx="0" cy="22" rx="9" ry="4.5" fill="#ecc25a" stroke="#8a6414" stroke-width="1.1"/>
      <path d="M-24,46 Q0,34 24,46 Q0,40 -24,46 Z M-24,46 Q0,52 24,46" fill="url(#copaFootci)" stroke="#8a6414" stroke-width="1.5"/>
    </g></g></g></g><g transform="translate(220 310) rotate(180)"><text x="0" y="0" font-family="Georgia,serif" font-weight="bold" font-size="30" fill="#b0271c" text-anchor="middle">11</text><g transform="translate(0 22)"><g transform="scale(0.22)"><g>
      <ellipse cx="0" cy="50" rx="24" ry="6" fill="#7a4a12" opacity="0.30"/>
      <path d="M-30,-34 Q-30,8 0,16 Q30,8 30,-34 Z" fill="url(#copaBowlci)" stroke="#8a3b22" stroke-width="2"/>
      <path d="M-30,-34 Q0,-22 30,-34 L30,-25 Q0,-13 -30,-25 Z" fill="#b0271c" stroke="#8a3b22" stroke-width="1.4"/>
      <ellipse cx="0" cy="-34" rx="30" ry="8" fill="#ecc25a" stroke="#8a6414" stroke-width="1.5"/>
      <circle cx="0" cy="-44" r="5" fill="#ecc25a" stroke="#8a6414" stroke-width="1.2"/>
      <rect x="-4.5" y="16" width="9" height="20" fill="url(#copaStemci)" stroke="#8a6414" stroke-width="1"/>
      <ellipse cx="0" cy="22" rx="9" ry="4.5" fill="#ecc25a" stroke="#8a6414" stroke-width="1.1"/>
      <path d="M-24,46 Q0,34 24,46 Q0,40 -24,46 Z M-24,46 Q0,52 24,46" fill="url(#copaFootci)" stroke="#8a6414" stroke-width="1.5"/>
    </g></g></g></g></svg>