<svg xmlns="http://www.w3.org/2000/svg" width="250" height="350" viewBox="0 0 250 350"><defs>
    <radialGradient id="oroGrado" cx="40%" cy="35%" r="75%"><stop offset="0%" stop-color="#fdeaa0"/><stop offset="55%" stop-color="#e9c34e"/><stop offset="100%" stop-color="#c2941f"/></radialGradient>
    <radialGradient id="oroCoreo" cx="40%" cy="35%" r="80%"><stop offset="0%" stop-color="#fdeaa0"/><stop offset="100%" stop-color="#d9ad33"/></radialGradient>
    <linearGradient id="copaBowlo" x1="0" y1="0" x2="0" y2="1"><stop offset="0%" stop-color="#f0c45e"/><stop offset="100%" stop-color="#c2901f"/></linearGradient>
    <linearGradient id="copaStemo" x1="0" y1="0" x2="1" y2="0"><stop offset="0%" stop-color="#ecc25a"/><stop offset="100%" stop-color="#b8881c"/></linearGradient>
    <linearGradient id="copaFooto" x1="0" y1="0" x2="0" y2="1"><stop offset="0%" stop-color="#f0c45e"/><stop offset="100%" stop-color="#b8881c"/></linearGradient>
    <linearGradient id="bladeo" x1="0" y1="0" x2="1" y2="0"><stop offset="0%" stop-color="#9fb2c4"/><stop offset="50%" stop-color="#e8eef4"/><stop offset="100%" stop-color="#7f93a6"/></linearGradient>
    <linearGradient id="guardo" x1="0" y1="0" x2="0" y2="1"><stop offset="0%" stop-color="#f0d36a"/><stop offset="100%" stop-color="#b8881c"/></linearGradient>
    <linearGradient id="gripo" x1="0" y1="0" x2="1" y2="0"><stop offset="0%" stop-color="#6a4a24"/><stop offset="100%" stop-color="#3a260f"/></linearGradient>
    <radialGradient id="pommelo" cx="40%" cy="35%" r="75%"><stop offset="0%" stop-color="#f0d36a"/><stop offset="100%" stop-color="#b8881c"/></radialGradient>
    <linearGradient id="woodo" x1="0" y1="0" x2="1" y2="0"><stop offset="0%" stop-color="#b98a4e"/><stop offset="45%" stop-color="#9c6b2f"/><stop offset="100%" stop-color="#6e4720"/></linearGradient>
    <linearGradient id="parcho" x1="0" y1="0" x2="0" y2="1"><stop offset="0%" stop-color="#fbf5e3"/><stop offset="100%" stop-color="#efe2c4"/></linearGradient>
    <radialGradient id="oroGradoi" cx="40%" cy="35%" r="75%"><stop offset="0%" stop-color="#fdeaa0"/><stop offset="55%" stop-color="#e9c34e"/><stop offset="100%" stop-color="#c2941f"/></radialGradient>
    <radialGradient id="oroCoreoi" cx="40%" cy="35%" r="80%"><stop offset="0%" stop-color="#fdeaa0"/><stop offset="100%" stop-color="#d9ad33"/></radialGradient>
    <linearGradient id="copaBowloi" x1="0" y1="0" x2="0" y2="1"><stop offset="0%" stop-color="#f0c45e"/><stop offset="100%" stop-color="#c2901f"/></linearGradient>
    <linearGradient id="copaStemoi" x1="0" y1="0" x2="1" y2="0"><stop offset="0%" stop-color="#ecc25a"/><stop offset="100%" stop-color="#b8881c"/></linearGradient>
    <linearGradient id="copaFootoi" x1="0" y1="0" x2="0" y2="1"><stop offset="0%" stop-color="#f0c45e"/><stop offset="100%" stop-color="#b8881c"/></linearGradient>
    <linearGradient id="bladeoi" x1="0" y1="0" x2="1" y2="0"><stop offset="0%" stop-color="#9fb2c4"/><stop offset="50%" stop-color="#e8eef4"/><stop offset="100%" stop-color="#7f93a6"/></linearGradient>
    <linearGradient id="guardoi" x1="0" y1="0" x2="0" y2="1"><stop offset="0%" stop-color="#f0d36a"/><stop offset="100%" stop-color="#b8881c"/></linearGradient>
    <linearGradient id="gripoi" x1="0" y1="0" x2="1" y2="0"><stop offset="0%" stop-color="#6a4a24"/><stop offset="100%" stop-color="#3a260f"/></linearGradient>
    <radialGradient id="pommeloi" cx="40%" cy="35%" r="75%"><stop offset="0%" stop-color="#f0d36a"/><stop offset="100%" stop-color="#b8881c"/></radialGradient>
    <linearGradient id="woodoi" x1="0" y1="0" x2="1" y2="0"><stop offset="0%" stop-color="#b98a4e"/><stop offset="45%" stop-color="#9c6b2f"/><stop offset="100%" stop-color="#6e4720"/></linearGradient>
    <linearGradient id="parchoi" x1="0" y1="0" x2="0" y2="1"><stop offset="0%" stop-color="#fbf5e3"/><stop offset="100%" stop-color="#efe2c4"/></linearGradient>
    <radialGradient id="oroGradoh" cx="40%" cy="35%" r="75%"><stop offset="0%" stop-color="#fdeaa0"/><stop offset="55%" stop-color="#e9c34e"/><stop offset="100%" stop-color="#c2941f"/></radialGradient>
    <radialGradient id="oroCoreoh" cx="40%" cy="35%" r="80%"><stop offset="0%" stop-color="#fdeaa0"/><stop offset="100%" stop-color="#d9ad33"/></radialGradient>
    <linearGradient id="copaBowloh" x1="0" y1="0" x2="0" y2="1"><stop offset="0%" stop-color="#f0c45e"/><stop offset="100%" stop-color="#c2901f"/></linearGradient>
    <linearGradient id="copaStemoh" x1="0" y1="0" x2="1" y2="0"><stop offset="0%" stop-color="#ecc25a"/><stop offset="100%" stop-color="#b8881c"/></linearGradient>
    <linearGradient id="copaFootoh" x1="0" y1="0" x2="0" y2="1"><stop offset="0%" stop-color="#f0c45e"/><stop offset="100%" stop-color="#b8881c"/></linearGradient>
    <linearGradient id="bladeoh" x1="0" y1="0" x2="1" y2="0"><stop offset="0%" stop-color="#9fb2c4"/><stop offset="50%" stop-color="#e8eef4"/><stop offset="100%" stop-color="#7f93a6"/></linearGradient>
    <linearGradient id="guardoh" x1="0" y1="0" x2="0" y2="1"><stop offset="0%" stop-color="#f0d36a"/><stop offset="100%" stop-color="#b8881c"/></linearGradient>
    <linearGradient id="gripoh" x1="0" y1="0" x2="1" y2="0"><stop offset="0%" stop-color="#6a4a24"/><stop offset="100%" stop-color="#3a260f"/></linearGradient>
    <radialGradient id="pommeloh" cx="40%" cy="35%" r="75%"><stop offset="0%" stop-color="#f0d36a"/><stop offset="100%" stop-color="#b8881c"/></radialGradient>
    <linearGradient id="woodoh" x1="0" y1="0" x2="1" y2="0"><stop offset="0%" stop-color="#b98a4e"/><stop offset="45%" stop-color="#9c6b2f"/><stop offset="100%" stop-color="#6e4720"/></linearGradient>
    <linearGradient id="parchoh" x1="0" y1="0" x2="0" y2="1"><stop offset="0%" stop-color="#fbf5e3"/><stop offset="100%" stop-color="#efe2c4"/></linearGradient>
    <linearGradient id="robeo" x1="0" y1="0" x2="0" y2="1"><stop offset="0%" stop-color="#b07d12"/><stop offset="100%" stop-color="#7b570c"/></linearGradient>
    <linearGradient id="crowno" x1="0" y1="0" x2="0" y2="1"><stop offset="0%" stop-color="#f4dd77"/><stop offset="100%" stop-color="#c79a2e"/></linearGradient>
    <linearGradient id="capo" x1="0" y1="0" x2="0" y2="1"><stop offset="0%" stop-color="#cfb170"/><stop offset="100%" stop-color="#b07d12"/></linearGradient>
    <linearGradient id="horseo" x1="0" y1="0" x2="0" y2="1"><stop offset="0%" stop-color="#efe9dc"/><stop offset="100%" stop-color="#c9c1b0"/></linearGradient></defs>
    <rect x="3" y="3" width="244" height="344" rx="16" fill="url(#parcho)" stroke="#cdbb8e" stroke-width="2"/>
    <rect x="12" y="12" width="226" height="326" rx="11" fill="none" stroke="#b07d12" stroke-width="2.4" opacity="0.9"/>
    <rect x="17" y="17" width="216" height="316" rx="8" fill="none" stroke="#b07d12" stroke-width="1" opacity="0.5"/>
    <g fill="#b07d12">
      <circle cx="12" cy="12" r="3.2"/><circle cx="238" cy="12" r="3.2"/>
      <circle cx="12" cy="338" r="3.2"/><circle cx="238" cy="338" r="3.2"/>
    </g>
    <g transform="translate(182 150) scale(0.5)"><g>
      <circle r="47" fill="url(#oroGradoh)" stroke="#8a6414" stroke-width="2.5"/>
      <circle r="47" fill="none" stroke="#fff3c4" stroke-width="1.4" opacity="0.6"/>
      <circle r="36" fill="none" stroke="#a9781a" stroke-width="2"/>
      <g fill="#9c6f17"><circle cx="42.00" cy="0.00" r="1.7"/><circle cx="36.37" cy="21.00" r="1.7"/><circle cx="21.00" cy="36.37" r="1.7"/><circle cx="0.00" cy="42.00" r="1.7"/><circle cx="-21.00" cy="36.37" r="1.7"/><circle cx="-36.37" cy="21.00" r="1.7"/><circle cx="-42.00" cy="0.00" r="1.7"/><circle cx="-36.37" cy="-21.00" r="1.7"/><circle cx="-21.00" cy="-36.37" r="1.7"/><circle cx="-0.00" cy="-42.00" r="1.7"/><circle cx="21.00" cy="-36.37" r="1.7"/><circle cx="36.37" cy="-21.00" r="1.7"/></g>
      <circle r="21" fill="url(#oroCoreoh)" stroke="#a9781a" stroke-width="1.5"/>
      <g stroke="#b9831a" stroke-width="2" stroke-linecap="round"><line x1="11.00" y1="0.00" x2="18.00" y2="0.00"/><line x1="7.78" y1="7.78" x2="12.73" y2="12.73"/><line x1="0.00" y1="11.00" x2="0.00" y2="18.00"/><line x1="-7.78" y1="7.78" x2="-12.73" y2="12.73"/><line x1="-11.00" y1="0.00" x2="-18.00" y2="0.00"/><line x1="-7.78" y1="-7.78" x2="-12.73" y2="-12.73"/><line x1="-0.00" y1="-11.00" x2="-0.00" y2="-18.00"/><line x1="7.78" y1="-7.78" x2="12.73" y2="-12.73"/></g>
    </g></g>
    <path d="M84,290 C78,232 92,182 100,168 L150,168 C158,182 172,232 166,290 Z" fill="url(#robeo)" stroke="#00000033" stroke-width="1.5"/>
    <path d="M118,170 L132,170 L136,290 L114,290 Z" fill="#ffffff" opacity="0.18"/>
    <path d="M125,176 L125,286" stroke="#b07d12" stroke-width="2" opacity="0.5"/>
    <g fill="#e9c34e"><circle cx="125" cy="200" r="3"/><circle cx="125" cy="224" r="3"/><circle cx="125" cy="248" r="3"/></g>
    <path d="M100,172 C84,186 80,214 86,240 L100,236 C96,212 100,190 112,180 Z" fill="url(#robeo)" stroke="#00000022" stroke-width="1"/>
    <path d="M150,172 C168,184 176,206 174,150 L160,150 C160,180 150,184 138,180 Z" fill="url(#robeo)" stroke="#00000022" stroke-width="1"/>
    <ellipse cx="90" cy="240" rx="8" ry="9" fill="#f0c9a0" stroke="#d9a878" stroke-width="1"/>
    <ellipse cx="172" cy="150" rx="8" ry="9" fill="#f0c9a0" stroke="#d9a878" stroke-width="1"/>
    <path d="M96,168 Q125,150 154,168 Q125,182 96,168 Z" fill="#fbf7ee" stroke="#cbb78a" stroke-width="1.2"/>
    <g fill="#3a3026"><circle cx="110" cy="167" r="1.5"/><circle cx="125" cy="171" r="1.5"/><circle cx="140" cy="167" r="1.5"/></g>
    <rect x="118" y="150" width="14" height="14" fill="#f0c9a0"/>
    <ellipse cx="125" cy="128" rx="19" ry="22" fill="#f0c9a0" stroke="#d9a878" stroke-width="1"/>
    <path d="M106,124 Q104,150 116,158 Q110,140 110,126 Z" fill="#6e4a26"/>
    <path d="M144,124 Q146,150 134,158 Q140,140 140,126 Z" fill="#6e4a26"/>
    <path d="M111,138 Q125,176 139,138 Q138,152 125,158 Q112,152 111,138 Z" fill="#7a5630"/>
    <g fill="#5a4631"><ellipse cx="118" cy="126" rx="2" ry="2.4"/><ellipse cx="132" cy="126" rx="2" ry="2.4"/></g>
    <path d="M125,130 L125,138" stroke="#d9a878" stroke-width="1.5"/>
    <path d="M119,144 Q125,148 131,144" fill="none" stroke="#a8694a" stroke-width="1.6"/>
    <path d="M112,118 Q118,114 124,118 M126,118 Q132,114 138,118" fill="none" stroke="#6e4a26" stroke-width="1.6"/>
    <path d="M104,108 L108,90 L116,104 L125,86 L134,104 L142,90 L146,108 Z" fill="url(#crowno)" stroke="#9a7415" stroke-width="1.4"/>
    <rect x="103" y="106" width="44" height="8" rx="3" fill="url(#crowno)" stroke="#9a7415" stroke-width="1.2"/>
    <g><circle cx="108" cy="90" r="3" fill="#c0392b"/><circle cx="125" cy="86" r="3.4" fill="#2e7d32"/><circle cx="142" cy="90" r="3" fill="#2f5b9c"/>
       <circle cx="116" cy="110" r="2.2" fill="#c0392b"/><circle cx="134" cy="110" r="2.2" fill="#2f5b9c"/></g><g transform="translate(30 40)"><text x="0" y="0" font-family="Georgia,serif" font-weight="bold" font-size="30" fill="#b07d12" text-anchor="middle">12</text><g transform="translate(0 22)"><g transform="scale(0.22)"><g>
      <circle r="47" fill="url(#oroGradoi)" stroke="#8a6414" stroke-width="2.5"/>
      <circle r="47" fill="none" stroke="#fff3c4" stroke-width="1.4" opacity="0.6"/>
      <circle r="36" fill="none" stroke="#a9781a" stroke-width="2"/>
      <g fill="#9c6f17"><circle cx="42.00" cy="0.00" r="1.7"/><circle cx="36.37" cy="21.00" r="1.7"/><circle cx="21.00" cy="36.37" r="1.7"/><circle cx="0.00" cy="42.00" r="1.7"/><circle cx="-21.00" cy="36.37" r="1.7"/><circle cx="-36.37" cy="21.00" r="1.7"/><circle cx="-42.00" cy="0.00" r="1.7"/><circle cx="-36.37" cy="-21.00" r="1.7"/><circle cx="-21.00" cy="-36.37" r="1.7"/><circle cx="-0.00" cy="-42.00" r="1.7"/><circle cx="21.00" cy="-36.37" r="1.7"/><circle cx="36.37" cy="-21.00" r="1.7"/></g>
      <circle r="21" fill="url(#oroCoreoi)" stroke="#a9781a" stroke-width="1.5"/>
      <g stroke="#b9831a" stroke-width="2" stroke-linecap="round"><line x1="11.00" y1="0.00" x2="18.00" y2="0.00"/><line x1="7.78" y1="7.78" x2="12.73" y2="12.73"/><line x1="0.00" y1="11.00" x2="0.00" y2="18.00"/><line x1="-7.78" y1="7.78" x2="-12.73" y2="12.73"/><line x1="-11.00" y1="0.00" x2="-18.00" y2="0.00"/><line x1="-7.78" y1="-7.78" x2="-12.73" y2="-12.73"/><line x1="-0.00" y1="-11.00" x2="-0.00" y2="-18.00"/><line x1="7.78" y1="-7.78" x2="12.73" y2="-12.73"/></g>
    </g></g></g></g><g transform="translate(220 310) rotate(180)"><text x="0" y="0" font-family="Georgia,serif" font-weight="bold" font-size="30" fill="#b07d12" text-anchor="middle">12</text><g transform="translate(0 22)"><g transform="scale(0.22)"><g>
      <circle r="47" fill="url(#oroGradoi)" stroke="#8a6414" stroke-width="2.5"/>
      <circle r="47" fill="none" stroke="#fff3c4" stroke-width="1.4" opacity="0.6"/>
      <circle r="36" fill="none" stroke="#a9781a" stroke-width="2"/>
      <g fill="#9c6f17"><circle cx="42.00" cy="0.00" r="1.7"/><circle cx="36.37" cy="21.00" r="1.7"/><circle cx="21.00" cy="36.37" r="1.7"/><circle cx="0.00" cy="42.00" r="1.7"/><circle cx="-21.00" cy="36.37" r="1.7"/><circle cx="-36.37" cy="21.00" r="1.7"/><circle cx="-42.00" cy="0.00" r="1.7"/><circle cx="-36.37" cy="-21.00" r="1.7"/><circle cx="-21.00" cy="-36.37" r="1.7"/><circle cx="-0.00" cy="-42.00" r="1.7"/><circle cx="21.00" cy="-36.37" r="1.7"/><circle cx="36.37" cy="-21.00" r="1.7"/></g>
      <circle r="21" fill="url(#oroCoreoi)" stroke="#a9781a" stroke-width="1.5"/>
      <g stroke="#b9831a" stroke-width="2" stroke-linecap="round"><line x1="11.00" y1="0.00" x2="18.00" y2="0.00"/><line x1="7.78" y1="7.78" x2="12.73" y2="12.73"/><line x1="0.00" y1="11.00" x2="0.00" y2="18.00"/><line x1="-7.78" y1="7.78" x2="-12.73" y2="12.73"/><line x1="-11.00" y1="0.00" x2="-18.00" y2="0.00"/><line x1="-7.78" y1="-7.78" x2="-12.73" y2="-12.73"/><line x1="-0.00" y1="-11.00" x2="-0.00" y2="-18.00"/><line x1="7.78" y1="-7.78" x2="12.73" y2="-12.73"/></g>
    </g></g></g></g></svg>