<svg xmlns="http://www.w3.org/2000/svg" width="250" height="350" viewBox="0 0 250 350"><defs>
    <linearGradient id="parch" x1="0" y1="0" x2="0.3" y2="1"><stop offset="0%" stop-color="#fbf5e3"/><stop offset="100%" stop-color="#efe2c4"/></linearGradient>
    <radialGradient id="parchGlow" cx="50%" cy="42%" r="70%"><stop offset="0%" stop-color="#fffdf3" stop-opacity="0.6"/><stop offset="100%" stop-color="#fffdf3" stop-opacity="0"/></radialGradient>
    <radialGradient id="oroGradb" cx="40%" cy="35%" r="75%"><stop offset="0%" stop-color="#fdeaa0"/><stop offset="55%" stop-color="#e9c34e"/><stop offset="100%" stop-color="#c2941f"/></radialGradient>
    <radialGradient id="oroCoreb" cx="40%" cy="35%" r="80%"><stop offset="0%" stop-color="#fdeaa0"/><stop offset="100%" stop-color="#d9ad33"/></radialGradient>
    <linearGradient id="copaBowlb" x1="0" y1="0" x2="0" y2="1"><stop offset="0%" stop-color="#f0c45e"/><stop offset="100%" stop-color="#c2901f"/></linearGradient>
    <linearGradient id="copaStemb" x1="0" y1="0" x2="1" y2="0"><stop offset="0%" stop-color="#ecc25a"/><stop offset="100%" stop-color="#b8881c"/></linearGradient>
    <linearGradient id="copaFootb" x1="0" y1="0" x2="0" y2="1"><stop offset="0%" stop-color="#f0c45e"/><stop offset="100%" stop-color="#b8881c"/></linearGradient>
    <linearGradient id="bladeb" x1="0" y1="0" x2="1" y2="0"><stop offset="0%" stop-color="#9fb2c4"/><stop offset="50%" stop-color="#e8eef4"/><stop offset="100%" stop-color="#7f93a6"/></linearGradient>
    <linearGradient id="guardb" x1="0" y1="0" x2="0" y2="1"><stop offset="0%" stop-color="#f0d36a"/><stop offset="100%" stop-color="#b8881c"/></linearGradient>
    <linearGradient id="gripb" x1="0" y1="0" x2="1" y2="0"><stop offset="0%" stop-color="#6a4a24"/><stop offset="100%" stop-color="#3a260f"/></linearGradient>
    <radialGradient id="pommelb" cx="40%" cy="35%" r="75%"><stop offset="0%" stop-color="#f0d36a"/><stop offset="100%" stop-color="#b8881c"/></radialGradient>
    <linearGradient id="woodb" x1="0" y1="0" x2="1" y2="0"><stop offset="0%" stop-color="#b98a4e"/><stop offset="45%" stop-color="#9c6b2f"/><stop offset="100%" stop-color="#6e4720"/></linearGradient>
    <radialGradient id="oroGradbi" cx="40%" cy="35%" r="75%"><stop offset="0%" stop-color="#fdeaa0"/><stop offset="55%" stop-color="#e9c34e"/><stop offset="100%" stop-color="#c2941f"/></radialGradient>
    <radialGradient id="oroCorebi" cx="40%" cy="35%" r="80%"><stop offset="0%" stop-color="#fdeaa0"/><stop offset="100%" stop-color="#d9ad33"/></radialGradient>
    <linearGradient id="copaBowlbi" x1="0" y1="0" x2="0" y2="1"><stop offset="0%" stop-color="#f0c45e"/><stop offset="100%" stop-color="#c2901f"/></linearGradient>
    <linearGradient id="copaStembi" x1="0" y1="0" x2="1" y2="0"><stop offset="0%" stop-color="#ecc25a"/><stop offset="100%" stop-color="#b8881c"/></linearGradient>
    <linearGradient id="copaFootbi" x1="0" y1="0" x2="0" y2="1"><stop offset="0%" stop-color="#f0c45e"/><stop offset="100%" stop-color="#b8881c"/></linearGradient>
    <linearGradient id="bladebi" x1="0" y1="0" x2="1" y2="0"><stop offset="0%" stop-color="#9fb2c4"/><stop offset="50%" stop-color="#e8eef4"/><stop offset="100%" stop-color="#7f93a6"/></linearGradient>
    <linearGradient id="guardbi" x1="0" y1="0" x2="0" y2="1"><stop offset="0%" stop-color="#f0d36a"/><stop offset="100%" stop-color="#b8881c"/></linearGradient>
    <linearGradient id="gripbi" x1="0" y1="0" x2="1" y2="0"><stop offset="0%" stop-color="#6a4a24"/><stop offset="100%" stop-color="#3a260f"/></linearGradient>
    <radialGradient id="pommelbi" cx="40%" cy="35%" r="75%"><stop offset="0%" stop-color="#f0d36a"/><stop offset="100%" stop-color="#b8881c"/></radialGradient>
    <linearGradient id="woodbi" x1="0" y1="0" x2="1" y2="0"><stop offset="0%" stop-color="#b98a4e"/><stop offset="45%" stop-color="#9c6b2f"/><stop offset="100%" stop-color="#6e4720"/></linearGradient>
    <radialGradient id="oroGradbh" cx="40%" cy="35%" r="75%"><stop offset="0%" stop-color="#fdeaa0"/><stop offset="55%" stop-color="#e9c34e"/><stop offset="100%" stop-color="#c2941f"/></radialGradient>
    <radialGradient id="oroCorebh" cx="40%" cy="35%" r="80%"><stop offset="0%" stop-color="#fdeaa0"/><stop offset="100%" stop-color="#d9ad33"/></radialGradient>
    <linearGradient id="copaBowlbh" x1="0" y1="0" x2="0" y2="1"><stop offset="0%" stop-color="#f0c45e"/><stop offset="100%" stop-color="#c2901f"/></linearGradient>
    <linearGradient id="copaStembh" x1="0" y1="0" x2="1" y2="0"><stop offset="0%" stop-color="#ecc25a"/><stop offset="100%" stop-color="#b8881c"/></linearGradient>
    <linearGradient id="copaFootbh" x1="0" y1="0" x2="0" y2="1"><stop offset="0%" stop-color="#f0c45e"/><stop offset="100%" stop-color="#b8881c"/></linearGradient>
    <linearGradient id="bladebh" x1="0" y1="0" x2="1" y2="0"><stop offset="0%" stop-color="#9fb2c4"/><stop offset="50%" stop-color="#e8eef4"/><stop offset="100%" stop-color="#7f93a6"/></linearGradient>
    <linearGradient id="guardbh" x1="0" y1="0" x2="0" y2="1"><stop offset="0%" stop-color="#f0d36a"/><stop offset="100%" stop-color="#b8881c"/></linearGradient>
    <linearGradient id="gripbh" x1="0" y1="0" x2="1" y2="0"><stop offset="0%" stop-color="#6a4a24"/><stop offset="100%" stop-color="#3a260f"/></linearGradient>
    <radialGradient id="pommelbh" cx="40%" cy="35%" r="75%"><stop offset="0%" stop-color="#f0d36a"/><stop offset="100%" stop-color="#b8881c"/></radialGradient>
    <linearGradient id="woodbh" x1="0" y1="0" x2="1" y2="0"><stop offset="0%" stop-color="#b98a4e"/><stop offset="45%" stop-color="#9c6b2f"/><stop offset="100%" stop-color="#6e4720"/></linearGradient></defs>
    <rect x="2.5" y="2.5" width="245" height="345" rx="17" fill="url(#parch)" stroke="#cbb98a" stroke-width="2"/>
    <rect x="2.5" y="2.5" width="245" height="345" rx="17" fill="url(#parchGlow)"/>
    <rect x="11" y="11" width="228" height="328" rx="12" fill="none" stroke="#2f7d4f" stroke-width="2.6"/>
    <rect x="16" y="16" width="218" height="318" rx="8.5" fill="none" stroke="#2f7d4f" stroke-width="1" opacity="0.5"/>
    <path transform="translate(112.0 19) rotate(45)" d="M-2.6,-2.6 h5.2 v5.2 h-5.2 Z" fill="#2f7d4f"/><path transform="translate(112.0 331) rotate(45)" d="M-2.6,-2.6 h5.2 v5.2 h-5.2 Z" fill="#2f7d4f"/><path transform="translate(125.0 19) rotate(45)" d="M-2.6,-2.6 h5.2 v5.2 h-5.2 Z" fill="#2f7d4f"/><path transform="translate(125.0 331) rotate(45)" d="M-2.6,-2.6 h5.2 v5.2 h-5.2 Z" fill="#2f7d4f"/><path transform="translate(138.0 19) rotate(45)" d="M-2.6,-2.6 h5.2 v5.2 h-5.2 Z" fill="#2f7d4f"/><path transform="translate(138.0 331) rotate(45)" d="M-2.6,-2.6 h5.2 v5.2 h-5.2 Z" fill="#2f7d4f"/>
    <path d="M62,150 Q62,96 125,92 Q188,96 188,150 L188,300 L62,300 Z" fill="#f3ead2" stroke="#a87f1e" stroke-width="2"/><path d="M70,150 Q70,104 125,100 Q180,104 180,150" fill="none" stroke="#e3b53a" stroke-width="2.5"/>
    
    <path d="M70,300 L74,210 Q80,176 104,166 L146,166 Q170,176 176,210 L180,300 Z"
          fill="#2f7d4f" stroke="#2b2117" stroke-width="2"/>
    <g stroke="#2b2117" stroke-width="1" opacity="0.4" fill="none">
      <path d="M104,182 Q100,242 96,298"/><path d="M125,178 L125,298"/><path d="M146,182 Q150,242 154,298"/>
      <path d="M86,212 Q84,256 82,298"/><path d="M164,212 Q166,256 168,298"/>
    </g>
    <path d="M116,168 L134,168 L138,300 L112,300 Z" fill="#f4efe2" stroke="#2b2117" stroke-width="1.4"/><g transform="translate(122 196)"><path d="M0,0 l3,0 -1.5,4 z" fill="#2b2117"/><circle cx="-2" cy="-1" r="0.8" fill="#2b2117"/><circle cx="5" cy="-1" r="0.8" fill="#2b2117"/></g><g transform="translate(122 222)"><path d="M0,0 l3,0 -1.5,4 z" fill="#2b2117"/><circle cx="-2" cy="-1" r="0.8" fill="#2b2117"/><circle cx="5" cy="-1" r="0.8" fill="#2b2117"/></g><g transform="translate(122 248)"><path d="M0,0 l3,0 -1.5,4 z" fill="#2b2117"/><circle cx="-2" cy="-1" r="0.8" fill="#2b2117"/><circle cx="5" cy="-1" r="0.8" fill="#2b2117"/></g><g transform="translate(122 274)"><path d="M0,0 l3,0 -1.5,4 z" fill="#2b2117"/><circle cx="-2" cy="-1" r="0.8" fill="#2b2117"/><circle cx="5" cy="-1" r="0.8" fill="#2b2117"/></g>
    <path d="M92,176 Q125,158 158,176 Q150,192 125,186 Q100,192 92,176 Z" fill="#f4efe2" stroke="#2b2117" stroke-width="1.6"/>
    <path d="M74,200 Q60,212 64,250 Q72,246 80,232 Q78,214 90,200 Z" fill="#2f7d4f" stroke="#2b2117" stroke-width="1.6"/>
    <ellipse cx="68" cy="250" rx="9" ry="10" fill="#e8b88a" stroke="#2b2117" stroke-width="1.4"/>
    <g transform="translate(58 214) scale(0.62) rotate(-12)"><g>
      <path d="M-9,-50 Q-15,-46 -13,-30 L-7,38 Q-9,52 0,54 Q9,52 7,38 L13,-30 Q15,-46 9,-50 Q0,-56 -9,-50 Z"
            fill="url(#woodbh)" stroke="#5a3a18" stroke-width="2"/>
      <path d="M11,-22 Q25,-30 30,-18 Q21,-19 13,-9 Z" fill="url(#woodbh)" stroke="#5a3a18" stroke-width="1.6"/>
      <ellipse cx="28" cy="-20" rx="3.4" ry="2.6" fill="#caa066"/>
      <path d="M-12,0 Q-27,-3 -32,10 Q-22,7 -11,13 Z" fill="url(#woodbh)" stroke="#5a3a18" stroke-width="1.6"/>
      <ellipse cx="-30" cy="9" rx="3.4" ry="2.6" fill="#caa066"/>
      <g fill="#6a4420"><ellipse cx="-1" cy="-34" rx="3.6" ry="4.6"/><ellipse cx="4" cy="-6" rx="3.6" ry="4.6"/><ellipse cx="-4" cy="22" rx="3.6" ry="4.6"/></g>
      <path d="M-4,-48 Q-6,-20 -2,40" fill="none" stroke="#caa066" stroke-width="1.6" opacity="0.55"/>
    </g></g>
    <path d="M176,200 Q190,212 186,250 Q178,246 170,232 Q172,214 160,200 Z" fill="#2f7d4f" stroke="#2b2117" stroke-width="1.6"/>
    <ellipse cx="182" cy="250" rx="9" ry="10" fill="#e8b88a" stroke="#2b2117" stroke-width="1.4"/>
    <circle cx="186" cy="238" r="9" fill="#e3b53a" stroke="#2b2117" stroke-width="1.4"/>
    <path d="M186,229 L186,247 M177,238 L195,238" stroke="#a87f1e" stroke-width="1.4"/>
    <rect x="116" y="146" width="18" height="22" rx="3" fill="#e8b88a" stroke="#2b2117" stroke-width="1.4"/>
    <path d="M99,116 Q95,142 110,154 Q103,136 104,116 Z" fill="#2b2117"/><path d="M151,116 Q155,142 140,154 Q147,136 146,116 Z" fill="#2b2117"/><ellipse cx="125" cy="120" rx="22" ry="25" fill="#e8b88a" stroke="#2b2117" stroke-width="1.7"/><ellipse cx="104" cy="122" rx="3.4" ry="5" fill="#e8b88a" stroke="#2b2117" stroke-width="1.1"/><ellipse cx="146" cy="122" rx="3.4" ry="5" fill="#e8b88a" stroke="#2b2117" stroke-width="1.1"/><path d="M109,112 Q116,108 122,112" fill="none" stroke="#2b2117" stroke-width="1.6"/><path d="M128,112 Q134,108 141,112" fill="none" stroke="#2b2117" stroke-width="1.6"/><path d="M109,118 Q115,114 121,118 Q115,122 109,118 Z" fill="#fff" stroke="#2b2117" stroke-width="1.1"/><circle cx="115" cy="118" r="2.1" fill="#2b2117"/><path d="M129,118 Q135,114 141,118 Q135,122 129,118 Z" fill="#fff" stroke="#2b2117" stroke-width="1.1"/><circle cx="135" cy="118" r="2.1" fill="#2b2117"/><path d="M125,118 L122,130 Q125,133 128,130" fill="none" stroke="#2b2117" stroke-width="1.4"/><ellipse cx="111" cy="128" rx="3.6" ry="2.4" fill="#b0271c" opacity="0.22"/><ellipse cx="139" cy="128" rx="3.6" ry="2.4" fill="#b0271c" opacity="0.22"/><path d="M112,134 Q125,139 138,134 Q136,137 125,138 Q114,137 112,134 Z" fill="#2b2117"/><path d="M110,137 Q114,166 125,173 Q136,166 140,137 Q136,150 125,152 Q114,150 110,137 Z" fill="#2b2117"/>
    <path d="M97,104 L102,72 L116,96 L125,66 L134,96 L148,72 L153,104 Z" fill="#e3b53a" stroke="#2b2117" stroke-width="1.8"/><rect x="95" y="100" width="60" height="13" rx="3" fill="#e3b53a" stroke="#2b2117" stroke-width="1.6"/><rect x="121" y="56" width="8" height="12" fill="#e3b53a" stroke="#2b2117" stroke-width="1.2"/><rect x="116" y="60" width="18" height="6" fill="#e3b53a" stroke="#2b2117" stroke-width="1.2"/><g stroke="#2b2117" stroke-width="1"><circle cx="102" cy="72" r="3" fill="#b0271c"/><circle cx="125" cy="66" r="3.4" fill="#2f5b9c"/><circle cx="148" cy="72" r="3" fill="#b0271c"/><circle cx="111" cy="106" r="2.4" fill="#b0271c"/><circle cx="125" cy="106" r="2.6" fill="#2e7d4f"/><circle cx="139" cy="106" r="2.4" fill="#2f5b9c"/></g><g transform="translate(31 41)"><text x="0" y="0" font-family="Georgia,serif" font-weight="bold" font-size="31" fill="#2f7d4f" text-anchor="middle">12</text><g transform="translate(0 23)"><g transform="scale(0.21)"><g>
      <path d="M-9,-50 Q-15,-46 -13,-30 L-7,38 Q-9,52 0,54 Q9,52 7,38 L13,-30 Q15,-46 9,-50 Q0,-56 -9,-50 Z"
            fill="url(#woodbi)" stroke="#5a3a18" stroke-width="2"/>
      <path d="M11,-22 Q25,-30 30,-18 Q21,-19 13,-9 Z" fill="url(#woodbi)" stroke="#5a3a18" stroke-width="1.6"/>
      <ellipse cx="28" cy="-20" rx="3.4" ry="2.6" fill="#caa066"/>
      <path d="M-12,0 Q-27,-3 -32,10 Q-22,7 -11,13 Z" fill="url(#woodbi)" stroke="#5a3a18" stroke-width="1.6"/>
      <ellipse cx="-30" cy="9" rx="3.4" ry="2.6" fill="#caa066"/>
      <g fill="#6a4420"><ellipse cx="-1" cy="-34" rx="3.6" ry="4.6"/><ellipse cx="4" cy="-6" rx="3.6" ry="4.6"/><ellipse cx="-4" cy="22" rx="3.6" ry="4.6"/></g>
      <path d="M-4,-48 Q-6,-20 -2,40" fill="none" stroke="#caa066" stroke-width="1.6" opacity="0.55"/>
    </g></g></g></g><g transform="translate(219 309) rotate(180)"><text x="0" y="0" font-family="Georgia,serif" font-weight="bold" font-size="31" fill="#2f7d4f" text-anchor="middle">12</text><g transform="translate(0 23)"><g transform="scale(0.21)"><g>
      <path d="M-9,-50 Q-15,-46 -13,-30 L-7,38 Q-9,52 0,54 Q9,52 7,38 L13,-30 Q15,-46 9,-50 Q0,-56 -9,-50 Z"
            fill="url(#woodbi)" stroke="#5a3a18" stroke-width="2"/>
      <path d="M11,-22 Q25,-30 30,-18 Q21,-19 13,-9 Z" fill="url(#woodbi)" stroke="#5a3a18" stroke-width="1.6"/>
      <ellipse cx="28" cy="-20" rx="3.4" ry="2.6" fill="#caa066"/>
      <path d="M-12,0 Q-27,-3 -32,10 Q-22,7 -11,13 Z" fill="url(#woodbi)" stroke="#5a3a18" stroke-width="1.6"/>
      <ellipse cx="-30" cy="9" rx="3.4" ry="2.6" fill="#caa066"/>
      <g fill="#6a4420"><ellipse cx="-1" cy="-34" rx="3.6" ry="4.6"/><ellipse cx="4" cy="-6" rx="3.6" ry="4.6"/><ellipse cx="-4" cy="22" rx="3.6" ry="4.6"/></g>
      <path d="M-4,-48 Q-6,-20 -2,40" fill="none" stroke="#caa066" stroke-width="1.6" opacity="0.55"/>
    </g></g></g></g></svg>