<svg xmlns="http://www.w3.org/2000/svg" width="250" height="350" viewBox="0 0 250 350"><defs>
    <linearGradient id="parch" x1="0" y1="0" x2="0.3" y2="1"><stop offset="0%" stop-color="#fbf5e3"/><stop offset="100%" stop-color="#efe2c4"/></linearGradient>
    <radialGradient id="parchGlow" cx="50%" cy="42%" r="70%"><stop offset="0%" stop-color="#fffdf3" stop-opacity="0.6"/><stop offset="100%" stop-color="#fffdf3" stop-opacity="0"/></radialGradient>
    <radialGradient id="oroGrado" cx="40%" cy="35%" r="75%"><stop offset="0%" stop-color="#fdeaa0"/><stop offset="55%" stop-color="#e9c34e"/><stop offset="100%" stop-color="#c2941f"/></radialGradient>
    <radialGradient id="oroCoreo" cx="40%" cy="35%" r="80%"><stop offset="0%" stop-color="#fdeaa0"/><stop offset="100%" stop-color="#d9ad33"/></radialGradient>
    <linearGradient id="copaBowlo" x1="0" y1="0" x2="0" y2="1"><stop offset="0%" stop-color="#f0c45e"/><stop offset="100%" stop-color="#c2901f"/></linearGradient>
    <linearGradient id="copaStemo" x1="0" y1="0" x2="1" y2="0"><stop offset="0%" stop-color="#ecc25a"/><stop offset="100%" stop-color="#b8881c"/></linearGradient>
    <linearGradient id="copaFooto" x1="0" y1="0" x2="0" y2="1"><stop offset="0%" stop-color="#f0c45e"/><stop offset="100%" stop-color="#b8881c"/></linearGradient>
    <linearGradient id="bladeo" x1="0" y1="0" x2="1" y2="0"><stop offset="0%" stop-color="#9fb2c4"/><stop offset="50%" stop-color="#e8eef4"/><stop offset="100%" stop-color="#7f93a6"/></linearGradient>
    <linearGradient id="guardo" x1="0" y1="0" x2="0" y2="1"><stop offset="0%" stop-color="#f0d36a"/><stop offset="100%" stop-color="#b8881c"/></linearGradient>
    <linearGradient id="gripo" x1="0" y1="0" x2="1" y2="0"><stop offset="0%" stop-color="#6a4a24"/><stop offset="100%" stop-color="#3a260f"/></linearGradient>
    <radialGradient id="pommelo" cx="40%" cy="35%" r="75%"><stop offset="0%" stop-color="#f0d36a"/><stop offset="100%" stop-color="#b8881c"/></radialGradient>
    <linearGradient id="woodo" x1="0" y1="0" x2="1" y2="0"><stop offset="0%" stop-color="#b98a4e"/><stop offset="45%" stop-color="#9c6b2f"/><stop offset="100%" stop-color="#6e4720"/></linearGradient>
    <radialGradient id="oroGradoi" cx="40%" cy="35%" r="75%"><stop offset="0%" stop-color="#fdeaa0"/><stop offset="55%" stop-color="#e9c34e"/><stop offset="100%" stop-color="#c2941f"/></radialGradient>
    <radialGradient id="oroCoreoi" cx="40%" cy="35%" r="80%"><stop offset="0%" stop-color="#fdeaa0"/><stop offset="100%" stop-color="#d9ad33"/></radialGradient>
    <linearGradient id="copaBowloi" x1="0" y1="0" x2="0" y2="1"><stop offset="0%" stop-color="#f0c45e"/><stop offset="100%" stop-color="#c2901f"/></linearGradient>
    <linearGradient id="copaStemoi" x1="0" y1="0" x2="1" y2="0"><stop offset="0%" stop-color="#ecc25a"/><stop offset="100%" stop-color="#b8881c"/></linearGradient>
    <linearGradient id="copaFootoi" x1="0" y1="0" x2="0" y2="1"><stop offset="0%" stop-color="#f0c45e"/><stop offset="100%" stop-color="#b8881c"/></linearGradient>
    <linearGradient id="bladeoi" x1="0" y1="0" x2="1" y2="0"><stop offset="0%" stop-color="#9fb2c4"/><stop offset="50%" stop-color="#e8eef4"/><stop offset="100%" stop-color="#7f93a6"/></linearGradient>
    <linearGradient id="guardoi" x1="0" y1="0" x2="0" y2="1"><stop offset="0%" stop-color="#f0d36a"/><stop offset="100%" stop-color="#b8881c"/></linearGradient>
    <linearGradient id="gripoi" x1="0" y1="0" x2="1" y2="0"><stop offset="0%" stop-color="#6a4a24"/><stop offset="100%" stop-color="#3a260f"/></linearGradient>
    <radialGradient id="pommeloi" cx="40%" cy="35%" r="75%"><stop offset="0%" stop-color="#f0d36a"/><stop offset="100%" stop-color="#b8881c"/></radialGradient>
    <linearGradient id="woodoi" x1="0" y1="0" x2="1" y2="0"><stop offset="0%" stop-color="#b98a4e"/><stop offset="45%" stop-color="#9c6b2f"/><stop offset="100%" stop-color="#6e4720"/></linearGradient>
    <radialGradient id="oroGradoh" cx="40%" cy="35%" r="75%"><stop offset="0%" stop-color="#fdeaa0"/><stop offset="55%" stop-color="#e9c34e"/><stop offset="100%" stop-color="#c2941f"/></radialGradient>
    <radialGradient id="oroCoreoh" cx="40%" cy="35%" r="80%"><stop offset="0%" stop-color="#fdeaa0"/><stop offset="100%" stop-color="#d9ad33"/></radialGradient>
    <linearGradient id="copaBowloh" x1="0" y1="0" x2="0" y2="1"><stop offset="0%" stop-color="#f0c45e"/><stop offset="100%" stop-color="#c2901f"/></linearGradient>
    <linearGradient id="copaStemoh" x1="0" y1="0" x2="1" y2="0"><stop offset="0%" stop-color="#ecc25a"/><stop offset="100%" stop-color="#b8881c"/></linearGradient>
    <linearGradient id="copaFootoh" x1="0" y1="0" x2="0" y2="1"><stop offset="0%" stop-color="#f0c45e"/><stop offset="100%" stop-color="#b8881c"/></linearGradient>
    <linearGradient id="bladeoh" x1="0" y1="0" x2="1" y2="0"><stop offset="0%" stop-color="#9fb2c4"/><stop offset="50%" stop-color="#e8eef4"/><stop offset="100%" stop-color="#7f93a6"/></linearGradient>
    <linearGradient id="guardoh" x1="0" y1="0" x2="0" y2="1"><stop offset="0%" stop-color="#f0d36a"/><stop offset="100%" stop-color="#b8881c"/></linearGradient>
    <linearGradient id="gripoh" x1="0" y1="0" x2="1" y2="0"><stop offset="0%" stop-color="#6a4a24"/><stop offset="100%" stop-color="#3a260f"/></linearGradient>
    <radialGradient id="pommeloh" cx="40%" cy="35%" r="75%"><stop offset="0%" stop-color="#f0d36a"/><stop offset="100%" stop-color="#b8881c"/></radialGradient>
    <linearGradient id="woodoh" x1="0" y1="0" x2="1" y2="0"><stop offset="0%" stop-color="#b98a4e"/><stop offset="45%" stop-color="#9c6b2f"/><stop offset="100%" stop-color="#6e4720"/></linearGradient></defs>
    <rect x="2.5" y="2.5" width="245" height="345" rx="17" fill="url(#parch)" stroke="#cbb98a" stroke-width="2"/>
    <rect x="2.5" y="2.5" width="245" height="345" rx="17" fill="url(#parchGlow)"/>
    <rect x="11" y="11" width="228" height="328" rx="12" fill="none" stroke="#b07d12" stroke-width="2.6"/>
    <rect x="16" y="16" width="218" height="318" rx="8.5" fill="none" stroke="#b07d12" stroke-width="1" opacity="0.5"/>
    
    <path d="M62,150 Q62,96 125,92 Q188,96 188,150 L188,300 L62,300 Z" fill="#f3ead2" stroke="#a87f1e" stroke-width="2"/><path d="M70,150 Q70,104 125,100 Q180,104 180,150" fill="none" stroke="#e3b53a" stroke-width="2.5"/>
    
    <path d="M70,300 L74,210 Q80,176 104,166 L146,166 Q170,176 176,210 L180,300 Z"
          fill="#b07d12" stroke="#2b2117" stroke-width="2"/>
    <g stroke="#2b2117" stroke-width="1" opacity="0.4" fill="none">
      <path d="M104,182 Q100,242 96,298"/><path d="M125,178 L125,298"/><path d="M146,182 Q150,242 154,298"/>
      <path d="M86,212 Q84,256 82,298"/><path d="M164,212 Q166,256 168,298"/>
    </g>
    <path d="M116,168 L134,168 L138,300 L112,300 Z" fill="#f4efe2" stroke="#2b2117" stroke-width="1.4"/><g transform="translate(122 196)"><path d="M0,0 l3,0 -1.5,4 z" fill="#2b2117"/><circle cx="-2" cy="-1" r="0.8" fill="#2b2117"/><circle cx="5" cy="-1" r="0.8" fill="#2b2117"/></g><g transform="translate(122 222)"><path d="M0,0 l3,0 -1.5,4 z" fill="#2b2117"/><circle cx="-2" cy="-1" r="0.8" fill="#2b2117"/><circle cx="5" cy="-1" r="0.8" fill="#2b2117"/></g><g transform="translate(122 248)"><path d="M0,0 l3,0 -1.5,4 z" fill="#2b2117"/><circle cx="-2" cy="-1" r="0.8" fill="#2b2117"/><circle cx="5" cy="-1" r="0.8" fill="#2b2117"/></g><g transform="translate(122 274)"><path d="M0,0 l3,0 -1.5,4 z" fill="#2b2117"/><circle cx="-2" cy="-1" r="0.8" fill="#2b2117"/><circle cx="5" cy="-1" r="0.8" fill="#2b2117"/></g>
    <path d="M92,176 Q125,158 158,176 Q150,192 125,186 Q100,192 92,176 Z" fill="#f4efe2" stroke="#2b2117" stroke-width="1.6"/>
    <path d="M74,200 Q60,212 64,250 Q72,246 80,232 Q78,214 90,200 Z" fill="#b07d12" stroke="#2b2117" stroke-width="1.6"/>
    <ellipse cx="68" cy="250" rx="9" ry="10" fill="#e8b88a" stroke="#2b2117" stroke-width="1.4"/>
    <g transform="translate(58 214) scale(0.62) rotate(-12)"><g>
      <circle r="47" fill="url(#oroGradoh)" stroke="#8a6414" stroke-width="2.5"/>
      <circle r="47" fill="none" stroke="#fff3c4" stroke-width="1.4" opacity="0.6"/>
      <circle r="36" fill="none" stroke="#a9781a" stroke-width="2"/>
      <g fill="#9c6f17"><circle cx="42.00" cy="0.00" r="1.7"/><circle cx="36.37" cy="21.00" r="1.7"/><circle cx="21.00" cy="36.37" r="1.7"/><circle cx="0.00" cy="42.00" r="1.7"/><circle cx="-21.00" cy="36.37" r="1.7"/><circle cx="-36.37" cy="21.00" r="1.7"/><circle cx="-42.00" cy="0.00" r="1.7"/><circle cx="-36.37" cy="-21.00" r="1.7"/><circle cx="-21.00" cy="-36.37" r="1.7"/><circle cx="-0.00" cy="-42.00" r="1.7"/><circle cx="21.00" cy="-36.37" r="1.7"/><circle cx="36.37" cy="-21.00" r="1.7"/></g>
      <circle r="21" fill="url(#oroCoreoh)" stroke="#a9781a" stroke-width="1.5"/>
      <g stroke="#b9831a" stroke-width="2" stroke-linecap="round"><line x1="11.00" y1="0.00" x2="18.00" y2="0.00"/><line x1="7.78" y1="7.78" x2="12.73" y2="12.73"/><line x1="0.00" y1="11.00" x2="0.00" y2="18.00"/><line x1="-7.78" y1="7.78" x2="-12.73" y2="12.73"/><line x1="-11.00" y1="0.00" x2="-18.00" y2="0.00"/><line x1="-7.78" y1="-7.78" x2="-12.73" y2="-12.73"/><line x1="-0.00" y1="-11.00" x2="-0.00" y2="-18.00"/><line x1="7.78" y1="-7.78" x2="12.73" y2="-12.73"/></g>
    </g></g>
    <path d="M176,200 Q190,212 186,250 Q178,246 170,232 Q172,214 160,200 Z" fill="#b07d12" stroke="#2b2117" stroke-width="1.6"/>
    <ellipse cx="182" cy="250" rx="9" ry="10" fill="#e8b88a" stroke="#2b2117" stroke-width="1.4"/>
    <circle cx="186" cy="238" r="9" fill="#e3b53a" stroke="#2b2117" stroke-width="1.4"/>
    <path d="M186,229 L186,247 M177,238 L195,238" stroke="#a87f1e" stroke-width="1.4"/>
    <rect x="116" y="146" width="18" height="22" rx="3" fill="#e8b88a" stroke="#2b2117" stroke-width="1.4"/>
    <path d="M99,116 Q95,142 110,154 Q103,136 104,116 Z" fill="#2b2117"/><path d="M151,116 Q155,142 140,154 Q147,136 146,116 Z" fill="#2b2117"/><ellipse cx="125" cy="120" rx="22" ry="25" fill="#e8b88a" stroke="#2b2117" stroke-width="1.7"/><ellipse cx="104" cy="122" rx="3.4" ry="5" fill="#e8b88a" stroke="#2b2117" stroke-width="1.1"/><ellipse cx="146" cy="122" rx="3.4" ry="5" fill="#e8b88a" stroke="#2b2117" stroke-width="1.1"/><path d="M109,112 Q116,108 122,112" fill="none" stroke="#2b2117" stroke-width="1.6"/><path d="M128,112 Q134,108 141,112" fill="none" stroke="#2b2117" stroke-width="1.6"/><path d="M109,118 Q115,114 121,118 Q115,122 109,118 Z" fill="#fff" stroke="#2b2117" stroke-width="1.1"/><circle cx="115" cy="118" r="2.1" fill="#2b2117"/><path d="M129,118 Q135,114 141,118 Q135,122 129,118 Z" fill="#fff" stroke="#2b2117" stroke-width="1.1"/><circle cx="135" cy="118" r="2.1" fill="#2b2117"/><path d="M125,118 L122,130 Q125,133 128,130" fill="none" stroke="#2b2117" stroke-width="1.4"/><ellipse cx="111" cy="128" rx="3.6" ry="2.4" fill="#b0271c" opacity="0.22"/><ellipse cx="139" cy="128" rx="3.6" ry="2.4" fill="#b0271c" opacity="0.22"/><path d="M112,134 Q125,139 138,134 Q136,137 125,138 Q114,137 112,134 Z" fill="#2b2117"/><path d="M110,137 Q114,166 125,173 Q136,166 140,137 Q136,150 125,152 Q114,150 110,137 Z" fill="#2b2117"/>
    <path d="M97,104 L102,72 L116,96 L125,66 L134,96 L148,72 L153,104 Z" fill="#e3b53a" stroke="#2b2117" stroke-width="1.8"/><rect x="95" y="100" width="60" height="13" rx="3" fill="#e3b53a" stroke="#2b2117" stroke-width="1.6"/><rect x="121" y="56" width="8" height="12" fill="#e3b53a" stroke="#2b2117" stroke-width="1.2"/><rect x="116" y="60" width="18" height="6" fill="#e3b53a" stroke="#2b2117" stroke-width="1.2"/><g stroke="#2b2117" stroke-width="1"><circle cx="102" cy="72" r="3" fill="#b0271c"/><circle cx="125" cy="66" r="3.4" fill="#2f5b9c"/><circle cx="148" cy="72" r="3" fill="#b0271c"/><circle cx="111" cy="106" r="2.4" fill="#b0271c"/><circle cx="125" cy="106" r="2.6" fill="#2e7d4f"/><circle cx="139" cy="106" r="2.4" fill="#2f5b9c"/></g><g transform="translate(31 41)"><text x="0" y="0" font-family="Georgia,serif" font-weight="bold" font-size="31" fill="#b07d12" text-anchor="middle">12</text><g transform="translate(0 23)"><g transform="scale(0.21)"><g>
      <circle r="47" fill="url(#oroGradoi)" stroke="#8a6414" stroke-width="2.5"/>
      <circle r="47" fill="none" stroke="#fff3c4" stroke-width="1.4" opacity="0.6"/>
      <circle r="36" fill="none" stroke="#a9781a" stroke-width="2"/>
      <g fill="#9c6f17"><circle cx="42.00" cy="0.00" r="1.7"/><circle cx="36.37" cy="21.00" r="1.7"/><circle cx="21.00" cy="36.37" r="1.7"/><circle cx="0.00" cy="42.00" r="1.7"/><circle cx="-21.00" cy="36.37" r="1.7"/><circle cx="-36.37" cy="21.00" r="1.7"/><circle cx="-42.00" cy="0.00" r="1.7"/><circle cx="-36.37" cy="-21.00" r="1.7"/><circle cx="-21.00" cy="-36.37" r="1.7"/><circle cx="-0.00" cy="-42.00" r="1.7"/><circle cx="21.00" cy="-36.37" r="1.7"/><circle cx="36.37" cy="-21.00" r="1.7"/></g>
      <circle r="21" fill="url(#oroCoreoi)" stroke="#a9781a" stroke-width="1.5"/>
      <g stroke="#b9831a" stroke-width="2" stroke-linecap="round"><line x1="11.00" y1="0.00" x2="18.00" y2="0.00"/><line x1="7.78" y1="7.78" x2="12.73" y2="12.73"/><line x1="0.00" y1="11.00" x2="0.00" y2="18.00"/><line x1="-7.78" y1="7.78" x2="-12.73" y2="12.73"/><line x1="-11.00" y1="0.00" x2="-18.00" y2="0.00"/><line x1="-7.78" y1="-7.78" x2="-12.73" y2="-12.73"/><line x1="-0.00" y1="-11.00" x2="-0.00" y2="-18.00"/><line x1="7.78" y1="-7.78" x2="12.73" y2="-12.73"/></g>
    </g></g></g></g><g transform="translate(219 309) rotate(180)"><text x="0" y="0" font-family="Georgia,serif" font-weight="bold" font-size="31" fill="#b07d12" text-anchor="middle">12</text><g transform="translate(0 23)"><g transform="scale(0.21)"><g>
      <circle r="47" fill="url(#oroGradoi)" stroke="#8a6414" stroke-width="2.5"/>
      <circle r="47" fill="none" stroke="#fff3c4" stroke-width="1.4" opacity="0.6"/>
      <circle r="36" fill="none" stroke="#a9781a" stroke-width="2"/>
      <g fill="#9c6f17"><circle cx="42.00" cy="0.00" r="1.7"/><circle cx="36.37" cy="21.00" r="1.7"/><circle cx="21.00" cy="36.37" r="1.7"/><circle cx="0.00" cy="42.00" r="1.7"/><circle cx="-21.00" cy="36.37" r="1.7"/><circle cx="-36.37" cy="21.00" r="1.7"/><circle cx="-42.00" cy="0.00" r="1.7"/><circle cx="-36.37" cy="-21.00" r="1.7"/><circle cx="-21.00" cy="-36.37" r="1.7"/><circle cx="-0.00" cy="-42.00" r="1.7"/><circle cx="21.00" cy="-36.37" r="1.7"/><circle cx="36.37" cy="-21.00" r="1.7"/></g>
      <circle r="21" fill="url(#oroCoreoi)" stroke="#a9781a" stroke-width="1.5"/>
      <g stroke="#b9831a" stroke-width="2" stroke-linecap="round"><line x1="11.00" y1="0.00" x2="18.00" y2="0.00"/><line x1="7.78" y1="7.78" x2="12.73" y2="12.73"/><line x1="0.00" y1="11.00" x2="0.00" y2="18.00"/><line x1="-7.78" y1="7.78" x2="-12.73" y2="12.73"/><line x1="-11.00" y1="0.00" x2="-18.00" y2="0.00"/><line x1="-7.78" y1="-7.78" x2="-12.73" y2="-12.73"/><line x1="-0.00" y1="-11.00" x2="-0.00" y2="-18.00"/><line x1="7.78" y1="-7.78" x2="12.73" y2="-12.73"/></g>
    </g></g></g></g></svg>