<svg xmlns="http://www.w3.org/2000/svg" width="250" height="350" viewBox="0 0 250 350"><defs>
    <radialGradient id="oroGradc" cx="40%" cy="35%" r="75%"><stop offset="0%" stop-color="#fdeaa0"/><stop offset="55%" stop-color="#e9c34e"/><stop offset="100%" stop-color="#c2941f"/></radialGradient>
    <radialGradient id="oroCorec" cx="40%" cy="35%" r="80%"><stop offset="0%" stop-color="#fdeaa0"/><stop offset="100%" stop-color="#d9ad33"/></radialGradient>
    <linearGradient id="copaBowlc" x1="0" y1="0" x2="0" y2="1"><stop offset="0%" stop-color="#f0c45e"/><stop offset="100%" stop-color="#c2901f"/></linearGradient>
    <linearGradient id="copaStemc" x1="0" y1="0" x2="1" y2="0"><stop offset="0%" stop-color="#ecc25a"/><stop offset="100%" stop-color="#b8881c"/></linearGradient>
    <linearGradient id="copaFootc" x1="0" y1="0" x2="0" y2="1"><stop offset="0%" stop-color="#f0c45e"/><stop offset="100%" stop-color="#b8881c"/></linearGradient>
    <linearGradient id="bladec" x1="0" y1="0" x2="1" y2="0"><stop offset="0%" stop-color="#9fb2c4"/><stop offset="50%" stop-color="#e8eef4"/><stop offset="100%" stop-color="#7f93a6"/></linearGradient>
    <linearGradient id="guardc" x1="0" y1="0" x2="0" y2="1"><stop offset="0%" stop-color="#f0d36a"/><stop offset="100%" stop-color="#b8881c"/></linearGradient>
    <linearGradient id="gripc" x1="0" y1="0" x2="1" y2="0"><stop offset="0%" stop-color="#6a4a24"/><stop offset="100%" stop-color="#3a260f"/></linearGradient>
    <radialGradient id="pommelc" cx="40%" cy="35%" r="75%"><stop offset="0%" stop-color="#f0d36a"/><stop offset="100%" stop-color="#b8881c"/></radialGradient>
    <linearGradient id="woodc" x1="0" y1="0" x2="1" y2="0"><stop offset="0%" stop-color="#b98a4e"/><stop offset="45%" stop-color="#9c6b2f"/><stop offset="100%" stop-color="#6e4720"/></linearGradient>
    <linearGradient id="parchc" x1="0" y1="0" x2="0" y2="1"><stop offset="0%" stop-color="#fbf5e3"/><stop offset="100%" stop-color="#efe2c4"/></linearGradient>
    <radialGradient id="oroGradci" cx="40%" cy="35%" r="75%"><stop offset="0%" stop-color="#fdeaa0"/><stop offset="55%" stop-color="#e9c34e"/><stop offset="100%" stop-color="#c2941f"/></radialGradient>
    <radialGradient id="oroCoreci" cx="40%" cy="35%" r="80%"><stop offset="0%" stop-color="#fdeaa0"/><stop offset="100%" stop-color="#d9ad33"/></radialGradient>
    <linearGradient id="copaBowlci" x1="0" y1="0" x2="0" y2="1"><stop offset="0%" stop-color="#f0c45e"/><stop offset="100%" stop-color="#c2901f"/></linearGradient>
    <linearGradient id="copaStemci" x1="0" y1="0" x2="1" y2="0"><stop offset="0%" stop-color="#ecc25a"/><stop offset="100%" stop-color="#b8881c"/></linearGradient>
    <linearGradient id="copaFootci" x1="0" y1="0" x2="0" y2="1"><stop offset="0%" stop-color="#f0c45e"/><stop offset="100%" stop-color="#b8881c"/></linearGradient>
    <linearGradient id="bladeci" x1="0" y1="0" x2="1" y2="0"><stop offset="0%" stop-color="#9fb2c4"/><stop offset="50%" stop-color="#e8eef4"/><stop offset="100%" stop-color="#7f93a6"/></linearGradient>
    <linearGradient id="guardci" x1="0" y1="0" x2="0" y2="1"><stop offset="0%" stop-color="#f0d36a"/><stop offset="100%" stop-color="#b8881c"/></linearGradient>
    <linearGradient id="gripci" x1="0" y1="0" x2="1" y2="0"><stop offset="0%" stop-color="#6a4a24"/><stop offset="100%" stop-color="#3a260f"/></linearGradient>
    <radialGradient id="pommelci" cx="40%" cy="35%" r="75%"><stop offset="0%" stop-color="#f0d36a"/><stop offset="100%" stop-color="#b8881c"/></radialGradient>
    <linearGradient id="woodci" x1="0" y1="0" x2="1" y2="0"><stop offset="0%" stop-color="#b98a4e"/><stop offset="45%" stop-color="#9c6b2f"/><stop offset="100%" stop-color="#6e4720"/></linearGradient>
    <linearGradient id="parchci" x1="0" y1="0" x2="0" y2="1"><stop offset="0%" stop-color="#fbf5e3"/><stop offset="100%" stop-color="#efe2c4"/></linearGradient>
    <radialGradient id="oroGradch" cx="40%" cy="35%" r="75%"><stop offset="0%" stop-color="#fdeaa0"/><stop offset="55%" stop-color="#e9c34e"/><stop offset="100%" stop-color="#c2941f"/></radialGradient>
    <radialGradient id="oroCorech" cx="40%" cy="35%" r="80%"><stop offset="0%" stop-color="#fdeaa0"/><stop offset="100%" stop-color="#d9ad33"/></radialGradient>
    <linearGradient id="copaBowlch" x1="0" y1="0" x2="0" y2="1"><stop offset="0%" stop-color="#f0c45e"/><stop offset="100%" stop-color="#c2901f"/></linearGradient>
    <linearGradient id="copaStemch" x1="0" y1="0" x2="1" y2="0"><stop offset="0%" stop-color="#ecc25a"/><stop offset="100%" stop-color="#b8881c"/></linearGradient>
    <linearGradient id="copaFootch" x1="0" y1="0" x2="0" y2="1"><stop offset="0%" stop-color="#f0c45e"/><stop offset="100%" stop-color="#b8881c"/></linearGradient>
    <linearGradient id="bladech" x1="0" y1="0" x2="1" y2="0"><stop offset="0%" stop-color="#9fb2c4"/><stop offset="50%" stop-color="#e8eef4"/><stop offset="100%" stop-color="#7f93a6"/></linearGradient>
    <linearGradient id="guardch" x1="0" y1="0" x2="0" y2="1"><stop offset="0%" stop-color="#f0d36a"/><stop offset="100%" stop-color="#b8881c"/></linearGradient>
    <linearGradient id="gripch" x1="0" y1="0" x2="1" y2="0"><stop offset="0%" stop-color="#6a4a24"/><stop offset="100%" stop-color="#3a260f"/></linearGradient>
    <radialGradient id="pommelch" cx="40%" cy="35%" r="75%"><stop offset="0%" stop-color="#f0d36a"/><stop offset="100%" stop-color="#b8881c"/></radialGradient>
    <linearGradient id="woodch" x1="0" y1="0" x2="1" y2="0"><stop offset="0%" stop-color="#b98a4e"/><stop offset="45%" stop-color="#9c6b2f"/><stop offset="100%" stop-color="#6e4720"/></linearGradient>
    <linearGradient id="parchch" x1="0" y1="0" x2="0" y2="1"><stop offset="0%" stop-color="#fbf5e3"/><stop offset="100%" stop-color="#efe2c4"/></linearGradient>
    <linearGradient id="robec" x1="0" y1="0" x2="0" y2="1"><stop offset="0%" stop-color="#b0271c"/><stop offset="100%" stop-color="#7b1b13"/></linearGradient>
    <linearGradient id="crownc" x1="0" y1="0" x2="0" y2="1"><stop offset="0%" stop-color="#f4dd77"/><stop offset="100%" stop-color="#c79a2e"/></linearGradient>
    <linearGradient id="capc" x1="0" y1="0" x2="0" y2="1"><stop offset="0%" stop-color="#cf7d76"/><stop offset="100%" stop-color="#b0271c"/></linearGradient>
    <linearGradient id="horsec" x1="0" y1="0" x2="0" y2="1"><stop offset="0%" stop-color="#efe9dc"/><stop offset="100%" stop-color="#c9c1b0"/></linearGradient></defs>
    <rect x="3" y="3" width="244" height="344" rx="16" fill="url(#parchc)" stroke="#cdbb8e" stroke-width="2"/>
    <rect x="12" y="12" width="226" height="326" rx="11" fill="none" stroke="#b0271c" stroke-width="2.4" opacity="0.9"/>
    <rect x="17" y="17" width="216" height="316" rx="8" fill="none" stroke="#b0271c" stroke-width="1" opacity="0.5"/>
    <g fill="#b0271c">
      <circle cx="12" cy="12" r="3.2"/><circle cx="238" cy="12" r="3.2"/>
      <circle cx="12" cy="338" r="3.2"/><circle cx="238" cy="338" r="3.2"/>
    </g>
    <g transform="translate(182 150) scale(0.5)"><g>
      <ellipse cx="0" cy="50" rx="24" ry="6" fill="#7a4a12" opacity="0.30"/>
      <path d="M-30,-34 Q-30,8 0,16 Q30,8 30,-34 Z" fill="url(#copaBowlch)" stroke="#8a3b22" stroke-width="2"/>
      <path d="M-30,-34 Q0,-22 30,-34 L30,-25 Q0,-13 -30,-25 Z" fill="#b0271c" stroke="#8a3b22" stroke-width="1.4"/>
      <ellipse cx="0" cy="-34" rx="30" ry="8" fill="#ecc25a" stroke="#8a6414" stroke-width="1.5"/>
      <circle cx="0" cy="-44" r="5" fill="#ecc25a" stroke="#8a6414" stroke-width="1.2"/>
      <rect x="-4.5" y="16" width="9" height="20" fill="url(#copaStemch)" stroke="#8a6414" stroke-width="1"/>
      <ellipse cx="0" cy="22" rx="9" ry="4.5" fill="#ecc25a" stroke="#8a6414" stroke-width="1.1"/>
      <path d="M-24,46 Q0,34 24,46 Q0,40 -24,46 Z M-24,46 Q0,52 24,46" fill="url(#copaFootch)" stroke="#8a6414" stroke-width="1.5"/>
    </g></g>
    <path d="M84,290 C78,232 92,182 100,168 L150,168 C158,182 172,232 166,290 Z" fill="url(#robec)" stroke="#00000033" stroke-width="1.5"/>
    <path d="M118,170 L132,170 L136,290 L114,290 Z" fill="#ffffff" opacity="0.18"/>
    <path d="M125,176 L125,286" stroke="#b0271c" stroke-width="2" opacity="0.5"/>
    <g fill="#e9c34e"><circle cx="125" cy="200" r="3"/><circle cx="125" cy="224" r="3"/><circle cx="125" cy="248" r="3"/></g>
    <path d="M100,172 C84,186 80,214 86,240 L100,236 C96,212 100,190 112,180 Z" fill="url(#robec)" stroke="#00000022" stroke-width="1"/>
    <path d="M150,172 C168,184 176,206 174,150 L160,150 C160,180 150,184 138,180 Z" fill="url(#robec)" stroke="#00000022" stroke-width="1"/>
    <ellipse cx="90" cy="240" rx="8" ry="9" fill="#f0c9a0" stroke="#d9a878" stroke-width="1"/>
    <ellipse cx="172" cy="150" rx="8" ry="9" fill="#f0c9a0" stroke="#d9a878" stroke-width="1"/>
    <path d="M96,168 Q125,150 154,168 Q125,182 96,168 Z" fill="#fbf7ee" stroke="#cbb78a" stroke-width="1.2"/>
    <g fill="#3a3026"><circle cx="110" cy="167" r="1.5"/><circle cx="125" cy="171" r="1.5"/><circle cx="140" cy="167" r="1.5"/></g>
    <rect x="118" y="150" width="14" height="14" fill="#f0c9a0"/>
    <ellipse cx="125" cy="128" rx="19" ry="22" fill="#f0c9a0" stroke="#d9a878" stroke-width="1"/>
    <path d="M106,124 Q104,150 116,158 Q110,140 110,126 Z" fill="#6e4a26"/>
    <path d="M144,124 Q146,150 134,158 Q140,140 140,126 Z" fill="#6e4a26"/>
    <path d="M111,138 Q125,176 139,138 Q138,152 125,158 Q112,152 111,138 Z" fill="#7a5630"/>
    <g fill="#5a4631"><ellipse cx="118" cy="126" rx="2" ry="2.4"/><ellipse cx="132" cy="126" rx="2" ry="2.4"/></g>
    <path d="M125,130 L125,138" stroke="#d9a878" stroke-width="1.5"/>
    <path d="M119,144 Q125,148 131,144" fill="none" stroke="#a8694a" stroke-width="1.6"/>
    <path d="M112,118 Q118,114 124,118 M126,118 Q132,114 138,118" fill="none" stroke="#6e4a26" stroke-width="1.6"/>
    <path d="M104,108 L108,90 L116,104 L125,86 L134,104 L142,90 L146,108 Z" fill="url(#crownc)" stroke="#9a7415" stroke-width="1.4"/>
    <rect x="103" y="106" width="44" height="8" rx="3" fill="url(#crownc)" stroke="#9a7415" stroke-width="1.2"/>
    <g><circle cx="108" cy="90" r="3" fill="#c0392b"/><circle cx="125" cy="86" r="3.4" fill="#2e7d32"/><circle cx="142" cy="90" r="3" fill="#2f5b9c"/>
       <circle cx="116" cy="110" r="2.2" fill="#c0392b"/><circle cx="134" cy="110" r="2.2" fill="#2f5b9c"/></g><g transform="translate(30 40)"><text x="0" y="0" font-family="Georgia,serif" font-weight="bold" font-size="30" fill="#b0271c" text-anchor="middle">12</text><g transform="translate(0 22)"><g transform="scale(0.22)"><g>
      <ellipse cx="0" cy="50" rx="24" ry="6" fill="#7a4a12" opacity="0.30"/>
      <path d="M-30,-34 Q-30,8 0,16 Q30,8 30,-34 Z" fill="url(#copaBowlci)" stroke="#8a3b22" stroke-width="2"/>
      <path d="M-30,-34 Q0,-22 30,-34 L30,-25 Q0,-13 -30,-25 Z" fill="#b0271c" stroke="#8a3b22" stroke-width="1.4"/>
      <ellipse cx="0" cy="-34" rx="30" ry="8" fill="#ecc25a" stroke="#8a6414" stroke-width="1.5"/>
      <circle cx="0" cy="-44" r="5" fill="#ecc25a" stroke="#8a6414" stroke-width="1.2"/>
      <rect x="-4.5" y="16" width="9" height="20" fill="url(#copaStemci)" stroke="#8a6414" stroke-width="1"/>
      <ellipse cx="0" cy="22" rx="9" ry="4.5" fill="#ecc25a" stroke="#8a6414" stroke-width="1.1"/>
      <path d="M-24,46 Q0,34 24,46 Q0,40 -24,46 Z M-24,46 Q0,52 24,46" fill="url(#copaFootci)" stroke="#8a6414" stroke-width="1.5"/>
    </g></g></g></g><g transform="translate(220 310) rotate(180)"><text x="0" y="0" font-family="Georgia,serif" font-weight="bold" font-size="30" fill="#b0271c" text-anchor="middle">12</text><g transform="translate(0 22)"><g transform="scale(0.22)"><g>
      <ellipse cx="0" cy="50" rx="24" ry="6" fill="#7a4a12" opacity="0.30"/>
      <path d="M-30,-34 Q-30,8 0,16 Q30,8 30,-34 Z" fill="url(#copaBowlci)" stroke="#8a3b22" stroke-width="2"/>
      <path d="M-30,-34 Q0,-22 30,-34 L30,-25 Q0,-13 -30,-25 Z" fill="#b0271c" stroke="#8a3b22" stroke-width="1.4"/>
      <ellipse cx="0" cy="-34" rx="30" ry="8" fill="#ecc25a" stroke="#8a6414" stroke-width="1.5"/>
      <circle cx="0" cy="-44" r="5" fill="#ecc25a" stroke="#8a6414" stroke-width="1.2"/>
      <rect x="-4.5" y="16" width="9" height="20" fill="url(#copaStemci)" stroke="#8a6414" stroke-width="1"/>
      <ellipse cx="0" cy="22" rx="9" ry="4.5" fill="#ecc25a" stroke="#8a6414" stroke-width="1.1"/>
      <path d="M-24,46 Q0,34 24,46 Q0,40 -24,46 Z M-24,46 Q0,52 24,46" fill="url(#copaFootci)" stroke="#8a6414" stroke-width="1.5"/>
    </g></g></g></g></svg>