<svg xmlns="http://www.w3.org/2000/svg" width="250" height="350" viewBox="0 0 250 350"><defs>
    <radialGradient id="oroGradc" cx="40%" cy="35%" r="75%"><stop offset="0%" stop-color="#fdeaa0"/><stop offset="55%" stop-color="#e9c34e"/><stop offset="100%" stop-color="#c2941f"/></radialGradient>
    <radialGradient id="oroCorec" cx="40%" cy="35%" r="80%"><stop offset="0%" stop-color="#fdeaa0"/><stop offset="100%" stop-color="#d9ad33"/></radialGradient>
    <linearGradient id="copaBowlc" x1="0" y1="0" x2="0" y2="1"><stop offset="0%" stop-color="#f0c45e"/><stop offset="100%" stop-color="#c2901f"/></linearGradient>
    <linearGradient id="copaStemc" x1="0" y1="0" x2="1" y2="0"><stop offset="0%" stop-color="#ecc25a"/><stop offset="100%" stop-color="#b8881c"/></linearGradient>
    <linearGradient id="copaFootc" x1="0" y1="0" x2="0" y2="1"><stop offset="0%" stop-color="#f0c45e"/><stop offset="100%" stop-color="#b8881c"/></linearGradient>
    <linearGradient id="bladec" x1="0" y1="0" x2="1" y2="0"><stop offset="0%" stop-color="#9fb2c4"/><stop offset="50%" stop-color="#e8eef4"/><stop offset="100%" stop-color="#7f93a6"/></linearGradient>
    <linearGradient id="guardc" x1="0" y1="0" x2="0" y2="1"><stop offset="0%" stop-color="#f0d36a"/><stop offset="100%" stop-color="#b8881c"/></linearGradient>
    <linearGradient id="gripc" x1="0" y1="0" x2="1" y2="0"><stop offset="0%" stop-color="#6a4a24"/><stop offset="100%" stop-color="#3a260f"/></linearGradient>
    <radialGradient id="pommelc" cx="40%" cy="35%" r="75%"><stop offset="0%" stop-color="#f0d36a"/><stop offset="100%" stop-color="#b8881c"/></radialGradient>
    <linearGradient id="woodc" x1="0" y1="0" x2="1" y2="0"><stop offset="0%" stop-color="#b98a4e"/><stop offset="45%" stop-color="#9c6b2f"/><stop offset="100%" stop-color="#6e4720"/></linearGradient>
    <linearGradient id="parchc" x1="0" y1="0" x2="0" y2="1"><stop offset="0%" stop-color="#fbf5e3"/><stop offset="100%" stop-color="#efe2c4"/></linearGradient>
    <radialGradient id="oroGradci" cx="40%" cy="35%" r="75%"><stop offset="0%" stop-color="#fdeaa0"/><stop offset="55%" stop-color="#e9c34e"/><stop offset="100%" stop-color="#c2941f"/></radialGradient>
    <radialGradient id="oroCoreci" cx="40%" cy="35%" r="80%"><stop offset="0%" stop-color="#fdeaa0"/><stop offset="100%" stop-color="#d9ad33"/></radialGradient>
    <linearGradient id="copaBowlci" x1="0" y1="0" x2="0" y2="1"><stop offset="0%" stop-color="#f0c45e"/><stop offset="100%" stop-color="#c2901f"/></linearGradient>
    <linearGradient id="copaStemci" x1="0" y1="0" x2="1" y2="0"><stop offset="0%" stop-color="#ecc25a"/><stop offset="100%" stop-color="#b8881c"/></linearGradient>
    <linearGradient id="copaFootci" x1="0" y1="0" x2="0" y2="1"><stop offset="0%" stop-color="#f0c45e"/><stop offset="100%" stop-color="#b8881c"/></linearGradient>
    <linearGradient id="bladeci" x1="0" y1="0" x2="1" y2="0"><stop offset="0%" stop-color="#9fb2c4"/><stop offset="50%" stop-color="#e8eef4"/><stop offset="100%" stop-color="#7f93a6"/></linearGradient>
    <linearGradient id="guardci" x1="0" y1="0" x2="0" y2="1"><stop offset="0%" stop-color="#f0d36a"/><stop offset="100%" stop-color="#b8881c"/></linearGradient>
    <linearGradient id="gripci" x1="0" y1="0" x2="1" y2="0"><stop offset="0%" stop-color="#6a4a24"/><stop offset="100%" stop-color="#3a260f"/></linearGradient>
    <radialGradient id="pommelci" cx="40%" cy="35%" r="75%"><stop offset="0%" stop-color="#f0d36a"/><stop offset="100%" stop-color="#b8881c"/></radialGradient>
    <linearGradient id="woodci" x1="0" y1="0" x2="1" y2="0"><stop offset="0%" stop-color="#b98a4e"/><stop offset="45%" stop-color="#9c6b2f"/><stop offset="100%" stop-color="#6e4720"/></linearGradient>
    <linearGradient id="parchci" x1="0" y1="0" x2="0" y2="1"><stop offset="0%" stop-color="#fbf5e3"/><stop offset="100%" stop-color="#efe2c4"/></linearGradient>
    <radialGradient id="oroGradch" cx="40%" cy="35%" r="75%"><stop offset="0%" stop-color="#fdeaa0"/><stop offset="55%" stop-color="#e9c34e"/><stop offset="100%" stop-color="#c2941f"/></radialGradient>
    <radialGradient id="oroCorech" cx="40%" cy="35%" r="80%"><stop offset="0%" stop-color="#fdeaa0"/><stop offset="100%" stop-color="#d9ad33"/></radialGradient>
    <linearGradient id="copaBowlch" x1="0" y1="0" x2="0" y2="1"><stop offset="0%" stop-color="#f0c45e"/><stop offset="100%" stop-color="#c2901f"/></linearGradient>
    <linearGradient id="copaStemch" x1="0" y1="0" x2="1" y2="0"><stop offset="0%" stop-color="#ecc25a"/><stop offset="100%" stop-color="#b8881c"/></linearGradient>
    <linearGradient id="copaFootch" x1="0" y1="0" x2="0" y2="1"><stop offset="0%" stop-color="#f0c45e"/><stop offset="100%" stop-color="#b8881c"/></linearGradient>
    <linearGradient id="bladech" x1="0" y1="0" x2="1" y2="0"><stop offset="0%" stop-color="#9fb2c4"/><stop offset="50%" stop-color="#e8eef4"/><stop offset="100%" stop-color="#7f93a6"/></linearGradient>
    <linearGradient id="guardch" x1="0" y1="0" x2="0" y2="1"><stop offset="0%" stop-color="#f0d36a"/><stop offset="100%" stop-color="#b8881c"/></linearGradient>
    <linearGradient id="gripch" x1="0" y1="0" x2="1" y2="0"><stop offset="0%" stop-color="#6a4a24"/><stop offset="100%" stop-color="#3a260f"/></linearGradient>
    <radialGradient id="pommelch" cx="40%" cy="35%" r="75%"><stop offset="0%" stop-color="#f0d36a"/><stop offset="100%" stop-color="#b8881c"/></radialGradient>
    <linearGradient id="woodch" x1="0" y1="0" x2="1" y2="0"><stop offset="0%" stop-color="#b98a4e"/><stop offset="45%" stop-color="#9c6b2f"/><stop offset="100%" stop-color="#6e4720"/></linearGradient>
    <linearGradient id="parchch" x1="0" y1="0" x2="0" y2="1"><stop offset="0%" stop-color="#fbf5e3"/><stop offset="100%" stop-color="#efe2c4"/></linearGradient>
    <linearGradient id="robec" x1="0" y1="0" x2="0" y2="1"><stop offset="0%" stop-color="#b0271c"/><stop offset="100%" stop-color="#7b1b13"/></linearGradient>
    <linearGradient id="crownc" x1="0" y1="0" x2="0" y2="1"><stop offset="0%" stop-color="#f4dd77"/><stop offset="100%" stop-color="#c79a2e"/></linearGradient>
    <linearGradient id="capc" x1="0" y1="0" x2="0" y2="1"><stop offset="0%" stop-color="#cf7d76"/><stop offset="100%" stop-color="#b0271c"/></linearGradient>
    <linearGradient id="horsec" x1="0" y1="0" x2="0" y2="1"><stop offset="0%" stop-color="#efe9dc"/><stop offset="100%" stop-color="#c9c1b0"/></linearGradient></defs>
    <rect x="3" y="3" width="244" height="344" rx="16" fill="url(#parchc)" stroke="#cdbb8e" stroke-width="2"/>
    <rect x="12" y="12" width="226" height="326" rx="11" fill="none" stroke="#b0271c" stroke-width="2.4" opacity="0.9"/>
    <rect x="17" y="17" width="216" height="316" rx="8" fill="none" stroke="#b0271c" stroke-width="1" opacity="0.5"/>
    <g fill="#b0271c">
      <circle cx="12" cy="12" r="3.2"/><circle cx="238" cy="12" r="3.2"/>
      <circle cx="12" cy="338" r="3.2"/><circle cx="238" cy="338" r="3.2"/>
    </g>
    <g transform="translate(184 150) scale(0.5)"><g>
      <ellipse cx="0" cy="50" rx="24" ry="6" fill="#7a4a12" opacity="0.30"/>
      <path d="M-30,-34 Q-30,8 0,16 Q30,8 30,-34 Z" fill="url(#copaBowlch)" stroke="#8a3b22" stroke-width="2"/>
      <path d="M-30,-34 Q0,-22 30,-34 L30,-25 Q0,-13 -30,-25 Z" fill="#b0271c" stroke="#8a3b22" stroke-width="1.4"/>
      <ellipse cx="0" cy="-34" rx="30" ry="8" fill="#ecc25a" stroke="#8a6414" stroke-width="1.5"/>
      <circle cx="0" cy="-44" r="5" fill="#ecc25a" stroke="#8a6414" stroke-width="1.2"/>
      <rect x="-4.5" y="16" width="9" height="20" fill="url(#copaStemch)" stroke="#8a6414" stroke-width="1"/>
      <ellipse cx="0" cy="22" rx="9" ry="4.5" fill="#ecc25a" stroke="#8a6414" stroke-width="1.1"/>
      <path d="M-24,46 Q0,34 24,46 Q0,40 -24,46 Z M-24,46 Q0,52 24,46" fill="url(#copaFootch)" stroke="#8a6414" stroke-width="1.5"/>
    </g></g>
    <path d="M108,232 L104,288 L120,288 L122,238 Z" fill="#caa46a" stroke="#00000022" stroke-width="1"/>
    <path d="M128,238 L130,288 L146,288 L142,232 Z" fill="#b9925a" stroke="#00000022" stroke-width="1"/>
    <path d="M100,286 L124,286 L124,294 L96,294 Z" fill="#4a3526"/>
    <path d="M126,286 L148,286 L150,294 L124,294 Z" fill="#3e2c1f"/>
    <path d="M92,238 C88,210 92,182 100,170 L150,170 C158,182 162,210 158,238 Q125,250 92,238 Z" fill="url(#robec)" stroke="#00000033" stroke-width="1.4"/>
    <rect x="92" y="228" width="66" height="9" rx="3" fill="#7a5a2a"/>
    <rect x="120" y="228" width="10" height="9" rx="2" fill="#e9c34e"/>
    <path d="M125,176 L125,228" stroke="#b0271c" stroke-width="1.6" opacity="0.45"/>
    <path d="M98,174 C84,188 82,210 90,232 L102,228 C96,208 100,188 110,180 Z" fill="url(#robec)" stroke="#00000022" stroke-width="1"/>
    <path d="M152,174 C168,184 176,204 174,150 L160,150 C160,178 150,184 140,180 Z" fill="url(#robec)" stroke="#00000022" stroke-width="1"/>
    <ellipse cx="94" cy="232" rx="7.5" ry="8.5" fill="#f0c9a0" stroke="#d9a878" stroke-width="1"/>
    <ellipse cx="172" cy="150" rx="8" ry="9" fill="#f0c9a0" stroke="#d9a878" stroke-width="1"/>
    <path d="M100,170 Q125,158 150,170 Q125,180 100,170 Z" fill="#fbf7ee" stroke="#cbb78a" stroke-width="1.1"/>
    <rect x="118" y="152" width="14" height="13" fill="#f0c9a0"/>
    <ellipse cx="125" cy="132" rx="18" ry="21" fill="#f0c9a0" stroke="#d9a878" stroke-width="1"/>
    <path d="M107,128 Q106,150 117,156 Q112,142 112,130 Z" fill="#6e4a26"/>
    <path d="M143,128 Q144,150 133,156 Q138,142 138,130 Z" fill="#6e4a26"/>
    <g fill="#5a4631"><ellipse cx="119" cy="130" rx="2" ry="2.4"/><ellipse cx="131" cy="130" rx="2" ry="2.4"/></g>
    <path d="M125,134 L125,141" stroke="#d9a878" stroke-width="1.4"/>
    <path d="M120,147 Q125,150 130,147" fill="none" stroke="#a8694a" stroke-width="1.5"/>
    <ellipse cx="113" cy="140" rx="3" ry="2" fill="#e7a07e" opacity="0.5"/>
    <ellipse cx="137" cy="140" rx="3" ry="2" fill="#e7a07e" opacity="0.5"/>
    <path d="M104,118 Q108,98 125,98 Q146,98 148,116 Q150,122 142,120 Q125,112 110,120 Q103,123 104,118 Z" fill="url(#capc)" stroke="#00000033" stroke-width="1.2"/>
    <path d="M146,112 Q166,104 170,86 Q158,96 148,104 Z" fill="#e9c34e" stroke="#9a7415" stroke-width="1"/>
    <rect x="106" y="114" width="40" height="6" rx="3" fill="#7a5a2a"/><g transform="translate(30 40)"><text x="0" y="0" font-family="Georgia,serif" font-weight="bold" font-size="30" fill="#b0271c" text-anchor="middle">10</text><g transform="translate(0 22)"><g transform="scale(0.22)"><g>
      <ellipse cx="0" cy="50" rx="24" ry="6" fill="#7a4a12" opacity="0.30"/>
      <path d="M-30,-34 Q-30,8 0,16 Q30,8 30,-34 Z" fill="url(#copaBowlci)" stroke="#8a3b22" stroke-width="2"/>
      <path d="M-30,-34 Q0,-22 30,-34 L30,-25 Q0,-13 -30,-25 Z" fill="#b0271c" stroke="#8a3b22" stroke-width="1.4"/>
      <ellipse cx="0" cy="-34" rx="30" ry="8" fill="#ecc25a" stroke="#8a6414" stroke-width="1.5"/>
      <circle cx="0" cy="-44" r="5" fill="#ecc25a" stroke="#8a6414" stroke-width="1.2"/>
      <rect x="-4.5" y="16" width="9" height="20" fill="url(#copaStemci)" stroke="#8a6414" stroke-width="1"/>
      <ellipse cx="0" cy="22" rx="9" ry="4.5" fill="#ecc25a" stroke="#8a6414" stroke-width="1.1"/>
      <path d="M-24,46 Q0,34 24,46 Q0,40 -24,46 Z M-24,46 Q0,52 24,46" fill="url(#copaFootci)" stroke="#8a6414" stroke-width="1.5"/>
    </g></g></g></g><g transform="translate(220 310) rotate(180)"><text x="0" y="0" font-family="Georgia,serif" font-weight="bold" font-size="30" fill="#b0271c" text-anchor="middle">10</text><g transform="translate(0 22)"><g transform="scale(0.22)"><g>
      <ellipse cx="0" cy="50" rx="24" ry="6" fill="#7a4a12" opacity="0.30"/>
      <path d="M-30,-34 Q-30,8 0,16 Q30,8 30,-34 Z" fill="url(#copaBowlci)" stroke="#8a3b22" stroke-width="2"/>
      <path d="M-30,-34 Q0,-22 30,-34 L30,-25 Q0,-13 -30,-25 Z" fill="#b0271c" stroke="#8a3b22" stroke-width="1.4"/>
      <ellipse cx="0" cy="-34" rx="30" ry="8" fill="#ecc25a" stroke="#8a6414" stroke-width="1.5"/>
      <circle cx="0" cy="-44" r="5" fill="#ecc25a" stroke="#8a6414" stroke-width="1.2"/>
      <rect x="-4.5" y="16" width="9" height="20" fill="url(#copaStemci)" stroke="#8a6414" stroke-width="1"/>
      <ellipse cx="0" cy="22" rx="9" ry="4.5" fill="#ecc25a" stroke="#8a6414" stroke-width="1.1"/>
      <path d="M-24,46 Q0,34 24,46 Q0,40 -24,46 Z M-24,46 Q0,52 24,46" fill="url(#copaFootci)" stroke="#8a6414" stroke-width="1.5"/>
    </g></g></g></g></svg>