<svg xmlns="http://www.w3.org/2000/svg" width="250" height="350" viewBox="0 0 250 350"><defs>
    <radialGradient id="oroGradb" cx="40%" cy="35%" r="75%"><stop offset="0%" stop-color="#fdeaa0"/><stop offset="55%" stop-color="#e9c34e"/><stop offset="100%" stop-color="#c2941f"/></radialGradient>
    <radialGradient id="oroCoreb" cx="40%" cy="35%" r="80%"><stop offset="0%" stop-color="#fdeaa0"/><stop offset="100%" stop-color="#d9ad33"/></radialGradient>
    <linearGradient id="copaBowlb" x1="0" y1="0" x2="0" y2="1"><stop offset="0%" stop-color="#f0c45e"/><stop offset="100%" stop-color="#c2901f"/></linearGradient>
    <linearGradient id="copaStemb" x1="0" y1="0" x2="1" y2="0"><stop offset="0%" stop-color="#ecc25a"/><stop offset="100%" stop-color="#b8881c"/></linearGradient>
    <linearGradient id="copaFootb" x1="0" y1="0" x2="0" y2="1"><stop offset="0%" stop-color="#f0c45e"/><stop offset="100%" stop-color="#b8881c"/></linearGradient>
    <linearGradient id="bladeb" x1="0" y1="0" x2="1" y2="0"><stop offset="0%" stop-color="#9fb2c4"/><stop offset="50%" stop-color="#e8eef4"/><stop offset="100%" stop-color="#7f93a6"/></linearGradient>
    <linearGradient id="guardb" x1="0" y1="0" x2="0" y2="1"><stop offset="0%" stop-color="#f0d36a"/><stop offset="100%" stop-color="#b8881c"/></linearGradient>
    <linearGradient id="gripb" x1="0" y1="0" x2="1" y2="0"><stop offset="0%" stop-color="#6a4a24"/><stop offset="100%" stop-color="#3a260f"/></linearGradient>
    <radialGradient id="pommelb" cx="40%" cy="35%" r="75%"><stop offset="0%" stop-color="#f0d36a"/><stop offset="100%" stop-color="#b8881c"/></radialGradient>
    <linearGradient id="woodb" x1="0" y1="0" x2="1" y2="0"><stop offset="0%" stop-color="#b98a4e"/><stop offset="45%" stop-color="#9c6b2f"/><stop offset="100%" stop-color="#6e4720"/></linearGradient>
    <linearGradient id="parchb" x1="0" y1="0" x2="0" y2="1"><stop offset="0%" stop-color="#fbf5e3"/><stop offset="100%" stop-color="#efe2c4"/></linearGradient>
    <radialGradient id="oroGradbi" cx="40%" cy="35%" r="75%"><stop offset="0%" stop-color="#fdeaa0"/><stop offset="55%" stop-color="#e9c34e"/><stop offset="100%" stop-color="#c2941f"/></radialGradient>
    <radialGradient id="oroCorebi" cx="40%" cy="35%" r="80%"><stop offset="0%" stop-color="#fdeaa0"/><stop offset="100%" stop-color="#d9ad33"/></radialGradient>
    <linearGradient id="copaBowlbi" x1="0" y1="0" x2="0" y2="1"><stop offset="0%" stop-color="#f0c45e"/><stop offset="100%" stop-color="#c2901f"/></linearGradient>
    <linearGradient id="copaStembi" x1="0" y1="0" x2="1" y2="0"><stop offset="0%" stop-color="#ecc25a"/><stop offset="100%" stop-color="#b8881c"/></linearGradient>
    <linearGradient id="copaFootbi" x1="0" y1="0" x2="0" y2="1"><stop offset="0%" stop-color="#f0c45e"/><stop offset="100%" stop-color="#b8881c"/></linearGradient>
    <linearGradient id="bladebi" x1="0" y1="0" x2="1" y2="0"><stop offset="0%" stop-color="#9fb2c4"/><stop offset="50%" stop-color="#e8eef4"/><stop offset="100%" stop-color="#7f93a6"/></linearGradient>
    <linearGradient id="guardbi" x1="0" y1="0" x2="0" y2="1"><stop offset="0%" stop-color="#f0d36a"/><stop offset="100%" stop-color="#b8881c"/></linearGradient>
    <linearGradient id="gripbi" x1="0" y1="0" x2="1" y2="0"><stop offset="0%" stop-color="#6a4a24"/><stop offset="100%" stop-color="#3a260f"/></linearGradient>
    <radialGradient id="pommelbi" cx="40%" cy="35%" r="75%"><stop offset="0%" stop-color="#f0d36a"/><stop offset="100%" stop-color="#b8881c"/></radialGradient>
    <linearGradient id="woodbi" x1="0" y1="0" x2="1" y2="0"><stop offset="0%" stop-color="#b98a4e"/><stop offset="45%" stop-color="#9c6b2f"/><stop offset="100%" stop-color="#6e4720"/></linearGradient>
    <linearGradient id="parchbi" x1="0" y1="0" x2="0" y2="1"><stop offset="0%" stop-color="#fbf5e3"/><stop offset="100%" stop-color="#efe2c4"/></linearGradient>
    <radialGradient id="oroGradbh" cx="40%" cy="35%" r="75%"><stop offset="0%" stop-color="#fdeaa0"/><stop offset="55%" stop-color="#e9c34e"/><stop offset="100%" stop-color="#c2941f"/></radialGradient>
    <radialGradient id="oroCorebh" cx="40%" cy="35%" r="80%"><stop offset="0%" stop-color="#fdeaa0"/><stop offset="100%" stop-color="#d9ad33"/></radialGradient>
    <linearGradient id="copaBowlbh" x1="0" y1="0" x2="0" y2="1"><stop offset="0%" stop-color="#f0c45e"/><stop offset="100%" stop-color="#c2901f"/></linearGradient>
    <linearGradient id="copaStembh" x1="0" y1="0" x2="1" y2="0"><stop offset="0%" stop-color="#ecc25a"/><stop offset="100%" stop-color="#b8881c"/></linearGradient>
    <linearGradient id="copaFootbh" x1="0" y1="0" x2="0" y2="1"><stop offset="0%" stop-color="#f0c45e"/><stop offset="100%" stop-color="#b8881c"/></linearGradient>
    <linearGradient id="bladebh" x1="0" y1="0" x2="1" y2="0"><stop offset="0%" stop-color="#9fb2c4"/><stop offset="50%" stop-color="#e8eef4"/><stop offset="100%" stop-color="#7f93a6"/></linearGradient>
    <linearGradient id="guardbh" x1="0" y1="0" x2="0" y2="1"><stop offset="0%" stop-color="#f0d36a"/><stop offset="100%" stop-color="#b8881c"/></linearGradient>
    <linearGradient id="gripbh" x1="0" y1="0" x2="1" y2="0"><stop offset="0%" stop-color="#6a4a24"/><stop offset="100%" stop-color="#3a260f"/></linearGradient>
    <radialGradient id="pommelbh" cx="40%" cy="35%" r="75%"><stop offset="0%" stop-color="#f0d36a"/><stop offset="100%" stop-color="#b8881c"/></radialGradient>
    <linearGradient id="woodbh" x1="0" y1="0" x2="1" y2="0"><stop offset="0%" stop-color="#b98a4e"/><stop offset="45%" stop-color="#9c6b2f"/><stop offset="100%" stop-color="#6e4720"/></linearGradient>
    <linearGradient id="parchbh" x1="0" y1="0" x2="0" y2="1"><stop offset="0%" stop-color="#fbf5e3"/><stop offset="100%" stop-color="#efe2c4"/></linearGradient>
    <linearGradient id="robeb" x1="0" y1="0" x2="0" y2="1"><stop offset="0%" stop-color="#2f7d4f"/><stop offset="100%" stop-color="#205737"/></linearGradient>
    <linearGradient id="crownb" x1="0" y1="0" x2="0" y2="1"><stop offset="0%" stop-color="#f4dd77"/><stop offset="100%" stop-color="#c79a2e"/></linearGradient>
    <linearGradient id="capb" x1="0" y1="0" x2="0" y2="1"><stop offset="0%" stop-color="#82b195"/><stop offset="100%" stop-color="#2f7d4f"/></linearGradient>
    <linearGradient id="horseb" x1="0" y1="0" x2="0" y2="1"><stop offset="0%" stop-color="#efe9dc"/><stop offset="100%" stop-color="#c9c1b0"/></linearGradient></defs>
    <rect x="3" y="3" width="244" height="344" rx="16" fill="url(#parchb)" stroke="#cdbb8e" stroke-width="2"/>
    <rect x="12" y="12" width="226" height="326" rx="11" fill="none" stroke="#2f7d4f" stroke-width="2.4" opacity="0.9"/>
    <rect x="17" y="17" width="216" height="316" rx="8" fill="none" stroke="#2f7d4f" stroke-width="1" opacity="0.5"/>
    <g fill="#2f7d4f">
      <circle cx="12" cy="12" r="3.2"/><circle cx="238" cy="12" r="3.2"/>
      <circle cx="12" cy="338" r="3.2"/><circle cx="238" cy="338" r="3.2"/>
    </g>
    <g transform="translate(184 150) scale(0.5)"><g>
      <path d="M-9,-50 Q-15,-46 -13,-30 L-7,38 Q-9,52 0,54 Q9,52 7,38 L13,-30 Q15,-46 9,-50 Q0,-56 -9,-50 Z"
            fill="url(#woodbh)" stroke="#5a3a18" stroke-width="2"/>
      <path d="M11,-22 Q25,-30 30,-18 Q21,-19 13,-9 Z" fill="url(#woodbh)" stroke="#5a3a18" stroke-width="1.6"/>
      <ellipse cx="28" cy="-20" rx="3.4" ry="2.6" fill="#caa066"/>
      <path d="M-12,0 Q-27,-3 -32,10 Q-22,7 -11,13 Z" fill="url(#woodbh)" stroke="#5a3a18" stroke-width="1.6"/>
      <ellipse cx="-30" cy="9" rx="3.4" ry="2.6" fill="#caa066"/>
      <g fill="#6a4420"><ellipse cx="-1" cy="-34" rx="3.6" ry="4.6"/><ellipse cx="4" cy="-6" rx="3.6" ry="4.6"/><ellipse cx="-4" cy="22" rx="3.6" ry="4.6"/></g>
      <path d="M-4,-48 Q-6,-20 -2,40" fill="none" stroke="#caa066" stroke-width="1.6" opacity="0.55"/>
    </g></g>
    <path d="M108,232 L104,288 L120,288 L122,238 Z" fill="#caa46a" stroke="#00000022" stroke-width="1"/>
    <path d="M128,238 L130,288 L146,288 L142,232 Z" fill="#b9925a" stroke="#00000022" stroke-width="1"/>
    <path d="M100,286 L124,286 L124,294 L96,294 Z" fill="#4a3526"/>
    <path d="M126,286 L148,286 L150,294 L124,294 Z" fill="#3e2c1f"/>
    <path d="M92,238 C88,210 92,182 100,170 L150,170 C158,182 162,210 158,238 Q125,250 92,238 Z" fill="url(#robeb)" stroke="#00000033" stroke-width="1.4"/>
    <rect x="92" y="228" width="66" height="9" rx="3" fill="#7a5a2a"/>
    <rect x="120" y="228" width="10" height="9" rx="2" fill="#e9c34e"/>
    <path d="M125,176 L125,228" stroke="#2f7d4f" stroke-width="1.6" opacity="0.45"/>
    <path d="M98,174 C84,188 82,210 90,232 L102,228 C96,208 100,188 110,180 Z" fill="url(#robeb)" stroke="#00000022" stroke-width="1"/>
    <path d="M152,174 C168,184 176,204 174,150 L160,150 C160,178 150,184 140,180 Z" fill="url(#robeb)" stroke="#00000022" stroke-width="1"/>
    <ellipse cx="94" cy="232" rx="7.5" ry="8.5" fill="#f0c9a0" stroke="#d9a878" stroke-width="1"/>
    <ellipse cx="172" cy="150" rx="8" ry="9" fill="#f0c9a0" stroke="#d9a878" stroke-width="1"/>
    <path d="M100,170 Q125,158 150,170 Q125,180 100,170 Z" fill="#fbf7ee" stroke="#cbb78a" stroke-width="1.1"/>
    <rect x="118" y="152" width="14" height="13" fill="#f0c9a0"/>
    <ellipse cx="125" cy="132" rx="18" ry="21" fill="#f0c9a0" stroke="#d9a878" stroke-width="1"/>
    <path d="M107,128 Q106,150 117,156 Q112,142 112,130 Z" fill="#6e4a26"/>
    <path d="M143,128 Q144,150 133,156 Q138,142 138,130 Z" fill="#6e4a26"/>
    <g fill="#5a4631"><ellipse cx="119" cy="130" rx="2" ry="2.4"/><ellipse cx="131" cy="130" rx="2" ry="2.4"/></g>
    <path d="M125,134 L125,141" stroke="#d9a878" stroke-width="1.4"/>
    <path d="M120,147 Q125,150 130,147" fill="none" stroke="#a8694a" stroke-width="1.5"/>
    <ellipse cx="113" cy="140" rx="3" ry="2" fill="#e7a07e" opacity="0.5"/>
    <ellipse cx="137" cy="140" rx="3" ry="2" fill="#e7a07e" opacity="0.5"/>
    <path d="M104,118 Q108,98 125,98 Q146,98 148,116 Q150,122 142,120 Q125,112 110,120 Q103,123 104,118 Z" fill="url(#capb)" stroke="#00000033" stroke-width="1.2"/>
    <path d="M146,112 Q166,104 170,86 Q158,96 148,104 Z" fill="#e9c34e" stroke="#9a7415" stroke-width="1"/>
    <rect x="106" y="114" width="40" height="6" rx="3" fill="#7a5a2a"/><g transform="translate(30 40)"><text x="0" y="0" font-family="Georgia,serif" font-weight="bold" font-size="30" fill="#2f7d4f" text-anchor="middle">10</text><g transform="translate(0 22)"><g transform="scale(0.22)"><g>
      <path d="M-9,-50 Q-15,-46 -13,-30 L-7,38 Q-9,52 0,54 Q9,52 7,38 L13,-30 Q15,-46 9,-50 Q0,-56 -9,-50 Z"
            fill="url(#woodbi)" stroke="#5a3a18" stroke-width="2"/>
      <path d="M11,-22 Q25,-30 30,-18 Q21,-19 13,-9 Z" fill="url(#woodbi)" stroke="#5a3a18" stroke-width="1.6"/>
      <ellipse cx="28" cy="-20" rx="3.4" ry="2.6" fill="#caa066"/>
      <path d="M-12,0 Q-27,-3 -32,10 Q-22,7 -11,13 Z" fill="url(#woodbi)" stroke="#5a3a18" stroke-width="1.6"/>
      <ellipse cx="-30" cy="9" rx="3.4" ry="2.6" fill="#caa066"/>
      <g fill="#6a4420"><ellipse cx="-1" cy="-34" rx="3.6" ry="4.6"/><ellipse cx="4" cy="-6" rx="3.6" ry="4.6"/><ellipse cx="-4" cy="22" rx="3.6" ry="4.6"/></g>
      <path d="M-4,-48 Q-6,-20 -2,40" fill="none" stroke="#caa066" stroke-width="1.6" opacity="0.55"/>
    </g></g></g></g><g transform="translate(220 310) rotate(180)"><text x="0" y="0" font-family="Georgia,serif" font-weight="bold" font-size="30" fill="#2f7d4f" text-anchor="middle">10</text><g transform="translate(0 22)"><g transform="scale(0.22)"><g>
      <path d="M-9,-50 Q-15,-46 -13,-30 L-7,38 Q-9,52 0,54 Q9,52 7,38 L13,-30 Q15,-46 9,-50 Q0,-56 -9,-50 Z"
            fill="url(#woodbi)" stroke="#5a3a18" stroke-width="2"/>
      <path d="M11,-22 Q25,-30 30,-18 Q21,-19 13,-9 Z" fill="url(#woodbi)" stroke="#5a3a18" stroke-width="1.6"/>
      <ellipse cx="28" cy="-20" rx="3.4" ry="2.6" fill="#caa066"/>
      <path d="M-12,0 Q-27,-3 -32,10 Q-22,7 -11,13 Z" fill="url(#woodbi)" stroke="#5a3a18" stroke-width="1.6"/>
      <ellipse cx="-30" cy="9" rx="3.4" ry="2.6" fill="#caa066"/>
      <g fill="#6a4420"><ellipse cx="-1" cy="-34" rx="3.6" ry="4.6"/><ellipse cx="4" cy="-6" rx="3.6" ry="4.6"/><ellipse cx="-4" cy="22" rx="3.6" ry="4.6"/></g>
      <path d="M-4,-48 Q-6,-20 -2,40" fill="none" stroke="#caa066" stroke-width="1.6" opacity="0.55"/>
    </g></g></g></g></svg>