<svg xmlns="http://www.w3.org/2000/svg" width="250" height="350" viewBox="0 0 250 350"><defs>
    <linearGradient id="parch" x1="0" y1="0" x2="0.3" y2="1"><stop offset="0%" stop-color="#fbf5e3"/><stop offset="100%" stop-color="#efe2c4"/></linearGradient>
    <radialGradient id="parchGlow" cx="50%" cy="42%" r="70%"><stop offset="0%" stop-color="#fffdf3" stop-opacity="0.6"/><stop offset="100%" stop-color="#fffdf3" stop-opacity="0"/></radialGradient>
    <radialGradient id="oroGradc" cx="40%" cy="35%" r="75%"><stop offset="0%" stop-color="#fdeaa0"/><stop offset="55%" stop-color="#e9c34e"/><stop offset="100%" stop-color="#c2941f"/></radialGradient>
    <radialGradient id="oroCorec" cx="40%" cy="35%" r="80%"><stop offset="0%" stop-color="#fdeaa0"/><stop offset="100%" stop-color="#d9ad33"/></radialGradient>
    <linearGradient id="copaBowlc" x1="0" y1="0" x2="0" y2="1"><stop offset="0%" stop-color="#f0c45e"/><stop offset="100%" stop-color="#c2901f"/></linearGradient>
    <linearGradient id="copaStemc" x1="0" y1="0" x2="1" y2="0"><stop offset="0%" stop-color="#ecc25a"/><stop offset="100%" stop-color="#b8881c"/></linearGradient>
    <linearGradient id="copaFootc" x1="0" y1="0" x2="0" y2="1"><stop offset="0%" stop-color="#f0c45e"/><stop offset="100%" stop-color="#b8881c"/></linearGradient>
    <linearGradient id="bladec" x1="0" y1="0" x2="1" y2="0"><stop offset="0%" stop-color="#9fb2c4"/><stop offset="50%" stop-color="#e8eef4"/><stop offset="100%" stop-color="#7f93a6"/></linearGradient>
    <linearGradient id="guardc" x1="0" y1="0" x2="0" y2="1"><stop offset="0%" stop-color="#f0d36a"/><stop offset="100%" stop-color="#b8881c"/></linearGradient>
    <linearGradient id="gripc" x1="0" y1="0" x2="1" y2="0"><stop offset="0%" stop-color="#6a4a24"/><stop offset="100%" stop-color="#3a260f"/></linearGradient>
    <radialGradient id="pommelc" cx="40%" cy="35%" r="75%"><stop offset="0%" stop-color="#f0d36a"/><stop offset="100%" stop-color="#b8881c"/></radialGradient>
    <linearGradient id="woodc" x1="0" y1="0" x2="1" y2="0"><stop offset="0%" stop-color="#b98a4e"/><stop offset="45%" stop-color="#9c6b2f"/><stop offset="100%" stop-color="#6e4720"/></linearGradient>
    <radialGradient id="oroGradci" cx="40%" cy="35%" r="75%"><stop offset="0%" stop-color="#fdeaa0"/><stop offset="55%" stop-color="#e9c34e"/><stop offset="100%" stop-color="#c2941f"/></radialGradient>
    <radialGradient id="oroCoreci" cx="40%" cy="35%" r="80%"><stop offset="0%" stop-color="#fdeaa0"/><stop offset="100%" stop-color="#d9ad33"/></radialGradient>
    <linearGradient id="copaBowlci" x1="0" y1="0" x2="0" y2="1"><stop offset="0%" stop-color="#f0c45e"/><stop offset="100%" stop-color="#c2901f"/></linearGradient>
    <linearGradient id="copaStemci" x1="0" y1="0" x2="1" y2="0"><stop offset="0%" stop-color="#ecc25a"/><stop offset="100%" stop-color="#b8881c"/></linearGradient>
    <linearGradient id="copaFootci" x1="0" y1="0" x2="0" y2="1"><stop offset="0%" stop-color="#f0c45e"/><stop offset="100%" stop-color="#b8881c"/></linearGradient>
    <linearGradient id="bladeci" x1="0" y1="0" x2="1" y2="0"><stop offset="0%" stop-color="#9fb2c4"/><stop offset="50%" stop-color="#e8eef4"/><stop offset="100%" stop-color="#7f93a6"/></linearGradient>
    <linearGradient id="guardci" x1="0" y1="0" x2="0" y2="1"><stop offset="0%" stop-color="#f0d36a"/><stop offset="100%" stop-color="#b8881c"/></linearGradient>
    <linearGradient id="gripci" x1="0" y1="0" x2="1" y2="0"><stop offset="0%" stop-color="#6a4a24"/><stop offset="100%" stop-color="#3a260f"/></linearGradient>
    <radialGradient id="pommelci" cx="40%" cy="35%" r="75%"><stop offset="0%" stop-color="#f0d36a"/><stop offset="100%" stop-color="#b8881c"/></radialGradient>
    <linearGradient id="woodci" x1="0" y1="0" x2="1" y2="0"><stop offset="0%" stop-color="#b98a4e"/><stop offset="45%" stop-color="#9c6b2f"/><stop offset="100%" stop-color="#6e4720"/></linearGradient>
    <radialGradient id="oroGradch" cx="40%" cy="35%" r="75%"><stop offset="0%" stop-color="#fdeaa0"/><stop offset="55%" stop-color="#e9c34e"/><stop offset="100%" stop-color="#c2941f"/></radialGradient>
    <radialGradient id="oroCorech" cx="40%" cy="35%" r="80%"><stop offset="0%" stop-color="#fdeaa0"/><stop offset="100%" stop-color="#d9ad33"/></radialGradient>
    <linearGradient id="copaBowlch" x1="0" y1="0" x2="0" y2="1"><stop offset="0%" stop-color="#f0c45e"/><stop offset="100%" stop-color="#c2901f"/></linearGradient>
    <linearGradient id="copaStemch" x1="0" y1="0" x2="1" y2="0"><stop offset="0%" stop-color="#ecc25a"/><stop offset="100%" stop-color="#b8881c"/></linearGradient>
    <linearGradient id="copaFootch" x1="0" y1="0" x2="0" y2="1"><stop offset="0%" stop-color="#f0c45e"/><stop offset="100%" stop-color="#b8881c"/></linearGradient>
    <linearGradient id="bladech" x1="0" y1="0" x2="1" y2="0"><stop offset="0%" stop-color="#9fb2c4"/><stop offset="50%" stop-color="#e8eef4"/><stop offset="100%" stop-color="#7f93a6"/></linearGradient>
    <linearGradient id="guardch" x1="0" y1="0" x2="0" y2="1"><stop offset="0%" stop-color="#f0d36a"/><stop offset="100%" stop-color="#b8881c"/></linearGradient>
    <linearGradient id="gripch" x1="0" y1="0" x2="1" y2="0"><stop offset="0%" stop-color="#6a4a24"/><stop offset="100%" stop-color="#3a260f"/></linearGradient>
    <radialGradient id="pommelch" cx="40%" cy="35%" r="75%"><stop offset="0%" stop-color="#f0d36a"/><stop offset="100%" stop-color="#b8881c"/></radialGradient>
    <linearGradient id="woodch" x1="0" y1="0" x2="1" y2="0"><stop offset="0%" stop-color="#b98a4e"/><stop offset="45%" stop-color="#9c6b2f"/><stop offset="100%" stop-color="#6e4720"/></linearGradient></defs>
    <rect x="2.5" y="2.5" width="245" height="345" rx="17" fill="url(#parch)" stroke="#cbb98a" stroke-width="2"/>
    <rect x="2.5" y="2.5" width="245" height="345" rx="17" fill="url(#parchGlow)"/>
    <rect x="11" y="11" width="228" height="328" rx="12" fill="none" stroke="#b0271c" stroke-width="2.6"/>
    <rect x="16" y="16" width="218" height="318" rx="8.5" fill="none" stroke="#b0271c" stroke-width="1" opacity="0.5"/>
    <path transform="translate(125.0 19) rotate(45)" d="M-2.6,-2.6 h5.2 v5.2 h-5.2 Z" fill="#b0271c"/><path transform="translate(125.0 331) rotate(45)" d="M-2.6,-2.6 h5.2 v5.2 h-5.2 Z" fill="#b0271c"/>
    <path d="M62,150 Q62,96 125,92 Q188,96 188,150 L188,300 L62,300 Z" fill="#f3ead2" stroke="#a87f1e" stroke-width="2"/><path d="M70,150 Q70,104 125,100 Q180,104 180,150" fill="none" stroke="#e3b53a" stroke-width="2.5"/>
    <path d="M86,300 L92,210 Q98,178 120,170 L130,170 Q152,178 158,210 L164,300 Z" fill="#b0271c" stroke="#2b2117" stroke-width="2"/>
    <g stroke="#2b2117" stroke-width="1" opacity="0.4" fill="none"><path d="M112,184 Q108,242 104,298"/><path d="M138,184 Q142,242 146,298"/><path d="M125,180 L125,298"/></g>
    <rect x="92" y="226" width="66" height="10" rx="3" fill="#e3b53a" stroke="#2b2117" stroke-width="1.3"/>
    <circle cx="125" cy="231" r="4" fill="#bf5249" stroke="#2b2117" stroke-width="1"/>
    <path d="M120,170 Q108,210 96,236 L108,242 Q118,212 130,184 Z" fill="#b0271c" stroke="#2b2117" stroke-width="1.6"/>
    <ellipse cx="100" cy="240" rx="8.5" ry="9.5" fill="#e8b88a" stroke="#2b2117" stroke-width="1.4"/>
    <g transform="translate(96 196) scale(0.6) rotate(8)"><g>
      <ellipse cx="0" cy="50" rx="24" ry="6" fill="#7a4a12" opacity="0.30"/>
      <path d="M-30,-34 Q-30,8 0,16 Q30,8 30,-34 Z" fill="url(#copaBowlch)" stroke="#8a3b22" stroke-width="2"/>
      <path d="M-30,-34 Q0,-22 30,-34 L30,-25 Q0,-13 -30,-25 Z" fill="#b0271c" stroke="#8a3b22" stroke-width="1.4"/>
      <ellipse cx="0" cy="-34" rx="30" ry="8" fill="#ecc25a" stroke="#8a6414" stroke-width="1.5"/>
      <circle cx="0" cy="-44" r="5" fill="#ecc25a" stroke="#8a6414" stroke-width="1.2"/>
      <rect x="-4.5" y="16" width="9" height="20" fill="url(#copaStemch)" stroke="#8a6414" stroke-width="1"/>
      <ellipse cx="0" cy="22" rx="9" ry="4.5" fill="#ecc25a" stroke="#8a6414" stroke-width="1.1"/>
      <path d="M-24,46 Q0,34 24,46 Q0,40 -24,46 Z M-24,46 Q0,52 24,46" fill="url(#copaFootch)" stroke="#8a6414" stroke-width="1.5"/>
    </g></g>
    <path d="M150,176 Q166,188 168,232 Q160,228 150,216 Q150,196 138,184 Z" fill="#b0271c" stroke="#2b2117" stroke-width="1.6"/>
    <ellipse cx="160" cy="230" rx="8" ry="9" fill="#e8b88a" stroke="#2b2117" stroke-width="1.4"/>
    <path d="M104,176 Q125,166 146,176 Q125,184 104,176 Z" fill="#f4efe2" stroke="#2b2117" stroke-width="1.4"/>
    <rect x="117" y="150" width="16" height="20" rx="3" fill="#e8b88a" stroke="#2b2117" stroke-width="1.4"/>
    <path d="M99,122 Q95,148 110,160 Q103,142 104,122 Z" fill="#2b2117"/><path d="M151,122 Q155,148 140,160 Q147,142 146,122 Z" fill="#2b2117"/><ellipse cx="125" cy="126" rx="22" ry="25" fill="#e8b88a" stroke="#2b2117" stroke-width="1.7"/><ellipse cx="104" cy="128" rx="3.4" ry="5" fill="#e8b88a" stroke="#2b2117" stroke-width="1.1"/><ellipse cx="146" cy="128" rx="3.4" ry="5" fill="#e8b88a" stroke="#2b2117" stroke-width="1.1"/><path d="M109,118 Q116,114 122,118" fill="none" stroke="#2b2117" stroke-width="1.6"/><path d="M128,118 Q134,114 141,118" fill="none" stroke="#2b2117" stroke-width="1.6"/><path d="M109,124 Q115,120 121,124 Q115,128 109,124 Z" fill="#fff" stroke="#2b2117" stroke-width="1.1"/><circle cx="115" cy="124" r="2.1" fill="#2b2117"/><path d="M129,124 Q135,120 141,124 Q135,128 129,124 Z" fill="#fff" stroke="#2b2117" stroke-width="1.1"/><circle cx="135" cy="124" r="2.1" fill="#2b2117"/><path d="M125,124 L122,136 Q125,139 128,136" fill="none" stroke="#2b2117" stroke-width="1.4"/><ellipse cx="111" cy="134" rx="3.6" ry="2.4" fill="#b0271c" opacity="0.22"/><ellipse cx="139" cy="134" rx="3.6" ry="2.4" fill="#b0271c" opacity="0.22"/><path d="M118,141 Q125,144 132,141" fill="none" stroke="#9a3b2a" stroke-width="1.6"/>
    <path d="M99,130 Q97,100 125,98 Q153,100 151,130 Q125,118 99,130 Z" fill="#b0271c" stroke="#2b2117" stroke-width="1.7"/><rect x="98" y="126" width="54" height="9" rx="3" fill="#c35d54" stroke="#2b2117" stroke-width="1.3"/><path d="M147,118 Q173,102 179,78 Q165,108 149,112 Z" fill="#e3b53a" stroke="#2b2117" stroke-width="1.2"/><g transform="translate(31 41)"><text x="0" y="0" font-family="Georgia,serif" font-weight="bold" font-size="31" fill="#b0271c" text-anchor="middle">10</text><g transform="translate(0 23)"><g transform="scale(0.21)"><g>
      <ellipse cx="0" cy="50" rx="24" ry="6" fill="#7a4a12" opacity="0.30"/>
      <path d="M-30,-34 Q-30,8 0,16 Q30,8 30,-34 Z" fill="url(#copaBowlci)" stroke="#8a3b22" stroke-width="2"/>
      <path d="M-30,-34 Q0,-22 30,-34 L30,-25 Q0,-13 -30,-25 Z" fill="#b0271c" stroke="#8a3b22" stroke-width="1.4"/>
      <ellipse cx="0" cy="-34" rx="30" ry="8" fill="#ecc25a" stroke="#8a6414" stroke-width="1.5"/>
      <circle cx="0" cy="-44" r="5" fill="#ecc25a" stroke="#8a6414" stroke-width="1.2"/>
      <rect x="-4.5" y="16" width="9" height="20" fill="url(#copaStemci)" stroke="#8a6414" stroke-width="1"/>
      <ellipse cx="0" cy="22" rx="9" ry="4.5" fill="#ecc25a" stroke="#8a6414" stroke-width="1.1"/>
      <path d="M-24,46 Q0,34 24,46 Q0,40 -24,46 Z M-24,46 Q0,52 24,46" fill="url(#copaFootci)" stroke="#8a6414" stroke-width="1.5"/>
    </g></g></g></g><g transform="translate(219 309) rotate(180)"><text x="0" y="0" font-family="Georgia,serif" font-weight="bold" font-size="31" fill="#b0271c" text-anchor="middle">10</text><g transform="translate(0 23)"><g transform="scale(0.21)"><g>
      <ellipse cx="0" cy="50" rx="24" ry="6" fill="#7a4a12" opacity="0.30"/>
      <path d="M-30,-34 Q-30,8 0,16 Q30,8 30,-34 Z" fill="url(#copaBowlci)" stroke="#8a3b22" stroke-width="2"/>
      <path d="M-30,-34 Q0,-22 30,-34 L30,-25 Q0,-13 -30,-25 Z" fill="#b0271c" stroke="#8a3b22" stroke-width="1.4"/>
      <ellipse cx="0" cy="-34" rx="30" ry="8" fill="#ecc25a" stroke="#8a6414" stroke-width="1.5"/>
      <circle cx="0" cy="-44" r="5" fill="#ecc25a" stroke="#8a6414" stroke-width="1.2"/>
      <rect x="-4.5" y="16" width="9" height="20" fill="url(#copaStemci)" stroke="#8a6414" stroke-width="1"/>
      <ellipse cx="0" cy="22" rx="9" ry="4.5" fill="#ecc25a" stroke="#8a6414" stroke-width="1.1"/>
      <path d="M-24,46 Q0,34 24,46 Q0,40 -24,46 Z M-24,46 Q0,52 24,46" fill="url(#copaFootci)" stroke="#8a6414" stroke-width="1.5"/>
    </g></g></g></g></svg>