<svg xmlns="http://www.w3.org/2000/svg" width="250" height="350" viewBox="0 0 250 350"><rect x="3" y="3" width="244" height="344" rx="16" fill="#ffffff" stroke="#d9dde3" stroke-width="2"/><g transform="translate(73.0 62.0) scale(1.180)"><g fill="#23272e"><circle cx="0" cy="-9" r="9"/><circle cx="-10" cy="6" r="9"/><circle cx="10" cy="6" r="9"/><path d="M-3,4 C-3,14 -6,22 -9,27 L9,27 C6,22 3,14 3,4 Z"/></g></g><g transform="translate(177.0 62.0) scale(1.180)"><g fill="#23272e"><circle cx="0" cy="-9" r="9"/><circle cx="-10" cy="6" r="9"/><circle cx="10" cy="6" r="9"/><path d="M-3,4 C-3,14 -6,22 -9,27 L9,27 C6,22 3,14 3,4 Z"/></g></g><g transform="translate(73.0 294.0) scale(1.180) rotate(180)"><g fill="#23272e"><circle cx="0" cy="-9" r="9"/><circle cx="-10" cy="6" r="9"/><circle cx="10" cy="6" r="9"/><path d="M-3,4 C-3,14 -6,22 -9,27 L9,27 C6,22 3,14 3,4 Z"/></g></g><g transform="translate(177.0 294.0) scale(1.180) rotate(180)"><g fill="#23272e"><circle cx="0" cy="-9" r="9"/><circle cx="-10" cy="6" r="9"/><circle cx="10" cy="6" r="9"/><path d="M-3,4 C-3,14 -6,22 -9,27 L9,27 C6,22 3,14 3,4 Z"/></g></g><g transform="translate(27 38)"><text x="0" y="0" font-family="'DejaVu Sans','Helvetica',sans-serif" font-weight="bold" font-size="29" fill="#23272e" text-anchor="middle">4</text><g transform="translate(0 19) scale(0.4)"><g fill="#23272e"><circle cx="0" cy="-9" r="9"/><circle cx="-10" cy="6" r="9"/><circle cx="10" cy="6" r="9"/><path d="M-3,4 C-3,14 -6,22 -9,27 L9,27 C6,22 3,14 3,4 Z"/></g></g></g><g transform="translate(223 312) rotate(180)"><text x="0" y="0" font-family="'DejaVu Sans','Helvetica',sans-serif" font-weight="bold" font-size="29" fill="#23272e" text-anchor="middle">4</text><g transform="translate(0 19) scale(0.4)"><g fill="#23272e"><circle cx="0" cy="-9" r="9"/><circle cx="-10" cy="6" r="9"/><circle cx="10" cy="6" r="9"/><path d="M-3,4 C-3,14 -6,22 -9,27 L9,27 C6,22 3,14 3,4 Z"/></g></g></g></svg>