<svg xmlns="http://www.w3.org/2000/svg" width="250" height="350" viewBox="0 0 250 350"><rect x="3" y="3" width="244" height="344" rx="16" fill="#ffffff" stroke="#d9dde3" stroke-width="2"/><g transform="translate(73.0 62.0) scale(1.180)"><g fill="#c4302b"><path d="M0,26 C-3,20 -19,9 -19,-6 C-19,-15 -12,-19 -6,-19 C-2,-19 0,-16 0,-13 C0,-16 2,-19 6,-19 C12,-19 19,-15 19,-6 C19,9 3,20 0,26 Z"/></g></g><g transform="translate(177.0 62.0) scale(1.180)"><g fill="#c4302b"><path d="M0,26 C-3,20 -19,9 -19,-6 C-19,-15 -12,-19 -6,-19 C-2,-19 0,-16 0,-13 C0,-16 2,-19 6,-19 C12,-19 19,-15 19,-6 C19,9 3,20 0,26 Z"/></g></g><g transform="translate(73.0 294.0) scale(1.180) rotate(180)"><g fill="#c4302b"><path d="M0,26 C-3,20 -19,9 -19,-6 C-19,-15 -12,-19 -6,-19 C-2,-19 0,-16 0,-13 C0,-16 2,-19 6,-19 C12,-19 19,-15 19,-6 C19,9 3,20 0,26 Z"/></g></g><g transform="translate(177.0 294.0) scale(1.180) rotate(180)"><g fill="#c4302b"><path d="M0,26 C-3,20 -19,9 -19,-6 C-19,-15 -12,-19 -6,-19 C-2,-19 0,-16 0,-13 C0,-16 2,-19 6,-19 C12,-19 19,-15 19,-6 C19,9 3,20 0,26 Z"/></g></g><g transform="translate(27 38)"><text x="0" y="0" font-family="'DejaVu Sans','Helvetica',sans-serif" font-weight="bold" font-size="29" fill="#c4302b" text-anchor="middle">4</text><g transform="translate(0 19) scale(0.4)"><g fill="#c4302b"><path d="M0,26 C-3,20 -19,9 -19,-6 C-19,-15 -12,-19 -6,-19 C-2,-19 0,-16 0,-13 C0,-16 2,-19 6,-19 C12,-19 19,-15 19,-6 C19,9 3,20 0,26 Z"/></g></g></g><g transform="translate(223 312) rotate(180)"><text x="0" y="0" font-family="'DejaVu Sans','Helvetica',sans-serif" font-weight="bold" font-size="29" fill="#c4302b" text-anchor="middle">4</text><g transform="translate(0 19) scale(0.4)"><g fill="#c4302b"><path d="M0,26 C-3,20 -19,9 -19,-6 C-19,-15 -12,-19 -6,-19 C-2,-19 0,-16 0,-13 C0,-16 2,-19 6,-19 C12,-19 19,-15 19,-6 C19,9 3,20 0,26 Z"/></g></g></g></svg>