<svg xmlns="http://www.w3.org/2000/svg" width="250" height="350" viewBox="0 0 250 350"><rect x="3" y="3" width="244" height="344" rx="16" fill="#ffffff" stroke="#d9dde3" stroke-width="2"/>
    <path d="M86,300 L92,210 Q98,178 120,170 L130,170 Q152,178 158,210 L164,300 Z" fill="#2f5b9c" stroke="#2b2117" stroke-width="2"/>
    <g stroke="#2b2117" stroke-width="1" opacity="0.4" fill="none"><path d="M112,184 Q108,242 104,298"/><path d="M138,184 Q142,242 146,298"/><path d="M125,180 L125,298"/></g>
    <rect x="92" y="226" width="66" height="10" rx="3" fill="#e3b53a" stroke="#2b2117" stroke-width="1.3"/>
    <path d="M120,170 Q108,210 96,236 L108,242 Q118,212 130,184 Z" fill="#2f5b9c" stroke="#2b2117" stroke-width="1.6"/>
    <ellipse cx="100" cy="240" rx="8.5" ry="9.5" fill="#e8b88a" stroke="#2b2117" stroke-width="1.4"/>
    <g transform="translate(98 208) scale(1.3) rotate(8)"><g fill="#23272e"><path d="M0,-18 C7,-7 20,-2 20,9 C20,17 13,21 7,19 C4,18 2,16 1,14 C2,20 4,24 8,27 L-8,27 C-4,24 -2,20 -1,14 C-2,16 -4,18 -7,19 C-13,21 -20,17 -20,9 C-20,-2 -7,-7 0,-18 Z"/></g></g>
    <path d="M150,176 Q166,188 168,232 Q160,228 150,216 Q150,196 138,184 Z" fill="#2f5b9c" stroke="#2b2117" stroke-width="1.6"/>
    <ellipse cx="160" cy="230" rx="8" ry="9" fill="#e8b88a" stroke="#2b2117" stroke-width="1.4"/>
    <path d="M104,176 Q125,166 146,176 Q125,184 104,176 Z" fill="#f4efe2" stroke="#2b2117" stroke-width="1.4"/>
    <rect x="117" y="150" width="16" height="20" rx="3" fill="#e8b88a" stroke="#2b2117" stroke-width="1.4"/>
    <path d="M99,122 Q95,148 110,160 Q103,142 104,122 Z" fill="#2b2117"/><path d="M151,122 Q155,148 140,160 Q147,142 146,122 Z" fill="#2b2117"/><ellipse cx="125" cy="126" rx="22" ry="25" fill="#e8b88a" stroke="#2b2117" stroke-width="1.7"/><ellipse cx="104" cy="128" rx="3.4" ry="5" fill="#e8b88a" stroke="#2b2117" stroke-width="1.1"/><ellipse cx="146" cy="128" rx="3.4" ry="5" fill="#e8b88a" stroke="#2b2117" stroke-width="1.1"/><path d="M109,118 Q116,114 122,118" fill="none" stroke="#2b2117" stroke-width="1.6"/><path d="M128,118 Q134,114 141,118" fill="none" stroke="#2b2117" stroke-width="1.6"/><path d="M109,124 Q115,120 121,124 Q115,128 109,124 Z" fill="#fff" stroke="#2b2117" stroke-width="1.1"/><circle cx="115" cy="124" r="2.1" fill="#2b2117"/><path d="M129,124 Q135,120 141,124 Q135,128 129,124 Z" fill="#fff" stroke="#2b2117" stroke-width="1.1"/><circle cx="135" cy="124" r="2.1" fill="#2b2117"/><path d="M125,124 L122,136 Q125,139 128,136" fill="none" stroke="#2b2117" stroke-width="1.4"/><ellipse cx="111" cy="134" rx="3.6" ry="2.4" fill="#b0271c" opacity="0.22"/><ellipse cx="139" cy="134" rx="3.6" ry="2.4" fill="#b0271c" opacity="0.22"/><path d="M118,141 Q125,144 132,141" fill="none" stroke="#9a3b2a" stroke-width="1.6"/><path d="M99,130 Q97,100 125,98 Q153,100 151,130 Q125,118 99,130 Z" fill="#2f5b9c" stroke="#2b2117" stroke-width="1.7"/><rect x="98" y="126" width="54" height="9" rx="3" fill="#6384b4" stroke="#2b2117" stroke-width="1.3"/><path d="M147,118 Q173,102 179,78 Q165,108 149,112 Z" fill="#e3b53a" stroke="#2b2117" stroke-width="1.2"/><g transform="translate(27 38)"><text x="0" y="0" font-family="'DejaVu Sans','Helvetica',sans-serif" font-weight="bold" font-size="29" fill="#23272e" text-anchor="middle">J</text><g transform="translate(0 19) scale(0.4)"><g fill="#23272e"><path d="M0,-18 C7,-7 20,-2 20,9 C20,17 13,21 7,19 C4,18 2,16 1,14 C2,20 4,24 8,27 L-8,27 C-4,24 -2,20 -1,14 C-2,16 -4,18 -7,19 C-13,21 -20,17 -20,9 C-20,-2 -7,-7 0,-18 Z"/></g></g></g><g transform="translate(223 312) rotate(180)"><text x="0" y="0" font-family="'DejaVu Sans','Helvetica',sans-serif" font-weight="bold" font-size="29" fill="#23272e" text-anchor="middle">J</text><g transform="translate(0 19) scale(0.4)"><g fill="#23272e"><path d="M0,-18 C7,-7 20,-2 20,9 C20,17 13,21 7,19 C4,18 2,16 1,14 C2,20 4,24 8,27 L-8,27 C-4,24 -2,20 -1,14 C-2,16 -4,18 -7,19 C-13,21 -20,17 -20,9 C-20,-2 -7,-7 0,-18 Z"/></g></g></g></svg>