<svg xmlns="http://www.w3.org/2000/svg" width="250" height="350" viewBox="0 0 250 350"><rect x="3" y="3" width="244" height="344" rx="16" fill="#ffffff" stroke="#d9dde3" stroke-width="2"/>
    
    <path d="M70,300 L74,210 Q80,176 104,166 L146,166 Q170,176 176,210 L180,300 Z"
          fill="#b0271c" stroke="#2b2117" stroke-width="2"/>
    <g stroke="#2b2117" stroke-width="1" opacity="0.4" fill="none">
      <path d="M104,182 Q100,242 96,298"/><path d="M125,178 L125,298"/><path d="M146,182 Q150,242 154,298"/>
      <path d="M86,212 Q84,256 82,298"/><path d="M164,212 Q166,256 168,298"/>
    </g><path d="M116,168 L134,168 L138,300 L112,300 Z" fill="#f4efe2" stroke="#2b2117" stroke-width="1.4"/><g transform="translate(122 196)"><path d="M0,0 l3,0 -1.5,4 z" fill="#2b2117"/><circle cx="-2" cy="-1" r="0.8" fill="#2b2117"/><circle cx="5" cy="-1" r="0.8" fill="#2b2117"/></g><g transform="translate(122 222)"><path d="M0,0 l3,0 -1.5,4 z" fill="#2b2117"/><circle cx="-2" cy="-1" r="0.8" fill="#2b2117"/><circle cx="5" cy="-1" r="0.8" fill="#2b2117"/></g><g transform="translate(122 248)"><path d="M0,0 l3,0 -1.5,4 z" fill="#2b2117"/><circle cx="-2" cy="-1" r="0.8" fill="#2b2117"/><circle cx="5" cy="-1" r="0.8" fill="#2b2117"/></g><g transform="translate(122 274)"><path d="M0,0 l3,0 -1.5,4 z" fill="#2b2117"/><circle cx="-2" cy="-1" r="0.8" fill="#2b2117"/><circle cx="5" cy="-1" r="0.8" fill="#2b2117"/></g><path d="M92,176 Q125,158 158,176 Q150,192 125,186 Q100,192 92,176 Z" fill="#f4efe2" stroke="#2b2117" stroke-width="1.6"/>
    <path d="M74,200 Q60,212 64,250 Q72,246 80,232 Q78,214 90,200 Z" fill="#b0271c" stroke="#2b2117" stroke-width="1.6"/>
    <ellipse cx="68" cy="250" rx="9" ry="10" fill="#e8b88a" stroke="#2b2117" stroke-width="1.4"/>
    <g transform="translate(64 226) scale(1.4) rotate(-10)"><g fill="#c4302b"><path d="M0,26 C-3,20 -19,9 -19,-6 C-19,-15 -12,-19 -6,-19 C-2,-19 0,-16 0,-13 C0,-16 2,-19 6,-19 C12,-19 19,-15 19,-6 C19,9 3,20 0,26 Z"/></g></g>
    <path d="M176,200 Q190,212 186,250 Q178,246 170,232 Q172,214 160,200 Z" fill="#b0271c" stroke="#2b2117" stroke-width="1.6"/>
    <ellipse cx="182" cy="250" rx="9" ry="10" fill="#e8b88a" stroke="#2b2117" stroke-width="1.4"/>
    <circle cx="186" cy="238" r="9" fill="#e3b53a" stroke="#2b2117" stroke-width="1.4"/>
    <path d="M186,229 L186,247 M177,238 L195,238" stroke="#a87f1e" stroke-width="1.4"/>
    <rect x="116" y="146" width="18" height="22" rx="3" fill="#e8b88a" stroke="#2b2117" stroke-width="1.4"/>
    <path d="M99,116 Q95,142 110,154 Q103,136 104,116 Z" fill="#2b2117"/><path d="M151,116 Q155,142 140,154 Q147,136 146,116 Z" fill="#2b2117"/><ellipse cx="125" cy="120" rx="22" ry="25" fill="#e8b88a" stroke="#2b2117" stroke-width="1.7"/><ellipse cx="104" cy="122" rx="3.4" ry="5" fill="#e8b88a" stroke="#2b2117" stroke-width="1.1"/><ellipse cx="146" cy="122" rx="3.4" ry="5" fill="#e8b88a" stroke="#2b2117" stroke-width="1.1"/><path d="M109,112 Q116,108 122,112" fill="none" stroke="#2b2117" stroke-width="1.6"/><path d="M128,112 Q134,108 141,112" fill="none" stroke="#2b2117" stroke-width="1.6"/><path d="M109,118 Q115,114 121,118 Q115,122 109,118 Z" fill="#fff" stroke="#2b2117" stroke-width="1.1"/><circle cx="115" cy="118" r="2.1" fill="#2b2117"/><path d="M129,118 Q135,114 141,118 Q135,122 129,118 Z" fill="#fff" stroke="#2b2117" stroke-width="1.1"/><circle cx="135" cy="118" r="2.1" fill="#2b2117"/><path d="M125,118 L122,130 Q125,133 128,130" fill="none" stroke="#2b2117" stroke-width="1.4"/><ellipse cx="111" cy="128" rx="3.6" ry="2.4" fill="#b0271c" opacity="0.22"/><ellipse cx="139" cy="128" rx="3.6" ry="2.4" fill="#b0271c" opacity="0.22"/><path d="M112,134 Q125,139 138,134 Q136,137 125,138 Q114,137 112,134 Z" fill="#2b2117"/><path d="M110,137 Q114,166 125,173 Q136,166 140,137 Q136,150 125,152 Q114,150 110,137 Z" fill="#2b2117"/><path d="M97,104 L102,72 L116,96 L125,66 L134,96 L148,72 L153,104 Z" fill="#e3b53a" stroke="#2b2117" stroke-width="1.8"/><rect x="95" y="100" width="60" height="13" rx="3" fill="#e3b53a" stroke="#2b2117" stroke-width="1.6"/><rect x="121" y="56" width="8" height="12" fill="#e3b53a" stroke="#2b2117" stroke-width="1.2"/><rect x="116" y="60" width="18" height="6" fill="#e3b53a" stroke="#2b2117" stroke-width="1.2"/><g stroke="#2b2117" stroke-width="1"><circle cx="102" cy="72" r="3" fill="#b0271c"/><circle cx="125" cy="70" r="3.2" fill="#2f5b9c"/><circle cx="148" cy="72" r="3" fill="#b0271c"/><circle cx="111" cy="106" r="2.4" fill="#b0271c"/><circle cx="125" cy="106" r="2.6" fill="#2e7d4f"/><circle cx="139" cy="106" r="2.4" fill="#2f5b9c"/></g><g transform="translate(27 38)"><text x="0" y="0" font-family="'DejaVu Sans','Helvetica',sans-serif" font-weight="bold" font-size="29" fill="#c4302b" text-anchor="middle">K</text><g transform="translate(0 19) scale(0.4)"><g fill="#c4302b"><path d="M0,26 C-3,20 -19,9 -19,-6 C-19,-15 -12,-19 -6,-19 C-2,-19 0,-16 0,-13 C0,-16 2,-19 6,-19 C12,-19 19,-15 19,-6 C19,9 3,20 0,26 Z"/></g></g></g><g transform="translate(223 312) rotate(180)"><text x="0" y="0" font-family="'DejaVu Sans','Helvetica',sans-serif" font-weight="bold" font-size="29" fill="#c4302b" text-anchor="middle">K</text><g transform="translate(0 19) scale(0.4)"><g fill="#c4302b"><path d="M0,26 C-3,20 -19,9 -19,-6 C-19,-15 -12,-19 -6,-19 C-2,-19 0,-16 0,-13 C0,-16 2,-19 6,-19 C12,-19 19,-15 19,-6 C19,9 3,20 0,26 Z"/></g></g></g></svg>