<svg xmlns="http://www.w3.org/2000/svg" width="250" height="350" viewBox="0 0 250 350"><rect x="3" y="3" width="244" height="344" rx="16" fill="#ffffff" stroke="#d9dde3" stroke-width="2"/>
    
    <path d="M70,300 L74,210 Q80,176 104,166 L146,166 Q170,176 176,210 L180,300 Z"
          fill="#2f5b9c" stroke="#2b2117" stroke-width="2"/>
    <g stroke="#2b2117" stroke-width="1" opacity="0.4" fill="none">
      <path d="M104,182 Q100,242 96,298"/><path d="M125,178 L125,298"/><path d="M146,182 Q150,242 154,298"/>
      <path d="M86,212 Q84,256 82,298"/><path d="M164,212 Q166,256 168,298"/>
    </g><path d="M116,168 L134,168 L138,300 L112,300 Z" fill="#f4efe2" stroke="#2b2117" stroke-width="1.4"/><g transform="translate(122 196)"><path d="M0,0 l3,0 -1.5,4 z" fill="#2b2117"/><circle cx="-2" cy="-1" r="0.8" fill="#2b2117"/><circle cx="5" cy="-1" r="0.8" fill="#2b2117"/></g><g transform="translate(122 222)"><path d="M0,0 l3,0 -1.5,4 z" fill="#2b2117"/><circle cx="-2" cy="-1" r="0.8" fill="#2b2117"/><circle cx="5" cy="-1" r="0.8" fill="#2b2117"/></g><g transform="translate(122 248)"><path d="M0,0 l3,0 -1.5,4 z" fill="#2b2117"/><circle cx="-2" cy="-1" r="0.8" fill="#2b2117"/><circle cx="5" cy="-1" r="0.8" fill="#2b2117"/></g><g transform="translate(122 274)"><path d="M0,0 l3,0 -1.5,4 z" fill="#2b2117"/><circle cx="-2" cy="-1" r="0.8" fill="#2b2117"/><circle cx="5" cy="-1" r="0.8" fill="#2b2117"/></g><path d="M92,176 Q125,158 158,176 Q150,192 125,186 Q100,192 92,176 Z" fill="#f4efe2" stroke="#2b2117" stroke-width="1.6"/>
    <path d="M74,200 Q60,212 64,250 Q72,246 80,232 Q78,214 90,200 Z" fill="#2f5b9c" stroke="#2b2117" stroke-width="1.6"/>
    <ellipse cx="68" cy="250" rx="9" ry="10" fill="#e8b88a" stroke="#2b2117" stroke-width="1.4"/>
    <line x1="64" y1="250" x2="64" y2="206" stroke="#3f8a4f" stroke-width="3"/>
    <path d="M64,206 Q54,212 58,222 Q64,214 64,224 Q64,214 70,222 Q74,212 64,206 Z" fill="#e3b53a" stroke="#2b2117" stroke-width="1.2"/>
    <path d="M176,200 Q190,212 186,250 Q178,246 170,232 Q172,214 160,200 Z" fill="#2f5b9c" stroke="#2b2117" stroke-width="1.6"/>
    <ellipse cx="182" cy="250" rx="9" ry="10" fill="#e8b88a" stroke="#2b2117" stroke-width="1.4"/>
    <g transform="translate(186 232) scale(1.25) rotate(8)"><g fill="#23272e"><circle cx="0" cy="-9" r="9"/><circle cx="-10" cy="6" r="9"/><circle cx="10" cy="6" r="9"/><path d="M-3,4 C-3,14 -6,22 -9,27 L9,27 C6,22 3,14 3,4 Z"/></g></g>
    <rect x="116" y="148" width="18" height="20" rx="3" fill="#e8b88a" stroke="#2b2117" stroke-width="1.4"/>
    <path d="M99,118 Q95,144 110,156 Q103,138 104,118 Z" fill="#2b2117"/><path d="M151,118 Q155,144 140,156 Q147,138 146,118 Z" fill="#2b2117"/><path d="M103,114 Q125,100 147,114 Q125,106 103,114 Z" fill="#2b2117"/><ellipse cx="125" cy="122" rx="22" ry="25" fill="#e8b88a" stroke="#2b2117" stroke-width="1.7"/><ellipse cx="104" cy="124" rx="3.4" ry="5" fill="#e8b88a" stroke="#2b2117" stroke-width="1.1"/><ellipse cx="146" cy="124" rx="3.4" ry="5" fill="#e8b88a" stroke="#2b2117" stroke-width="1.1"/><path d="M109,114 Q116,110 122,114" fill="none" stroke="#2b2117" stroke-width="1.6"/><path d="M128,114 Q134,110 141,114" fill="none" stroke="#2b2117" stroke-width="1.6"/><path d="M109,120 Q115,116 121,120 Q115,124 109,120 Z" fill="#fff" stroke="#2b2117" stroke-width="1.1"/><circle cx="115" cy="120" r="2.1" fill="#2b2117"/><path d="M129,120 Q135,116 141,120 Q135,124 129,120 Z" fill="#fff" stroke="#2b2117" stroke-width="1.1"/><circle cx="135" cy="120" r="2.1" fill="#2b2117"/><path d="M125,120 L122,132 Q125,135 128,132" fill="none" stroke="#2b2117" stroke-width="1.4"/><ellipse cx="111" cy="130" rx="3.6" ry="2.4" fill="#b0271c" opacity="0.22"/><ellipse cx="139" cy="130" rx="3.6" ry="2.4" fill="#b0271c" opacity="0.22"/><path d="M118,137 Q125,140 132,137" fill="none" stroke="#9a3b2a" stroke-width="1.6"/><path d="M97,114 L102,82 L116,106 L125,76 L134,106 L148,82 L153,114 Z" fill="#e3b53a" stroke="#2b2117" stroke-width="1.8"/><rect x="95" y="110" width="60" height="13" rx="3" fill="#e3b53a" stroke="#2b2117" stroke-width="1.6"/><circle cx="125" cy="76" r="4" fill="#e3b53a" stroke="#2b2117" stroke-width="1.2"/><g stroke="#2b2117" stroke-width="1"><circle cx="102" cy="82" r="3" fill="#b0271c"/><circle cx="125" cy="76" r="3.2" fill="#2f5b9c"/><circle cx="148" cy="82" r="3" fill="#b0271c"/><circle cx="111" cy="116" r="2.4" fill="#b0271c"/><circle cx="125" cy="116" r="2.6" fill="#2e7d4f"/><circle cx="139" cy="116" r="2.4" fill="#2f5b9c"/></g><g transform="translate(27 38)"><text x="0" y="0" font-family="'DejaVu Sans','Helvetica',sans-serif" font-weight="bold" font-size="29" fill="#23272e" text-anchor="middle">Q</text><g transform="translate(0 19) scale(0.4)"><g fill="#23272e"><circle cx="0" cy="-9" r="9"/><circle cx="-10" cy="6" r="9"/><circle cx="10" cy="6" r="9"/><path d="M-3,4 C-3,14 -6,22 -9,27 L9,27 C6,22 3,14 3,4 Z"/></g></g></g><g transform="translate(223 312) rotate(180)"><text x="0" y="0" font-family="'DejaVu Sans','Helvetica',sans-serif" font-weight="bold" font-size="29" fill="#23272e" text-anchor="middle">Q</text><g transform="translate(0 19) scale(0.4)"><g fill="#23272e"><circle cx="0" cy="-9" r="9"/><circle cx="-10" cy="6" r="9"/><circle cx="10" cy="6" r="9"/><path d="M-3,4 C-3,14 -6,22 -9,27 L9,27 C6,22 3,14 3,4 Z"/></g></g></g></svg>