<?xml version="1.0" encoding="utf-8" ?>
<svg baseProfile="full" height="350" version="1.1" width="250" xmlns="http://www.w3.org/2000/svg" xmlns:ev="http://www.w3.org/2001/xml-events" xmlns:xlink="http://www.w3.org/1999/xlink"><defs><pattern height="20.0" id="dotted_hatch" patternUnits="userSpaceOnUse" width="20.0" x="25" y="25"><line stroke="#000000" stroke-width="3" x1="0" x2="20.0" y1="0" y2="20.0" /><line stroke="#000000" stroke-width="3" x1="20.0" x2="0" y1="0" y2="20.0" /><line stroke="#000000" stroke-width="0.5" x1="10.0" x2="20.0" y1="0" y2="10.0" /><line stroke="#000000" stroke-width="0.5" x1="20.0" x2="10.0" y1="10.0" y2="20.0" /><line stroke="#000000" stroke-width="0.5" x1="10.0" x2="0" y1="20.0" y2="10.0" /><line stroke="#000000" stroke-width="0.5" x1="0" x2="10.0" y1="10.0" y2="0" /></pattern><g id="flower"><polygon fill="white" points="18.0,0.0 17.98995177661535,0.31401577631632416 17.95985687785716,0.62717202213643 17.909864271644917,0.9386162137375923 17.840221086176935,1.2475097849237435 17.75127089136476,1.5530349661721405 17.64345131064349,1.8544014574523806 17.51729098079912,2.150852881285831 17.37340588226592,2.44167296431709 17.21249506698944,2.7261913977739645 17.035335815389587,3.0037893296824216 16.842778258159665,3.2739044445591188 16.635739502569507,3.536035589504338 16.415197306575035,3.7897469091381937 16.18218334734454,4.034671455635592 15.937776133769628,4.270514244191592 15.683093615113465,4.497054728557208 15.419285540141775,4.714148675793213 15.147525622866013,4.92172942406179 14.869003572390808,5.119808512076832 14.584917045288233,5.308475673726685 14.296463579413563,5.487898196330554 14.004832568127009,5.658319645953642 13.903948270079704,5.9018758865299334 13.98965637307659,6.228596314903074 14.066752892422537,6.559434599110606 14.134224572790675,6.893721938258402 14.191106337044992,7.230729835206086 14.236487862660892,7.569674870310963 14.26951973916001,7.909723951300348 14.289419162443238,8.249999999999998 14.295475125451077,8.589588033171625 14.287053068426731,8.92754159156198 14.26359895617531,9.262889468464332 14.22464275407058,9.594642686661517 14.169801279126276,9.921801670577805 14.098780407186634,10.243363558829827 14.01137662216496,10.558329601148014 13.907477898232841,10.865712582849168 13.787063910897487,11.164544219683894 13.650205577963531,11.453882465963249 13.497063936419096,11.732818679386792 13.327888366276282,12.000484586945294 13.143014177295802,12.256058997649502 12.942859579296522,12.49877420963086 12.727922061357857,12.727922061357857 12.498774209630861,12.94285957929652 12.256058997649502,13.1430141772958 12.000484586945294,13.32788836627628 11.732818679386794,13.497063936419096 11.453882465963252,13.650205577963535 11.164544219683895,13.787063910897484 10.865712582849172,13.907477898232843 10.558329601148015,14.01137662216496 10.243363558829827,14.098780407186634 9.921801670577805,14.169801279126276 9.594642686661514,14.224642754070576 9.262889468464333,14.263598956175308 8.92754159156198,14.287053068426733 8.589588033171626,14.295475125451075 8.250000000000002,14.289419162443236 7.909723951300349,14.26951973916001 7.569674870310964,14.23648786266089 7.230729835206088,14.191106337044992 6.893721938258403,14.134224572790675 6.559434599110606,14.066752892422537 6.228596314903075,13.98965637307659 5.901875886529938,13.903948270079706 5.658319645953641,14.004832568127009 5.487898196330556,14.296463579413563 5.3084756737266865,14.584917045288229 5.119808512076833,14.869003572390804 4.92172942406179,15.147525622866011 4.714148675793213,15.419285540141775 4.497054728557208,15.683093615113465 4.270514244191592,15.937776133769628 4.034671455635594,16.182183347344537 3.789746909138193,16.415197306575035 3.53603558950434,16.635739502569503 3.273904444559121,16.842778258159665 3.0037893296824234,17.035335815389587 2.7261913977739654,17.21249506698944 2.4416729643170942,17.37340588226592 2.1508528812858314,17.51729098079912 1.8544014574523806,17.64345131064349 1.55303496617214,17.75127089136476 1.2475097849237464,17.840221086176935 0.9386162137375947,17.909864271644917 0.6271720221364318,17.959856877857156 0.3140157763163217,17.98995177661535 1.102182119232618e-15,18.0 -0.31401577631632355,17.98995177661535 -0.6271720221364256,17.95985687785716 -0.9386162137375885,17.909864271644917 -1.2475097849237442,17.840221086176935 -1.5530349661721414,17.751270891364758 -1.8544014574523784,17.64345131064349 -2.150852881285829,17.517290980799125 -2.441672964317089,17.373405882265924 -2.726191397773967,17.21249506698944 -3.003789329682422,17.03533581538959 -3.2739044445591188,16.842778258159665 -3.536035589504335,16.63573950256951 -3.789746909138191,16.415197306575035 -4.034671455635593,16.18218334734454 -4.270514244191594,15.937776133769628 -4.497054728557207,15.683093615113469 -4.714148675793211,15.419285540141777 -4.921729424061789,15.147525622866015 -5.11980851207683,14.86900357239081 -5.308475673726685,14.584917045288233 -5.487898196330555,14.296463579413565 -5.658319645953642,14.004832568127007 -5.901875886529931,13.903948270079702 -6.228596314903074,13.989656373076592 -6.559434599110604,14.066752892422539 -6.8937219382584045,14.134224572790675 -7.230729835206086,14.191106337044992 -7.569674870310957,14.23648786266089 -7.909723951300346,14.269519739160009 -8.249999999999995,14.289419162443236 -8.589588033171626,14.295475125451077 -8.927541591561978,14.287053068426733 -9.262889468464332,14.26359895617531 -9.594642686661512,14.224642754070576 -9.921801670577802,14.169801279126279 -10.243363558829826,14.098780407186634 -10.558329601148017,14.01137662216496 -10.865712582849172,13.907477898232843 -11.164544219683892,13.787063910897489 -11.453882465963252,13.650205577963535 -11.7328186793868,13.497063936419092 -12.000484586945294,13.327888366276282 -12.2560589976495,13.143014177295802 -12.498774209630854,12.942859579296526 -12.727922061357855,12.727922061357857 -12.942859579296524,12.498774209630858 -13.143014177295802,12.256058997649504 -13.32788836627628,12.000484586945296 -13.497063936419096,11.732818679386794 -13.650205577963533,11.453882465963254 -13.787063910897482,11.164544219683899 -13.907477898232841,10.865712582849174 -14.011376622164962,10.55832960114801 -14.098780407186633,10.243363558829829 -14.169801279126274,9.921801670577812 -14.224642754070578,9.594642686661517 -14.263598956175311,9.262889468464328 -14.287053068426731,8.92754159156198 -14.295475125451075,8.589588033171628 -14.289419162443238,8.249999999999998 -14.26951973916001,7.90972395130035 -14.23648786266089,7.569674870310969 -14.191106337044992,7.2307298352060885 -14.134224572790673,6.8937219382584 -14.066752892422539,6.559434599110608 -13.989656373076592,6.22859631490308 -13.903948270079708,5.901875886529942 -14.004832568127004,5.658319645953644 -14.296463579413565,5.487898196330554 -14.584917045288227,5.3084756737266865 -14.8690035723908,5.119808512076837 -15.147525622866011,4.921729424061791 -15.419285540141772,4.714148675793217 -15.683093615113458,4.497054728557215 -15.937776133769622,4.270514244191596 -16.18218334734454,4.034671455635592 -16.415197306575035,3.7897469091381906 -16.635739502569507,3.536035589504338 -16.842778258159665,3.273904444559122 -17.03533581538959,3.0037893296824216 -17.21249506698944,2.7261913977739662 -17.37340588226592,2.441672964317095 -17.517290980799118,2.150852881285832 -17.64345131064349,1.8544014574523857 -17.751270891364758,1.5530349661721488 -17.840221086176935,1.2475097849237475 -17.909864271644917,0.9386162137375919 -17.95985687785716,0.6271720221364251 -17.98995177661535,0.3140157763163229 -18.0,2.204364238465236e-15 -17.98995177661535,-0.31401577631631844 -17.95985687785716,-0.6271720221364286 -17.909864271644917,-0.9386162137375875 -17.840221086176935,-1.247509784923735 -17.75127089136476,-1.5530349661721365 -17.643451310643492,-1.854401457452374 -17.517290980799118,-2.1508528812858354 -17.37340588226592,-2.4416729643170916 -17.21249506698944,-2.726191397773962 -17.035335815389587,-3.0037893296824243 -16.84277825815967,-3.2739044445591183 -16.63573950256951,-3.5360355895043343 -16.415197306575035,-3.7897469091381932 -16.18218334734454,-4.034671455635587 -15.937776133769633,-4.270514244191586 -15.683093615113469,-4.497054728557206 -15.41928554014178,-4.714148675793208 -15.14752562286601,-4.921729424061794 -14.869003572390804,-5.119808512076833 -14.584917045288233,-5.308475673726684 -14.296463579413563,-5.487898196330557 -14.004832568127009,-5.658319645953642 -13.903948270079702,-5.90187588652993 -13.989656373076592,-6.228596314903068 -14.066752892422537,-6.5594345991106024 -14.134224572790673,-6.893721938258396 -14.191106337044992,-7.230729835206076 -14.23648786266089,-7.569674870310964 -14.269519739160009,-7.909723951300345 -14.289419162443236,-8.250000000000002 -14.295475125451077,-8.589588033171625 -14.287053068426733,-8.927541591561978 -14.26359895617531,-9.262889468464332 -14.224642754070576,-9.594642686661512 -14.169801279126276,-9.9218016705778 -14.098780407186634,-10.243363558829826 -14.011376622164963,-10.558329601148008 -13.907477898232845,-10.865712582849161 -13.787063910897484,-11.164544219683897 -13.650205577963531,-11.453882465963249 -13.497063936419094,-11.732818679386796 -13.327888366276282,-12.000484586945294 -13.143014177295802,-12.2560589976495 -12.94285957929652,-12.49877420963086 -12.727922061357859,-12.727922061357855 -12.498774209630863,-12.942859579296517 -12.256058997649513,-13.143014177295797 -12.0004845869453,-13.327888366276277 -11.732818679386803,-13.49706393641909 -11.453882465963254,-13.650205577963533 -11.164544219683885,-13.787063910897487 -10.865712582849167,-13.907477898232843 -10.558329601148014,-14.01137662216496 -10.243363558829829,-14.098780407186633 -9.921801670577812,-14.169801279126274 -9.594642686661524,-14.224642754070574 -9.26288946846433,-14.263598956175311 -8.927541591561983,-14.287053068426735 -8.589588033171628,-14.295475125451073 -8.250000000000009,-14.289419162443238 -7.909723951300343,-14.269519739160009 -7.569674870310962,-14.236487862660892 -7.230729835206089,-14.191106337044992 -6.89372193825841,-14.134224572790677 -6.559434599110617,-14.066752892422539 -6.228596314903074,-13.989656373076592 -5.901875886529935,-13.903948270079704 -5.658319645953645,-14.004832568127004 -5.487898196330559,-14.296463579413558 -5.308475673726693,-14.58491704528822 -5.119808512076832,-14.869003572390808 -4.921729424061792,-15.14752562286601 -4.714148675793218,-15.41928554014177 -4.497054728557204,-15.68309361511347 -4.27051424419159,-15.937776133769628 -4.034671455635593,-16.18218334734454 -3.7897469091381977,-16.41519730657503 -3.536035589504345,-16.6357395025695 -3.27390444455913,-16.842778258159658 -3.0037893296824225,-17.03533581538959 -2.7261913977739667,-17.212495066989437 -2.441672964317082,-17.373405882265924 -2.1508528812858256,-17.517290980799125 -1.854401457452379,-17.64345131064349 -1.5530349661721419,-17.751270891364758 -1.2475097849237486,-17.840221086176935 -0.9386162137376008,-17.909864271644917 -0.627172022136442,-17.959856877857156 -0.31401577631632394,-17.98995177661535 -3.3065463576978533e-15,-18.0 0.31401577631631733,-17.98995177661535 0.6271720221364354,-17.959856877857156 0.9386162137375944,-17.909864271644917 1.2475097849237422,-17.840221086176935 1.5530349661721357,-17.75127089136476 1.8544014574523726,-17.643451310643492 2.150852881285834,-17.517290980799118 2.4416729643170907,-17.37340588226592 2.726191397773961,-17.21249506698944 3.0037893296824163,-17.03533581538959 3.273904444559111,-16.842778258159672 3.5360355895043267,-16.635739502569514 3.789746909138193,-16.415197306575035 4.0346714556355865,-16.182183347344544 4.270514244191598,-15.937776133769622 4.497054728557211,-15.683093615113464 4.714148675793212,-15.419285540141775 4.921729424061788,-15.147525622866016 5.119808512076828,-14.869003572390813 5.3084756737266785,-14.584917045288238 5.487898196330547,-14.29646357941358 5.658319645953641,-14.004832568127009 5.901875886529928,-13.903948270079702 6.228596314903083,-13.989656373076594 6.55943459911061,-14.066752892422539 6.893721938258402,-14.134224572790675 7.230729835206083,-14.191106337044992 7.569674870310955,-14.23648786266089 7.909723951300336,-14.269519739160009 8.250000000000002,-14.289419162443236 8.589588033171623,-14.295475125451073 8.927541591561974,-14.28705306842673 9.262889468464321,-14.26359895617531 9.594642686661503,-14.22464275407058 9.921801670577805,-14.169801279126276 10.243363558829822,-14.098780407186633 10.558329601148007,-14.011376622164963 10.865712582849175,-13.90747789823284 11.164544219683895,-13.787063910897484 11.453882465963249,-13.650205577963533 11.73281867938679,-13.4970639364191 12.000484586945287,-13.327888366276287 12.256058997649491,-13.14301417729581 12.498774209630847,-12.942859579296533 12.727922061357852,-12.727922061357859 12.942859579296517,-12.498774209630865 13.143014177295804,-12.256058997649498 13.327888366276282,-12.000484586945293 13.497063936419094,-11.732818679386796 13.65020557796353,-11.453882465963256 13.787063910897484,-11.164544219683904 13.90747789823284,-10.865712582849184 14.01137662216496,-10.558329601148014 14.098780407186633,-10.243363558829833 14.169801279126274,-9.921801670577814 14.224642754070576,-9.594642686661528 14.26359895617531,-9.26288946846433 14.287053068426731,-8.927541591562001 14.295475125451077,-8.589588033171632 14.28941916244324,-8.25000000000001 14.269519739160009,-7.909723951300344 14.236487862660892,-7.569674870310963 14.191106337044994,-7.230729835206091 14.134224572790671,-6.893721938258394 14.06675289242254,-6.559434599110618 13.989656373076592,-6.228596314903074 13.903948270079708,-5.901875886529953 14.004832568127004,-5.658319645953645 14.296463579413556,-5.48789819633056 14.584917045288233,-5.308475673726684 14.86900357239079,-5.119808512076842 15.14752562286601,-4.921729424061794 15.419285540141786,-4.714148675793208 15.683093615113458,-4.497054728557217 15.937776133769628,-4.270514244191591 16.182183347344537,-4.034671455635593 16.415197306575028,-3.7897469091381986 16.6357395025695,-3.5360355895043463 16.84277825815967,-3.273904444559117 17.035335815389576,-3.0037893296824367 17.212495066989437,-2.7261913977739676 17.37340588226592,-2.441672964317098 17.517290980799118,-2.1508528812858416 17.64345131064349,-1.85440145745238 17.751270891364758,-1.553034966172143 17.840221086176935,-1.247509784923734 17.909864271644917,-0.938616213737602 17.95985687785716,-0.6271720221364273 17.98995177661535,-0.31401577631634103 18.0,-4.408728476930472e-15" stroke="#000000" stroke-width="0.5" /><line stroke="#000000" stroke-width="0.5" x1="18.0" x2="5.0" y1="0.0" y2="0.0" /><line stroke="#000000" stroke-width="0.5" x1="17.035335815389587" x2="4.92403876506104" y1="3.0037893296824216" y2="0.8682408883346516" /><line stroke="#000000" stroke-width="0.5" x1="14.584917045288233" x2="4.698463103929543" y1="5.308475673726685" y2="1.7101007166283435" /><line stroke="#000000" stroke-width="0.5" x1="14.289419162443238" x2="4.330127018922194" y1="8.249999999999998" y2="2.4999999999999996" /><line stroke="#000000" stroke-width="0.5" x1="13.650205577963531" x2="3.83022221559489" y1="11.453882465963249" y2="3.2139380484326963" /><line stroke="#000000" stroke-width="0.5" x1="11.453882465963252" x2="3.2139380484326967" y1="13.650205577963535" y2="3.83022221559489" /><line stroke="#000000" stroke-width="0.5" x1="8.250000000000002" x2="2.5000000000000004" y1="14.289419162443236" y2="4.330127018922193" /><line stroke="#000000" stroke-width="0.5" x1="5.3084756737266865" x2="1.7101007166283442" y1="14.584917045288229" y2="4.698463103929542" /><line stroke="#000000" stroke-width="0.5" x1="3.0037893296824234" x2="0.8682408883346521" y1="17.035335815389587" y2="4.92403876506104" /><line stroke="#000000" stroke-width="0.5" x1="1.102182119232618e-15" x2="3.061616997868383e-16" y1="18.0" y2="5.0" /><line stroke="#000000" stroke-width="0.5" x1="-3.003789329682422" x2="-0.8682408883346515" y1="17.03533581538959" y2="4.92403876506104" /><line stroke="#000000" stroke-width="0.5" x1="-5.308475673726685" x2="-1.7101007166283435" y1="14.584917045288233" y2="4.698463103929543" /><line stroke="#000000" stroke-width="0.5" x1="-8.249999999999995" x2="-2.499999999999999" y1="14.289419162443236" y2="4.330127018922194" /><line stroke="#000000" stroke-width="0.5" x1="-11.453882465963252" x2="-3.2139380484326967" y1="13.650205577963535" y2="3.83022221559489" /><line stroke="#000000" stroke-width="0.5" x1="-13.650205577963533" x2="-3.8302222155948895" y1="11.453882465963254" y2="3.2139380484326976" /><line stroke="#000000" stroke-width="0.5" x1="-14.289419162443238" x2="-4.330127018922194" y1="8.249999999999998" y2="2.4999999999999996" /><line stroke="#000000" stroke-width="0.5" x1="-14.584917045288227" x2="-4.698463103929542" y1="5.3084756737266865" y2="1.7101007166283444" /><line stroke="#000000" stroke-width="0.5" x1="-17.03533581538959" x2="-4.92403876506104" y1="3.0037893296824216" y2="0.8682408883346514" /><line stroke="#000000" stroke-width="0.5" x1="-18.0" x2="-5.0" y1="2.204364238465236e-15" y2="6.123233995736766e-16" /><line stroke="#000000" stroke-width="0.5" x1="-17.035335815389587" x2="-4.92403876506104" y1="-3.0037893296824243" y2="-0.8682408883346524" /><line stroke="#000000" stroke-width="0.5" x1="-14.584917045288233" x2="-4.698463103929543" y1="-5.308475673726684" y2="-1.7101007166283433" /><line stroke="#000000" stroke-width="0.5" x1="-14.289419162443236" x2="-4.330127018922193" y1="-8.250000000000002" y2="-2.5000000000000004" /><line stroke="#000000" stroke-width="0.5" x1="-13.650205577963531" x2="-3.83022221559489" y1="-11.453882465963249" y2="-3.2139380484326963" /><line stroke="#000000" stroke-width="0.5" x1="-11.453882465963254" x2="-3.2139380484326976" y1="-13.650205577963533" y2="-3.8302222155948895" /><line stroke="#000000" stroke-width="0.5" x1="-8.250000000000009" x2="-2.500000000000002" y1="-14.289419162443238" y2="-4.330127018922193" /><line stroke="#000000" stroke-width="0.5" x1="-5.308475673726693" x2="-1.7101007166283468" y1="-14.58491704528822" y2="-4.698463103929541" /><line stroke="#000000" stroke-width="0.5" x1="-3.0037893296824225" x2="-0.8682408883346516" y1="-17.03533581538959" y2="-4.92403876506104" /><line stroke="#000000" stroke-width="0.5" x1="-3.3065463576978533e-15" x2="-9.184850993605148e-16" y1="-18.0" y2="-5.0" /><line stroke="#000000" stroke-width="0.5" x1="3.0037893296824163" x2="0.8682408883346499" y1="-17.03533581538959" y2="-4.924038765061041" /><line stroke="#000000" stroke-width="0.5" x1="5.3084756737266785" x2="1.7101007166283408" y1="-14.584917045288238" y2="-4.698463103929543" /><line stroke="#000000" stroke-width="0.5" x1="8.250000000000002" x2="2.5000000000000004" y1="-14.289419162443236" y2="-4.330127018922193" /><line stroke="#000000" stroke-width="0.5" x1="11.453882465963249" x2="3.2139380484326963" y1="-13.650205577963533" y2="-3.8302222155948904" /><line stroke="#000000" stroke-width="0.5" x1="13.65020557796353" x2="3.830222215594889" y1="-11.453882465963256" y2="-3.213938048432698" /><line stroke="#000000" stroke-width="0.5" x1="14.28941916244324" x2="4.330127018922192" y1="-8.25000000000001" y2="-2.500000000000002" /><line stroke="#000000" stroke-width="0.5" x1="14.584917045288233" x2="4.698463103929543" y1="-5.308475673726684" y2="-1.710100716628343" /><line stroke="#000000" stroke-width="0.5" x1="17.035335815389576" x2="4.92403876506104" y1="-3.0037893296824367" y2="-0.8682408883346564" /><line stroke="#000000" stroke-width="0.5" x1="18.0" x2="5.0" y1="-4.408728476930472e-15" y2="-1.2246467991473533e-15" /><circle cx="0" cy="0" fill="none" r="5" stroke="#000000" stroke-width="1" /></g></defs><rect fill="#FFFFFF" height="350" rx="10" ry="10" stroke="#000" stroke-width="1" width="250" x="0" y="0" /><rect fill="none" height="320" rx="10" ry="10" stroke="#000000" stroke-width="3" width="220" x="15" y="15" /><rect fill="none" height="310" stroke="#000000" stroke-width="1" width="210" x="20" y="20" /><rect fill="url(#dotted_hatch)" height="300" stroke="#000000" stroke-width="1" width="200" x="25" y="25" /><circle cx="23" cy="18" fill="none" r="1.5" stroke="#000000" stroke-width="0.5" /><circle cx="27" cy="18" fill="none" r="1.5" stroke="#000000" stroke-width="0.5" /><circle cx="31" cy="18" fill="none" r="1.5" stroke="#000000" stroke-width="0.5" /><circle cx="35" cy="18" fill="none" r="1.5" stroke="#000000" stroke-width="0.5" /><circle cx="39" cy="18" fill="none" r="1.5" stroke="#000000" stroke-width="0.5" /><circle cx="43" cy="18" fill="none" r="1.5" stroke="#000000" stroke-width="0.5" /><circle cx="47" cy="18" fill="none" r="1.5" stroke="#000000" stroke-width="0.5" /><circle cx="51" cy="18" fill="none" r="1.5" stroke="#000000" stroke-width="0.5" /><circle cx="55" cy="18" fill="none" r="1.5" stroke="#000000" stroke-width="0.5" /><circle cx="59" cy="18" fill="none" r="1.5" stroke="#000000" stroke-width="0.5" /><circle cx="63" cy="18" fill="none" r="1.5" stroke="#000000" stroke-width="0.5" /><circle cx="67" cy="18" fill="none" r="1.5" stroke="#000000" stroke-width="0.5" /><circle cx="71" cy="18" fill="none" r="1.5" stroke="#000000" stroke-width="0.5" /><circle cx="75" cy="18" fill="none" r="1.5" stroke="#000000" stroke-width="0.5" /><circle cx="79" cy="18" fill="none" r="1.5" stroke="#000000" stroke-width="0.5" /><circle cx="83" cy="18" fill="none" r="1.5" stroke="#000000" stroke-width="0.5" /><circle cx="87" cy="18" fill="none" r="1.5" stroke="#000000" stroke-width="0.5" /><circle cx="91" cy="18" fill="none" r="1.5" stroke="#000000" stroke-width="0.5" /><circle cx="95" cy="18" fill="none" r="1.5" stroke="#000000" stroke-width="0.5" /><circle cx="99" cy="18" fill="none" r="1.5" stroke="#000000" stroke-width="0.5" /><circle cx="103" cy="18" fill="none" r="1.5" stroke="#000000" stroke-width="0.5" /><circle cx="107" cy="18" fill="none" r="1.5" stroke="#000000" stroke-width="0.5" /><circle cx="111" cy="18" fill="none" r="1.5" stroke="#000000" stroke-width="0.5" /><circle cx="115" cy="18" fill="none" r="1.5" stroke="#000000" stroke-width="0.5" /><circle cx="119" cy="18" fill="none" r="1.5" stroke="#000000" stroke-width="0.5" /><circle cx="123" cy="18" fill="none" r="1.5" stroke="#000000" stroke-width="0.5" /><circle cx="127" cy="18" fill="none" r="1.5" stroke="#000000" stroke-width="0.5" /><circle cx="131" cy="18" fill="none" r="1.5" stroke="#000000" stroke-width="0.5" /><circle cx="135" cy="18" fill="none" r="1.5" stroke="#000000" stroke-width="0.5" /><circle cx="139" cy="18" fill="none" r="1.5" stroke="#000000" stroke-width="0.5" /><circle cx="143" cy="18" fill="none" r="1.5" stroke="#000000" stroke-width="0.5" /><circle cx="147" cy="18" fill="none" r="1.5" stroke="#000000" stroke-width="0.5" /><circle cx="151" cy="18" fill="none" r="1.5" stroke="#000000" stroke-width="0.5" /><circle cx="155" cy="18" fill="none" r="1.5" stroke="#000000" stroke-width="0.5" /><circle cx="159" cy="18" fill="none" r="1.5" stroke="#000000" stroke-width="0.5" /><circle cx="163" cy="18" fill="none" r="1.5" stroke="#000000" stroke-width="0.5" /><circle cx="167" cy="18" fill="none" r="1.5" stroke="#000000" stroke-width="0.5" /><circle cx="171" cy="18" fill="none" r="1.5" stroke="#000000" stroke-width="0.5" /><circle cx="175" cy="18" fill="none" r="1.5" stroke="#000000" stroke-width="0.5" /><circle cx="179" cy="18" fill="none" r="1.5" stroke="#000000" stroke-width="0.5" /><circle cx="183" cy="18" fill="none" r="1.5" stroke="#000000" stroke-width="0.5" /><circle cx="187" cy="18" fill="none" r="1.5" stroke="#000000" stroke-width="0.5" /><circle cx="191" cy="18" fill="none" r="1.5" stroke="#000000" stroke-width="0.5" /><circle cx="195" cy="18" fill="none" r="1.5" stroke="#000000" stroke-width="0.5" /><circle cx="199" cy="18" fill="none" r="1.5" stroke="#000000" stroke-width="0.5" /><circle cx="203" cy="18" fill="none" r="1.5" stroke="#000000" stroke-width="0.5" /><circle cx="207" cy="18" fill="none" r="1.5" stroke="#000000" stroke-width="0.5" /><circle cx="211" cy="18" fill="none" r="1.5" stroke="#000000" stroke-width="0.5" /><circle cx="215" cy="18" fill="none" r="1.5" stroke="#000000" stroke-width="0.5" /><circle cx="219" cy="18" fill="none" r="1.5" stroke="#000000" stroke-width="0.5" /><circle cx="223" cy="18" fill="none" r="1.5" stroke="#000000" stroke-width="0.5" /><circle cx="227" cy="18" fill="none" r="1.5" stroke="#000000" stroke-width="0.5" /><circle cx="23" cy="332" fill="none" r="1.5" stroke="#000000" stroke-width="0.5" /><circle cx="27" cy="332" fill="none" r="1.5" stroke="#000000" stroke-width="0.5" /><circle cx="31" cy="332" fill="none" r="1.5" stroke="#000000" stroke-width="0.5" /><circle cx="35" cy="332" fill="none" r="1.5" stroke="#000000" stroke-width="0.5" /><circle cx="39" cy="332" fill="none" r="1.5" stroke="#000000" stroke-width="0.5" /><circle cx="43" cy="332" fill="none" r="1.5" stroke="#000000" stroke-width="0.5" /><circle cx="47" cy="332" fill="none" r="1.5" stroke="#000000" stroke-width="0.5" /><circle cx="51" cy="332" fill="none" r="1.5" stroke="#000000" stroke-width="0.5" /><circle cx="55" cy="332" fill="none" r="1.5" stroke="#000000" stroke-width="0.5" /><circle cx="59" cy="332" fill="none" r="1.5" stroke="#000000" stroke-width="0.5" /><circle cx="63" cy="332" fill="none" r="1.5" stroke="#000000" stroke-width="0.5" /><circle cx="67" cy="332" fill="none" r="1.5" stroke="#000000" stroke-width="0.5" /><circle cx="71" cy="332" fill="none" r="1.5" stroke="#000000" stroke-width="0.5" /><circle cx="75" cy="332" fill="none" r="1.5" stroke="#000000" stroke-width="0.5" /><circle cx="79" cy="332" fill="none" r="1.5" stroke="#000000" stroke-width="0.5" /><circle cx="83" cy="332" fill="none" r="1.5" stroke="#000000" stroke-width="0.5" /><circle cx="87" cy="332" fill="none" r="1.5" stroke="#000000" stroke-width="0.5" /><circle cx="91" cy="332" fill="none" r="1.5" stroke="#000000" stroke-width="0.5" /><circle cx="95" cy="332" fill="none" r="1.5" stroke="#000000" stroke-width="0.5" /><circle cx="99" cy="332" fill="none" r="1.5" stroke="#000000" stroke-width="0.5" /><circle cx="103" cy="332" fill="none" r="1.5" stroke="#000000" stroke-width="0.5" /><circle cx="107" cy="332" fill="none" r="1.5" stroke="#000000" stroke-width="0.5" /><circle cx="111" cy="332" fill="none" r="1.5" stroke="#000000" stroke-width="0.5" /><circle cx="115" cy="332" fill="none" r="1.5" stroke="#000000" stroke-width="0.5" /><circle cx="119" cy="332" fill="none" r="1.5" stroke="#000000" stroke-width="0.5" /><circle cx="123" cy="332" fill="none" r="1.5" stroke="#000000" stroke-width="0.5" /><circle cx="127" cy="332" fill="none" r="1.5" stroke="#000000" stroke-width="0.5" /><circle cx="131" cy="332" fill="none" r="1.5" stroke="#000000" stroke-width="0.5" /><circle cx="135" cy="332" fill="none" r="1.5" stroke="#000000" stroke-width="0.5" /><circle cx="139" cy="332" fill="none" r="1.5" stroke="#000000" stroke-width="0.5" /><circle cx="143" cy="332" fill="none" r="1.5" stroke="#000000" stroke-width="0.5" /><circle cx="147" cy="332" fill="none" r="1.5" stroke="#000000" stroke-width="0.5" /><circle cx="151" cy="332" fill="none" r="1.5" stroke="#000000" stroke-width="0.5" /><circle cx="155" cy="332" fill="none" r="1.5" stroke="#000000" stroke-width="0.5" /><circle cx="159" cy="332" fill="none" r="1.5" stroke="#000000" stroke-width="0.5" /><circle cx="163" cy="332" fill="none" r="1.5" stroke="#000000" stroke-width="0.5" /><circle cx="167" cy="332" fill="none" r="1.5" stroke="#000000" stroke-width="0.5" /><circle cx="171" cy="332" fill="none" r="1.5" stroke="#000000" stroke-width="0.5" /><circle cx="175" cy="332" fill="none" r="1.5" stroke="#000000" stroke-width="0.5" /><circle cx="179" cy="332" fill="none" r="1.5" stroke="#000000" stroke-width="0.5" /><circle cx="183" cy="332" fill="none" r="1.5" stroke="#000000" stroke-width="0.5" /><circle cx="187" cy="332" fill="none" r="1.5" stroke="#000000" stroke-width="0.5" /><circle cx="191" cy="332" fill="none" r="1.5" stroke="#000000" stroke-width="0.5" /><circle cx="195" cy="332" fill="none" r="1.5" stroke="#000000" stroke-width="0.5" /><circle cx="199" cy="332" fill="none" r="1.5" stroke="#000000" stroke-width="0.5" /><circle cx="203" cy="332" fill="none" r="1.5" stroke="#000000" stroke-width="0.5" /><circle cx="207" cy="332" fill="none" r="1.5" stroke="#000000" stroke-width="0.5" /><circle cx="211" cy="332" fill="none" r="1.5" stroke="#000000" stroke-width="0.5" /><circle cx="215" cy="332" fill="none" r="1.5" stroke="#000000" stroke-width="0.5" /><circle cx="219" cy="332" fill="none" r="1.5" stroke="#000000" stroke-width="0.5" /><circle cx="223" cy="332" fill="none" r="1.5" stroke="#000000" stroke-width="0.5" /><circle cx="227" cy="332" fill="none" r="1.5" stroke="#000000" stroke-width="0.5" /><circle cx="18" cy="23" fill="none" r="1.5" stroke="#000000" stroke-width="0.5" /><circle cx="18" cy="27" fill="none" r="1.5" stroke="#000000" stroke-width="0.5" /><circle cx="18" cy="31" fill="none" r="1.5" stroke="#000000" stroke-width="0.5" /><circle cx="18" cy="35" fill="none" r="1.5" stroke="#000000" stroke-width="0.5" /><circle cx="18" cy="39" fill="none" r="1.5" stroke="#000000" stroke-width="0.5" /><circle cx="18" cy="43" fill="none" r="1.5" stroke="#000000" stroke-width="0.5" /><circle cx="18" cy="47" fill="none" r="1.5" stroke="#000000" stroke-width="0.5" /><circle cx="18" cy="51" fill="none" r="1.5" stroke="#000000" stroke-width="0.5" /><circle cx="18" cy="55" fill="none" r="1.5" stroke="#000000" stroke-width="0.5" /><circle cx="18" cy="59" fill="none" r="1.5" stroke="#000000" stroke-width="0.5" /><circle cx="18" cy="63" fill="none" r="1.5" stroke="#000000" stroke-width="0.5" /><circle cx="18" cy="67" fill="none" r="1.5" stroke="#000000" stroke-width="0.5" /><circle cx="18" cy="71" fill="none" r="1.5" stroke="#000000" stroke-width="0.5" /><circle cx="18" cy="75" fill="none" r="1.5" stroke="#000000" stroke-width="0.5" /><circle cx="18" cy="79" fill="none" r="1.5" stroke="#000000" stroke-width="0.5" /><circle cx="18" cy="83" fill="none" r="1.5" stroke="#000000" stroke-width="0.5" /><circle cx="18" cy="87" fill="none" r="1.5" stroke="#000000" stroke-width="0.5" /><circle cx="18" cy="91" fill="none" r="1.5" stroke="#000000" stroke-width="0.5" /><circle cx="18" cy="95" fill="none" r="1.5" stroke="#000000" stroke-width="0.5" /><circle cx="18" cy="99" fill="none" r="1.5" stroke="#000000" stroke-width="0.5" /><circle cx="18" cy="103" fill="none" r="1.5" stroke="#000000" stroke-width="0.5" /><circle cx="18" cy="107" fill="none" r="1.5" stroke="#000000" stroke-width="0.5" /><circle cx="18" cy="111" fill="none" r="1.5" stroke="#000000" stroke-width="0.5" /><circle cx="18" cy="115" fill="none" r="1.5" stroke="#000000" stroke-width="0.5" /><circle cx="18" cy="119" fill="none" r="1.5" stroke="#000000" stroke-width="0.5" /><circle cx="18" cy="123" fill="none" r="1.5" stroke="#000000" stroke-width="0.5" /><circle cx="18" cy="127" fill="none" r="1.5" stroke="#000000" stroke-width="0.5" /><circle cx="18" cy="131" fill="none" r="1.5" stroke="#000000" stroke-width="0.5" /><circle cx="18" cy="135" fill="none" r="1.5" stroke="#000000" stroke-width="0.5" /><circle cx="18" cy="139" fill="none" r="1.5" stroke="#000000" stroke-width="0.5" /><circle cx="18" cy="143" fill="none" r="1.5" stroke="#000000" stroke-width="0.5" /><circle cx="18" cy="147" fill="none" r="1.5" stroke="#000000" stroke-width="0.5" /><circle cx="18" cy="151" fill="none" r="1.5" stroke="#000000" stroke-width="0.5" /><circle cx="18" cy="155" fill="none" r="1.5" stroke="#000000" stroke-width="0.5" /><circle cx="18" cy="159" fill="none" r="1.5" stroke="#000000" stroke-width="0.5" /><circle cx="18" cy="163" fill="none" r="1.5" stroke="#000000" stroke-width="0.5" /><circle cx="18" cy="167" fill="none" r="1.5" stroke="#000000" stroke-width="0.5" /><circle cx="18" cy="171" fill="none" r="1.5" stroke="#000000" stroke-width="0.5" /><circle cx="18" cy="175" fill="none" r="1.5" stroke="#000000" stroke-width="0.5" /><circle cx="18" cy="179" fill="none" r="1.5" stroke="#000000" stroke-width="0.5" /><circle cx="18" cy="183" fill="none" r="1.5" stroke="#000000" stroke-width="0.5" /><circle cx="18" cy="187" fill="none" r="1.5" stroke="#000000" stroke-width="0.5" /><circle cx="18" cy="191" fill="none" r="1.5" stroke="#000000" stroke-width="0.5" /><circle cx="18" cy="195" fill="none" r="1.5" stroke="#000000" stroke-width="0.5" /><circle cx="18" cy="199" fill="none" r="1.5" stroke="#000000" stroke-width="0.5" /><circle cx="18" cy="203" fill="none" r="1.5" stroke="#000000" stroke-width="0.5" /><circle cx="18" cy="207" fill="none" r="1.5" stroke="#000000" stroke-width="0.5" /><circle cx="18" cy="211" fill="none" r="1.5" stroke="#000000" stroke-width="0.5" /><circle cx="18" cy="215" fill="none" r="1.5" stroke="#000000" stroke-width="0.5" /><circle cx="18" cy="219" fill="none" r="1.5" stroke="#000000" stroke-width="0.5" /><circle cx="18" cy="223" fill="none" r="1.5" stroke="#000000" stroke-width="0.5" /><circle cx="18" cy="227" fill="none" r="1.5" stroke="#000000" stroke-width="0.5" /><circle cx="18" cy="231" fill="none" r="1.5" stroke="#000000" stroke-width="0.5" /><circle cx="18" cy="235" fill="none" r="1.5" stroke="#000000" stroke-width="0.5" /><circle cx="18" cy="239" fill="none" r="1.5" stroke="#000000" stroke-width="0.5" /><circle cx="18" cy="243" fill="none" r="1.5" stroke="#000000" stroke-width="0.5" /><circle cx="18" cy="247" fill="none" r="1.5" stroke="#000000" stroke-width="0.5" /><circle cx="18" cy="251" fill="none" r="1.5" stroke="#000000" stroke-width="0.5" /><circle cx="18" cy="255" fill="none" r="1.5" stroke="#000000" stroke-width="0.5" /><circle cx="18" cy="259" fill="none" r="1.5" stroke="#000000" stroke-width="0.5" /><circle cx="18" cy="263" fill="none" r="1.5" stroke="#000000" stroke-width="0.5" /><circle cx="18" cy="267" fill="none" r="1.5" stroke="#000000" stroke-width="0.5" /><circle cx="18" cy="271" fill="none" r="1.5" stroke="#000000" stroke-width="0.5" /><circle cx="18" cy="275" fill="none" r="1.5" stroke="#000000" stroke-width="0.5" /><circle cx="18" cy="279" fill="none" r="1.5" stroke="#000000" stroke-width="0.5" /><circle cx="18" cy="283" fill="none" r="1.5" stroke="#000000" stroke-width="0.5" /><circle cx="18" cy="287" fill="none" r="1.5" stroke="#000000" stroke-width="0.5" /><circle cx="18" cy="291" fill="none" r="1.5" stroke="#000000" stroke-width="0.5" /><circle cx="18" cy="295" fill="none" r="1.5" stroke="#000000" stroke-width="0.5" /><circle cx="18" cy="299" fill="none" r="1.5" stroke="#000000" stroke-width="0.5" /><circle cx="18" cy="303" fill="none" r="1.5" stroke="#000000" stroke-width="0.5" /><circle cx="18" cy="307" fill="none" r="1.5" stroke="#000000" stroke-width="0.5" /><circle cx="18" cy="311" fill="none" r="1.5" stroke="#000000" stroke-width="0.5" /><circle cx="18" cy="315" fill="none" r="1.5" stroke="#000000" stroke-width="0.5" /><circle cx="18" cy="319" fill="none" r="1.5" stroke="#000000" stroke-width="0.5" /><circle cx="18" cy="323" fill="none" r="1.5" stroke="#000000" stroke-width="0.5" /><circle cx="18" cy="327" fill="none" r="1.5" stroke="#000000" stroke-width="0.5" /><circle cx="232" cy="23" fill="none" r="1.5" stroke="#000000" stroke-width="0.5" /><circle cx="232" cy="27" fill="none" r="1.5" stroke="#000000" stroke-width="0.5" /><circle cx="232" cy="31" fill="none" r="1.5" stroke="#000000" stroke-width="0.5" /><circle cx="232" cy="35" fill="none" r="1.5" stroke="#000000" stroke-width="0.5" /><circle cx="232" cy="39" fill="none" r="1.5" stroke="#000000" stroke-width="0.5" /><circle cx="232" cy="43" fill="none" r="1.5" stroke="#000000" stroke-width="0.5" /><circle cx="232" cy="47" fill="none" r="1.5" stroke="#000000" stroke-width="0.5" /><circle cx="232" cy="51" fill="none" r="1.5" stroke="#000000" stroke-width="0.5" /><circle cx="232" cy="55" fill="none" r="1.5" stroke="#000000" stroke-width="0.5" /><circle cx="232" cy="59" fill="none" r="1.5" stroke="#000000" stroke-width="0.5" /><circle cx="232" cy="63" fill="none" r="1.5" stroke="#000000" stroke-width="0.5" /><circle cx="232" cy="67" fill="none" r="1.5" stroke="#000000" stroke-width="0.5" /><circle cx="232" cy="71" fill="none" r="1.5" stroke="#000000" stroke-width="0.5" /><circle cx="232" cy="75" fill="none" r="1.5" stroke="#000000" stroke-width="0.5" /><circle cx="232" cy="79" fill="none" r="1.5" stroke="#000000" stroke-width="0.5" /><circle cx="232" cy="83" fill="none" r="1.5" stroke="#000000" stroke-width="0.5" /><circle cx="232" cy="87" fill="none" r="1.5" stroke="#000000" stroke-width="0.5" /><circle cx="232" cy="91" fill="none" r="1.5" stroke="#000000" stroke-width="0.5" /><circle cx="232" cy="95" fill="none" r="1.5" stroke="#000000" stroke-width="0.5" /><circle cx="232" cy="99" fill="none" r="1.5" stroke="#000000" stroke-width="0.5" /><circle cx="232" cy="103" fill="none" r="1.5" stroke="#000000" stroke-width="0.5" /><circle cx="232" cy="107" fill="none" r="1.5" stroke="#000000" stroke-width="0.5" /><circle cx="232" cy="111" fill="none" r="1.5" stroke="#000000" stroke-width="0.5" /><circle cx="232" cy="115" fill="none" r="1.5" stroke="#000000" stroke-width="0.5" /><circle cx="232" cy="119" fill="none" r="1.5" stroke="#000000" stroke-width="0.5" /><circle cx="232" cy="123" fill="none" r="1.5" stroke="#000000" stroke-width="0.5" /><circle cx="232" cy="127" fill="none" r="1.5" stroke="#000000" stroke-width="0.5" /><circle cx="232" cy="131" fill="none" r="1.5" stroke="#000000" stroke-width="0.5" /><circle cx="232" cy="135" fill="none" r="1.5" stroke="#000000" stroke-width="0.5" /><circle cx="232" cy="139" fill="none" r="1.5" stroke="#000000" stroke-width="0.5" /><circle cx="232" cy="143" fill="none" r="1.5" stroke="#000000" stroke-width="0.5" /><circle cx="232" cy="147" fill="none" r="1.5" stroke="#000000" stroke-width="0.5" /><circle cx="232" cy="151" fill="none" r="1.5" stroke="#000000" stroke-width="0.5" /><circle cx="232" cy="155" fill="none" r="1.5" stroke="#000000" stroke-width="0.5" /><circle cx="232" cy="159" fill="none" r="1.5" stroke="#000000" stroke-width="0.5" /><circle cx="232" cy="163" fill="none" r="1.5" stroke="#000000" stroke-width="0.5" /><circle cx="232" cy="167" fill="none" r="1.5" stroke="#000000" stroke-width="0.5" /><circle cx="232" cy="171" fill="none" r="1.5" stroke="#000000" stroke-width="0.5" /><circle cx="232" cy="175" fill="none" r="1.5" stroke="#000000" stroke-width="0.5" /><circle cx="232" cy="179" fill="none" r="1.5" stroke="#000000" stroke-width="0.5" /><circle cx="232" cy="183" fill="none" r="1.5" stroke="#000000" stroke-width="0.5" /><circle cx="232" cy="187" fill="none" r="1.5" stroke="#000000" stroke-width="0.5" /><circle cx="232" cy="191" fill="none" r="1.5" stroke="#000000" stroke-width="0.5" /><circle cx="232" cy="195" fill="none" r="1.5" stroke="#000000" stroke-width="0.5" /><circle cx="232" cy="199" fill="none" r="1.5" stroke="#000000" stroke-width="0.5" /><circle cx="232" cy="203" fill="none" r="1.5" stroke="#000000" stroke-width="0.5" /><circle cx="232" cy="207" fill="none" r="1.5" stroke="#000000" stroke-width="0.5" /><circle cx="232" cy="211" fill="none" r="1.5" stroke="#000000" stroke-width="0.5" /><circle cx="232" cy="215" fill="none" r="1.5" stroke="#000000" stroke-width="0.5" /><circle cx="232" cy="219" fill="none" r="1.5" stroke="#000000" stroke-width="0.5" /><circle cx="232" cy="223" fill="none" r="1.5" stroke="#000000" stroke-width="0.5" /><circle cx="232" cy="227" fill="none" r="1.5" stroke="#000000" stroke-width="0.5" /><circle cx="232" cy="231" fill="none" r="1.5" stroke="#000000" stroke-width="0.5" /><circle cx="232" cy="235" fill="none" r="1.5" stroke="#000000" stroke-width="0.5" /><circle cx="232" cy="239" fill="none" r="1.5" stroke="#000000" stroke-width="0.5" /><circle cx="232" cy="243" fill="none" r="1.5" stroke="#000000" stroke-width="0.5" /><circle cx="232" cy="247" fill="none" r="1.5" stroke="#000000" stroke-width="0.5" /><circle cx="232" cy="251" fill="none" r="1.5" stroke="#000000" stroke-width="0.5" /><circle cx="232" cy="255" fill="none" r="1.5" stroke="#000000" stroke-width="0.5" /><circle cx="232" cy="259" fill="none" r="1.5" stroke="#000000" stroke-width="0.5" /><circle cx="232" cy="263" fill="none" r="1.5" stroke="#000000" stroke-width="0.5" /><circle cx="232" cy="267" fill="none" r="1.5" stroke="#000000" stroke-width="0.5" /><circle cx="232" cy="271" fill="none" r="1.5" stroke="#000000" stroke-width="0.5" /><circle cx="232" cy="275" fill="none" r="1.5" stroke="#000000" stroke-width="0.5" /><circle cx="232" cy="279" fill="none" r="1.5" stroke="#000000" stroke-width="0.5" /><circle cx="232" cy="283" fill="none" r="1.5" stroke="#000000" stroke-width="0.5" /><circle cx="232" cy="287" fill="none" r="1.5" stroke="#000000" stroke-width="0.5" /><circle cx="232" cy="291" fill="none" r="1.5" stroke="#000000" stroke-width="0.5" /><circle cx="232" cy="295" fill="none" r="1.5" stroke="#000000" stroke-width="0.5" /><circle cx="232" cy="299" fill="none" r="1.5" stroke="#000000" stroke-width="0.5" /><circle cx="232" cy="303" fill="none" r="1.5" stroke="#000000" stroke-width="0.5" /><circle cx="232" cy="307" fill="none" r="1.5" stroke="#000000" stroke-width="0.5" /><circle cx="232" cy="311" fill="none" r="1.5" stroke="#000000" stroke-width="0.5" /><circle cx="232" cy="315" fill="none" r="1.5" stroke="#000000" stroke-width="0.5" /><circle cx="232" cy="319" fill="none" r="1.5" stroke="#000000" stroke-width="0.5" /><circle cx="232" cy="323" fill="none" r="1.5" stroke="#000000" stroke-width="0.5" /><circle cx="232" cy="327" fill="none" r="1.5" stroke="#000000" stroke-width="0.5" /><circle cx="125" cy="175" fill="white" r="60" stroke="#000000" stroke-width="1" /><circle cx="146.0" cy="175.0" fill="none" r="21" stroke="#000000" stroke-width="0.5" /><circle cx="147.0" cy="175.0" fill="none" r="22" stroke="#000000" stroke-width="0.5" /><circle cx="148.0" cy="175.0" fill="none" r="23" stroke="#000000" stroke-width="0.5" /><circle cx="149.0" cy="175.0" fill="none" r="24" stroke="#000000" stroke-width="0.5" /><circle cx="150.0" cy="175.0" fill="none" r="25" stroke="#000000" stroke-width="0.5" /><circle cx="151.0" cy="175.0" fill="none" r="26" stroke="#000000" stroke-width="0.5" /><circle cx="152.0" cy="175.0" fill="none" r="27" stroke="#000000" stroke-width="0.5" /><circle cx="153.0" cy="175.0" fill="none" r="28" stroke="#000000" stroke-width="0.5" /><circle cx="154.0" cy="175.0" fill="none" r="29" stroke="#000000" stroke-width="0.5" /><circle cx="143.1865334794732" cy="185.5" fill="none" r="21" stroke="#000000" stroke-width="0.5" /><circle cx="144.05255888325766" cy="186.0" fill="none" r="22" stroke="#000000" stroke-width="0.5" /><circle cx="144.91858428704208" cy="186.5" fill="none" r="23" stroke="#000000" stroke-width="0.5" /><circle cx="145.78460969082653" cy="187.0" fill="none" r="24" stroke="#000000" stroke-width="0.5" /><circle cx="146.65063509461098" cy="187.5" fill="none" r="25" stroke="#000000" stroke-width="0.5" /><circle cx="147.5166604983954" cy="188.0" fill="none" r="26" stroke="#000000" stroke-width="0.5" /><circle cx="148.38268590217984" cy="188.5" fill="none" r="27" stroke="#000000" stroke-width="0.5" /><circle cx="149.2487113059643" cy="189.0" fill="none" r="28" stroke="#000000" stroke-width="0.5" /><circle cx="150.1147367097487" cy="189.5" fill="none" r="29" stroke="#000000" stroke-width="0.5" /><circle cx="135.5" cy="193.1865334794732" fill="none" r="21" stroke="#000000" stroke-width="0.5" /><circle cx="136.0" cy="194.05255888325766" fill="none" r="22" stroke="#000000" stroke-width="0.5" /><circle cx="136.5" cy="194.91858428704208" fill="none" r="23" stroke="#000000" stroke-width="0.5" /><circle cx="137.0" cy="195.78460969082653" fill="none" r="24" stroke="#000000" stroke-width="0.5" /><circle cx="137.5" cy="196.65063509461098" fill="none" r="25" stroke="#000000" stroke-width="0.5" /><circle cx="138.0" cy="197.5166604983954" fill="none" r="26" stroke="#000000" stroke-width="0.5" /><circle cx="138.5" cy="198.38268590217984" fill="none" r="27" stroke="#000000" stroke-width="0.5" /><circle cx="139.0" cy="199.2487113059643" fill="none" r="28" stroke="#000000" stroke-width="0.5" /><circle cx="139.5" cy="200.1147367097487" fill="none" r="29" stroke="#000000" stroke-width="0.5" /><circle cx="125.0" cy="196.0" fill="none" r="21" stroke="#000000" stroke-width="0.5" /><circle cx="125.0" cy="197.0" fill="none" r="22" stroke="#000000" stroke-width="0.5" /><circle cx="125.0" cy="198.0" fill="none" r="23" stroke="#000000" stroke-width="0.5" /><circle cx="125.0" cy="199.0" fill="none" r="24" stroke="#000000" stroke-width="0.5" /><circle cx="125.0" cy="200.0" fill="none" r="25" stroke="#000000" stroke-width="0.5" /><circle cx="125.0" cy="201.0" fill="none" r="26" stroke="#000000" stroke-width="0.5" /><circle cx="125.0" cy="202.0" fill="none" r="27" stroke="#000000" stroke-width="0.5" /><circle cx="125.0" cy="203.0" fill="none" r="28" stroke="#000000" stroke-width="0.5" /><circle cx="125.0" cy="204.0" fill="none" r="29" stroke="#000000" stroke-width="0.5" /><circle cx="114.5" cy="193.1865334794732" fill="none" r="21" stroke="#000000" stroke-width="0.5" /><circle cx="114.0" cy="194.05255888325766" fill="none" r="22" stroke="#000000" stroke-width="0.5" /><circle cx="113.5" cy="194.91858428704208" fill="none" r="23" stroke="#000000" stroke-width="0.5" /><circle cx="113.0" cy="195.78460969082653" fill="none" r="24" stroke="#000000" stroke-width="0.5" /><circle cx="112.5" cy="196.65063509461098" fill="none" r="25" stroke="#000000" stroke-width="0.5" /><circle cx="112.0" cy="197.5166604983954" fill="none" r="26" stroke="#000000" stroke-width="0.5" /><circle cx="111.5" cy="198.38268590217984" fill="none" r="27" stroke="#000000" stroke-width="0.5" /><circle cx="111.0" cy="199.2487113059643" fill="none" r="28" stroke="#000000" stroke-width="0.5" /><circle cx="110.5" cy="200.1147367097487" fill="none" r="29" stroke="#000000" stroke-width="0.5" /><circle cx="106.81346652052679" cy="185.5" fill="none" r="21" stroke="#000000" stroke-width="0.5" /><circle cx="105.94744111674234" cy="186.0" fill="none" r="22" stroke="#000000" stroke-width="0.5" /><circle cx="105.0814157129579" cy="186.5" fill="none" r="23" stroke="#000000" stroke-width="0.5" /><circle cx="104.21539030917347" cy="187.0" fill="none" r="24" stroke="#000000" stroke-width="0.5" /><circle cx="103.34936490538902" cy="187.5" fill="none" r="25" stroke="#000000" stroke-width="0.5" /><circle cx="102.48333950160459" cy="188.0" fill="none" r="26" stroke="#000000" stroke-width="0.5" /><circle cx="101.61731409782016" cy="188.5" fill="none" r="27" stroke="#000000" stroke-width="0.5" /><circle cx="100.75128869403571" cy="189.0" fill="none" r="28" stroke="#000000" stroke-width="0.5" /><circle cx="99.88526329025127" cy="189.5" fill="none" r="29" stroke="#000000" stroke-width="0.5" /><circle cx="104.0" cy="175.0" fill="none" r="21" stroke="#000000" stroke-width="0.5" /><circle cx="103.0" cy="175.0" fill="none" r="22" stroke="#000000" stroke-width="0.5" /><circle cx="102.0" cy="175.0" fill="none" r="23" stroke="#000000" stroke-width="0.5" /><circle cx="101.0" cy="175.0" fill="none" r="24" stroke="#000000" stroke-width="0.5" /><circle cx="100.0" cy="175.0" fill="none" r="25" stroke="#000000" stroke-width="0.5" /><circle cx="99.0" cy="175.0" fill="none" r="26" stroke="#000000" stroke-width="0.5" /><circle cx="98.0" cy="175.0" fill="none" r="27" stroke="#000000" stroke-width="0.5" /><circle cx="97.0" cy="175.0" fill="none" r="28" stroke="#000000" stroke-width="0.5" /><circle cx="96.0" cy="175.0" fill="none" r="29" stroke="#000000" stroke-width="0.5" /><circle cx="106.81346652052679" cy="164.5" fill="none" r="21" stroke="#000000" stroke-width="0.5" /><circle cx="105.94744111674235" cy="164.0" fill="none" r="22" stroke="#000000" stroke-width="0.5" /><circle cx="105.08141571295792" cy="163.5" fill="none" r="23" stroke="#000000" stroke-width="0.5" /><circle cx="104.21539030917347" cy="163.0" fill="none" r="24" stroke="#000000" stroke-width="0.5" /><circle cx="103.34936490538904" cy="162.5" fill="none" r="25" stroke="#000000" stroke-width="0.5" /><circle cx="102.4833395016046" cy="162.0" fill="none" r="26" stroke="#000000" stroke-width="0.5" /><circle cx="101.61731409782016" cy="161.5" fill="none" r="27" stroke="#000000" stroke-width="0.5" /><circle cx="100.75128869403572" cy="161.0" fill="none" r="28" stroke="#000000" stroke-width="0.5" /><circle cx="99.88526329025129" cy="160.5" fill="none" r="29" stroke="#000000" stroke-width="0.5" /><circle cx="114.49999999999999" cy="156.8134665205268" fill="none" r="21" stroke="#000000" stroke-width="0.5" /><circle cx="113.99999999999999" cy="155.94744111674237" fill="none" r="22" stroke="#000000" stroke-width="0.5" /><circle cx="113.49999999999999" cy="155.08141571295792" fill="none" r="23" stroke="#000000" stroke-width="0.5" /><circle cx="112.99999999999999" cy="154.21539030917347" fill="none" r="24" stroke="#000000" stroke-width="0.5" /><circle cx="112.49999999999999" cy="153.34936490538905" fill="none" r="25" stroke="#000000" stroke-width="0.5" /><circle cx="111.99999999999999" cy="152.4833395016046" fill="none" r="26" stroke="#000000" stroke-width="0.5" /><circle cx="111.49999999999999" cy="151.61731409782016" fill="none" r="27" stroke="#000000" stroke-width="0.5" /><circle cx="110.99999999999999" cy="150.75128869403574" fill="none" r="28" stroke="#000000" stroke-width="0.5" /><circle cx="110.49999999999999" cy="149.8852632902513" fill="none" r="29" stroke="#000000" stroke-width="0.5" /><circle cx="125.0" cy="154.0" fill="none" r="21" stroke="#000000" stroke-width="0.5" /><circle cx="125.0" cy="153.0" fill="none" r="22" stroke="#000000" stroke-width="0.5" /><circle cx="125.0" cy="152.0" fill="none" r="23" stroke="#000000" stroke-width="0.5" /><circle cx="125.0" cy="151.0" fill="none" r="24" stroke="#000000" stroke-width="0.5" /><circle cx="125.0" cy="150.0" fill="none" r="25" stroke="#000000" stroke-width="0.5" /><circle cx="125.0" cy="149.0" fill="none" r="26" stroke="#000000" stroke-width="0.5" /><circle cx="125.0" cy="148.0" fill="none" r="27" stroke="#000000" stroke-width="0.5" /><circle cx="125.0" cy="147.0" fill="none" r="28" stroke="#000000" stroke-width="0.5" /><circle cx="125.0" cy="146.0" fill="none" r="29" stroke="#000000" stroke-width="0.5" /><circle cx="135.5" cy="156.8134665205268" fill="none" r="21" stroke="#000000" stroke-width="0.5" /><circle cx="136.0" cy="155.94744111674234" fill="none" r="22" stroke="#000000" stroke-width="0.5" /><circle cx="136.5" cy="155.08141571295792" fill="none" r="23" stroke="#000000" stroke-width="0.5" /><circle cx="137.0" cy="154.21539030917347" fill="none" r="24" stroke="#000000" stroke-width="0.5" /><circle cx="137.5" cy="153.34936490538902" fill="none" r="25" stroke="#000000" stroke-width="0.5" /><circle cx="138.0" cy="152.4833395016046" fill="none" r="26" stroke="#000000" stroke-width="0.5" /><circle cx="138.5" cy="151.61731409782016" fill="none" r="27" stroke="#000000" stroke-width="0.5" /><circle cx="139.0" cy="150.7512886940357" fill="none" r="28" stroke="#000000" stroke-width="0.5" /><circle cx="139.5" cy="149.8852632902513" fill="none" r="29" stroke="#000000" stroke-width="0.5" /><circle cx="143.1865334794732" cy="164.5" fill="none" r="21" stroke="#000000" stroke-width="0.5" /><circle cx="144.05255888325763" cy="164.0" fill="none" r="22" stroke="#000000" stroke-width="0.5" /><circle cx="144.91858428704208" cy="163.5" fill="none" r="23" stroke="#000000" stroke-width="0.5" /><circle cx="145.78460969082653" cy="163.0" fill="none" r="24" stroke="#000000" stroke-width="0.5" /><circle cx="146.65063509461095" cy="162.5" fill="none" r="25" stroke="#000000" stroke-width="0.5" /><circle cx="147.5166604983954" cy="162.0" fill="none" r="26" stroke="#000000" stroke-width="0.5" /><circle cx="148.38268590217984" cy="161.5" fill="none" r="27" stroke="#000000" stroke-width="0.5" /><circle cx="149.24871130596426" cy="161.0" fill="none" r="28" stroke="#000000" stroke-width="0.5" /><circle cx="150.1147367097487" cy="160.5" fill="none" r="29" stroke="#000000" stroke-width="0.5" /><use x="55" xlink:href="#flower" y="55" /><use x="195" xlink:href="#flower" y="55" /><use x="55" xlink:href="#flower" y="295" /><use x="195" xlink:href="#flower" y="295" /></svg>