<svg xmlns="http://www.w3.org/2000/svg" viewBox="0 0 48 48" id="card-game">
  <rect width="37" height="26" x="13.569" y="11.388" fill="#aecee8" rx="4" transform="rotate(-82 32.069 24.388)"></rect>
  <path fill="#7eafd0" d="M22.311,6a3.963,3.963,0,0,0-1.1,2.22L17.178,36.938a4,4,0,0,0,3.4,4.517L31.717,43.02c.014-.007.031-.012.045-.02H35a4,4,0,0,0,4-4V10a4,4,0,0,0-2.387-3.655L34.16,6Z"></path>
  <rect width="26" height="37" x="11" y="4" fill="#dbe6f7" rx="4"></rect>
  <path fill="#aecee8" d="M33.822,38.938,29.786,10.22a4,4,0,0,0-4.517-3.4L11,8.821V37a4,4,0,0,0,4,4H33a3.836,3.836,0,0,0,.571-.058A3.938,3.938,0,0,0,33.822,38.938Z"></path>
  <rect width="26" height="37" x="2.931" y="5.888" fill="#eff3f9" rx="4" transform="rotate(-8 15.956 24.417)"></rect>
  <path fill="#dbe6f7" d="M1.651,9.126a3.967,3.967,0,0,0-.612,2.712L5.075,40.556a4,4,0,0,0,4.518,3.405l17.825-2.506a3.97,3.97,0,0,0,2.792-1.8Z"></path>
  <path fill="#ea4460" d="M11.138,26l4.017,3.026a2,2,0,0,0,2.8-.393l3.027-4.017h0a3.515,3.515,0,0,0-.692-4.922h0a3.514,3.514,0,0,0-4.922.692h0a3.516,3.516,0,0,0-4.923.691h0A3.515,3.515,0,0,0,11.138,26Z"></path>
  <path fill="#dc344d" d="M18.829,27.475l-.877,1.163a1.992,1.992,0,0,1-2.792.393L11.139,26a3.505,3.505,0,0,1-1.367-2.323A3.484,3.484,0,0,1,11.82,20Z"></path>
  <path fill="#ea4460" d="M8.529,14.825a1,1,0,0,1-.964-.423L6.8,13.287l-.431,1.284a1,1,0,1,1-1.9-.637l1.068-3.179a1.04,1.04,0,0,1,1.771-.249l1.9,2.762a1,1,0,0,1-.683,1.557Z"></path>
  <path fill="#dc344d" d="M6.462,14.278l-.1.3a1,1,0,1,1-1.888-.643l.441-1.314Z"></path>
  <path fill="#ea4460" d="M25.515,38.693a1,1,0,0,1-.963-.422l-1.9-2.762A1,1,0,0,1,24.3,34.374l.768,1.115.431-1.284a1,1,0,1,1,1.9.637l-1.068,3.18A1,1,0,0,1,25.515,38.693Z"></path>
  <path fill="#dc344d" d="M26.946,36.16l-.626,1.865a1,1,0,0,1-1.763.248l-1.9-2.762a1,1,0,1,1,1.638-1.139l.772,1.113L25.4,34.5Z"></path>
</svg>
