<?xml version="1.0" encoding="UTF-8" standalone="no"?>
<svg xmlns="http://www.w3.org/2000/svg" xmlns:xlink="http://www.w3.org/1999/xlink" xml:space="preserve" width="208" height="303" version="1.0" viewBox="0 0 167.08643 242.66748">
  <path fill="#fff" stroke="#000" stroke-width=".5" d="M166.83643 235.89281c0 3.79171-3.08594 6.8909-6.87011 6.8909H7.1113279C3.3359375 242.78371.25 239.68452.25 235.89281V6.7746663c0-3.78632 3.0859375-6.89089653 6.8613279-6.89089653H159.96632c3.78417 0 6.87011 3.10457653 6.87011 6.89089653V235.89281z"/>
  <path d="M14.1068149 12.4492188h-.65625V8.574219c.443359-.3017578.880371-.5283203 1.311523-.6796875.431153-.1508789.864258-.2265625 1.299805-.2265625 1.023438 0 1.823242.4702148 2.399414 1.409668.576172.9399414.864258 2.2485348.864258 3.9262698 0 1.194336-.158691 2.265136-.475098 3.21289-.316406.947754-.919922 2.070801-1.80957 3.369629l-2.243164 3.300293h3.809082v-2.125h.75v5.28125h-5.96875v-2.941406l1.191406-1.844727c1.026367-1.574219 1.709473-2.914062 2.049317-4.020508.339355-1.105957.509277-2.39746.509277-3.875 0-1.396484-.129395-2.460449-.388184-3.190918-.258789-.7304683-.634277-1.0961908-1.127441-1.0961908-.428711 0-.770019.2885742-1.024902.8652344-.254883.5766604-.418457 1.4130864-.490723 2.5097654zm138.8728002 217.7690424h.65625v3.875c-.44336.30274-.88086.5293-1.31152.67969-.43067.15137-.86426.22656-1.29981.22656-1.02343 0-1.82324-.46972-2.39941-1.40918-.57617-.94043-.86426-2.24902-.86426-3.92676 0-1.19336.15821-2.26464.47461-3.21289.31641-.94726.91992-2.07031 1.81055-3.36914l2.24219-3.30078h-3.8086v2.125h-.75v-5.28125h5.96875v2.94141l-1.1914 1.8457c-1.02637 1.57422-1.70899 2.91406-2.04883 4.01953-.33985 1.10645-.50977 2.39844-.50977 3.875 0 1.39649.12891 2.46094.38867 3.19141.25782.73047.63379 1.0957 1.12696 1.0957.42871 0 .76953-.28808 1.02539-.86523.2539-.57617.41797-1.41211.49023-2.50977z"/>
  <path id="b" fill-rule="nonzero" stroke="none" stroke-miterlimit="4" d="M83.543215 12.962851c-3.184571 5.73145-14.037184 10.98218-14.057752 18.22487-.009712 3.41991 3.146062 6.17537 7.028876 6.17537 2.473515 0 4.671438-1.11009 5.924338-2.81155-.523428 4.92437-1.927391 10.42786-7.053979 11.47213h16.317034c-5.126582-1.04427-6.530551-6.54776-7.053979-11.47213 1.252905 1.70146 3.450823 2.81155 5.924338 2.81155 3.882818 0 7.038587-2.75546 7.028876-6.17537-.020566-7.24269-10.873181-12.49342-14.057752-18.22487z"/>
  <path id="a" fill-rule="nonzero" stroke="none" stroke-miterlimit="4" d="M16.372445 29.321959c-.95724 1.722794-4.21646 3.301099-4.22557 5.478145 0 1.027984.94567 1.856231 2.11279 1.856231.7435 0 1.40417-.333678 1.78077-.845113-.15734 1.480197-.57935 3.13447-2.12033 3.448363h4.90468c-1.54098-.313893-1.963-1.968166-2.12033-3.448363.3766.511435 1.03727.845113 1.78077.845113 1.16712 0 2.11278-.828247 2.11278-1.856231-.0091-2.177046-3.26832-3.755351-4.22556-5.478145z"/>
  <use xlink:href="#a" width="167.08643" height="242.66748" transform="matrix(1 0 0 -1 134.34154 242.36206)"/>
  <use xlink:href="#b" width="167.08643" height="242.66748" transform="matrix(1 0 0 -1 0 242.66748)"/>
</svg>