<?xml version="1.0" encoding="UTF-8" standalone="no"?>
<svg xmlns="http://www.w3.org/2000/svg" xmlns:xlink="http://www.w3.org/1999/xlink" width="208" height="303" version="1.0" viewBox="0 0 167.09 242.67">
  <path fill="#fff" stroke="#000" stroke-width=".5" d="M166.84 235.9a6.9 6.9 0 0 1-6.87 6.88H7.1a6.9 6.9 0 0 1-6.86-6.89V6.78a6.9 6.9 0 0 1 6.86-6.9h152.86a6.9 6.9 0 0 1 6.87 6.9v229.11z"/>
  <path id="a" fill="#e61408" d="M68.23 121.33c3.44-.16 15.12-10.4 15.31-15.86.2 5.47 11.88 15.7 15.32 15.86-3.44.16-15.12 10.4-15.32 15.87-.2-5.47-11.87-15.7-15.31-15.87z"/>
  <g id="b">
    <path fill="#e61408" d="M18.72 7.67v3.15h-4.28v3.98c.24-.41.5-.73.79-.94.29-.21.6-.32.91-.32 1 0 1.78.57 2.35 1.69.57 1.12.85 2.65.85 4.58 0 1.97-.28 3.5-.86 4.6-.57 1.09-1.37 1.63-2.4 1.63a3.7 3.7 0 0 1-1.31-.24 5.9 5.9 0 0 1-1.37-.76v-3.93h.66c.02 1.19.16 2.07.42 2.65.25.59.62.88 1.12.88.53 0 .92-.4 1.17-1.2.26-.78.38-2 .38-3.62 0-1.6-.12-2.8-.37-3.59s-.63-1.19-1.13-1.19c-.28 0-.52.13-.73.38-.21.26-.41.65-.6 1.18h-.54V7.67Z"/>
    <use xlink:href="#a" transform="translate(-35.8 -91.86)"/>
    <use xlink:href="#a" transform="translate(34.87 -91.86)"/>
    <use xlink:href="#a" transform="matrix(.3 0 0 .3 -8.75 -2.2)"/>
  </g>
  <use xlink:href="#b" transform="rotate(180 83.54 121.33)"/>
</svg>
