<?xml version="1.0" encoding="UTF-8"?>
<svg width="208" height="303" version="1.0" viewBox="0 0 167.09 242.67" xml:space="preserve" xmlns="http://www.w3.org/2000/svg" xmlns:xlink="http://www.w3.org/1999/xlink">
    <path d="m166.84 235.89c0 3.792-3.086 6.89-6.87 6.89h-152.86c-3.775 0-6.861-3.098-6.861-6.89v-229.12c0-3.787 3.086-6.891 6.861-6.891h152.86c3.784 0 6.87 3.104 6.87 6.89v229.12z" fill="#fff" stroke="#000" stroke-width=".5"/>
    <g stroke="#000">
        <path transform="translate(1.364 -.127)" d="M13.837 15.286c.24-.419.504-.733.789-.942.285-.21.6-.314.946-.314.82 0 1.465.54 1.935 1.62.47 1.081.705 2.565.705 4.452 0 1.991-.266 3.53-.798 4.614s-1.286 1.626-2.26 1.626c-1.096 0-1.928-.743-2.496-2.23-.569-1.486-.852-3.67-.852-6.555 0-3.279.313-5.754.94-7.426.627-1.672 1.56-2.507 2.797-2.507.322 0 .667.06 1.038.18.37.12.767.299 1.193.538v3.188h-.656c-.088-.822-.258-1.443-.51-1.866-.25-.423-.572-.634-.963-.634-.63 0-1.088.491-1.371 1.473-.283.983-.43 2.577-.437 4.783zm1.187 9.65c.372 0 .637-.353.795-1.06.158-.706.237-1.93.237-3.674s-.08-2.969-.237-3.675c-.158-.706-.423-1.06-.795-1.06-.372 0-.637.354-.795 1.06-.157.706-.236 1.931-.236 3.675 0 1.743.079 2.968.236 3.674.158.707.423 1.06.795 1.06z" stroke="none"/>
    </g>
    <g stroke="#000">
        <path transform="translate(-.85 .217)" d="M152.735 227.292c-.24.419-.504.732-.789.942a1.567 1.567 0 0 1-.947.314c-.818 0-1.464-.54-1.934-1.62-.47-1.081-.705-2.565-.705-4.451 0-1.992.266-3.53.797-4.615.533-1.084 1.286-1.627 2.261-1.627 1.097 0 1.929.744 2.496 2.23.568 1.487.853 3.672.853 6.556 0 3.279-.315 5.753-.942 7.425-.627 1.672-1.558 2.508-2.797 2.508a3.37 3.37 0 0 1-1.037-.18 6.56 6.56 0 0 1-1.193-.539v-3.187h.656c.088.822.258 1.443.509 1.866.25.423.573.634.964.634.63 0 1.088-.49 1.37-1.473.284-.982.43-2.577.438-4.783zm-1.187-9.65c-.373 0-.637.353-.795 1.06-.158.705-.236 1.93-.236 3.674s.078 2.969.236 3.676c.158.705.422 1.058.795 1.058.37 0 .637-.353.795-1.058.157-.707.236-1.932.236-3.676 0-1.743-.079-2.969-.236-3.674-.158-.707-.424-1.06-.795-1.06z" stroke="none"/>
    </g>
    <path d="M150.737 213.04a2.067 2.067 0 0 0 2.067-2.067c0-.59-.25-1.12-.647-1.496-.306-.291-.742-.951-.887-1.48.283.17.539.364.692.525a2.067 2.067 0 1 0 1.496-3.495c-.59 0-1.12.25-1.496.646a3.67 3.67 0 0 1-.737.564c.042-1.896.693-3.135 1.88-3.135h-4.744c1.19 0 1.848 1.246 1.887 3.15-.318-.182-.614-.402-.782-.579a2.06 2.06 0 0 0-1.496-.646 2.067 2.067 0 1 0 1.496 3.495c.16-.167.437-.366.737-.54-.14.531-.586 1.2-.895 1.495a2.067 2.067 0 0 0 1.428 3.563zM16.35 29.322a2.067 2.067 0 0 0-2.067 2.067c0 .59.25 1.12.646 1.496.306.291.742.952.887 1.48a3.528 3.528 0 0 1-.691-.525 2.067 2.067 0 1 0-1.496 3.495c.59 0 1.119-.25 1.496-.646a3.67 3.67 0 0 1 .736-.564c-.042 1.896-.693 3.135-1.879 3.135h4.743c-1.19 0-1.847-1.246-1.886-3.15.318.183.613.402.781.579a2.06 2.06 0 0 0 1.496.646 2.067 2.067 0 1 0-1.496-3.495c-.16.167-.437.366-.736.541.14-.532.585-1.202.894-1.496a2.067 2.067 0 0 0-1.428-3.563z"/>
    <path id="a" d="M47.663 12.946a6.874 6.874 0 0 0-6.875 6.875c0 1.96.833 3.722 2.15 4.975 1.017.969 2.467 3.164 2.95 4.925-.942-.568-1.79-1.214-2.3-1.75a6.83 6.83 0 0 0-4.975-2.125 6.874 6.874 0 0 0-6.875 6.875 6.874 6.874 0 0 0 6.875 6.875c1.96 0 3.721-.833 4.975-2.15.537-.565 1.446-1.28 2.45-1.875-.141 6.305-2.305 10.425-6.25 10.425h15.775c-3.956 0-6.145-4.141-6.275-10.475 1.058.607 2.041 1.339 2.6 1.925a6.853 6.853 0 0 0 4.975 2.15 6.874 6.874 0 0 0 6.875-6.875 6.874 6.874 0 0 0-6.875-6.875 6.83 6.83 0 0 0-4.975 2.125c-.531.558-1.453 1.219-2.45 1.8.467-1.77 1.947-3.997 2.975-4.975a6.83 6.83 0 0 0 2.125-4.975 6.874 6.874 0 0 0-6.875-6.875z"/>
    <use transform="matrix(1 0 0 -1 0 242.64)" width="167.086" height="242.667" xlink:href="#a"/>
    <path id="b" d="M118.333 12.946a6.874 6.874 0 0 0-6.875 6.875c0 1.96.833 3.722 2.15 4.975 1.018.969 2.467 3.164 2.95 4.925-.942-.568-1.79-1.214-2.3-1.75a6.83 6.83 0 0 0-4.975-2.125 6.874 6.874 0 0 0-6.875 6.875 6.874 6.874 0 0 0 6.875 6.875c1.96 0 3.722-.833 4.975-2.15.538-.565 1.446-1.28 2.45-1.875-.14 6.305-2.305 10.425-6.25 10.425h15.775c-3.956 0-6.145-4.141-6.275-10.475 1.058.607 2.042 1.339 2.6 1.925a6.853 6.853 0 0 0 4.975 2.15 6.874 6.874 0 0 0 6.875-6.875 6.874 6.874 0 0 0-6.875-6.875 6.83 6.83 0 0 0-4.975 2.125c-.53.558-1.453 1.219-2.45 1.8.468-1.77 1.947-3.997 2.975-4.975a6.83 6.83 0 0 0 2.125-4.975 6.874 6.874 0 0 0-6.875-6.875z"/>
    <use transform="matrix(1 0 0 -1 0 242.64)" width="167.086" height="242.667" xlink:href="#b"/>
    <use transform="translate(0 91.863)" width="167.086" height="242.667" xlink:href="#a"/>
    <use transform="translate(70.67 91.863)" width="167.086" height="242.667" xlink:href="#a"/>
</svg>
