<svg xmlns="http://www.w3.org/2000/svg" width="250" height="350" viewBox="0 0 250 350"><defs>
    <linearGradient id="ivory" x1="0" y1="0" x2="0.3" y2="1"><stop offset="0%" stop-color="#fdf8ec"/><stop offset="100%" stop-color="#f0e8d2"/></linearGradient>
    <radialGradient id="ivoryGlow" cx="50%" cy="40%" r="70%"><stop offset="0%" stop-color="#fffefa" stop-opacity="0.7"/><stop offset="100%" stop-color="#fffefa" stop-opacity="0"/></radialGradient></defs>
    <rect x="2.5" y="2.5" width="245" height="345" rx="17" fill="url(#ivory)" stroke="#d8cba2" stroke-width="2"/>
    <rect x="2.5" y="2.5" width="245" height="345" rx="17" fill="url(#ivoryGlow)"/>
    <rect x="11" y="11" width="228" height="328" rx="12" fill="none" stroke="#b08a2e" stroke-width="2.4"/>
    <rect x="15.5" y="15.5" width="219" height="319" rx="9" fill="none" stroke="#23272e" stroke-width="1" opacity="0.55"/><g transform="translate(125.0 178.0) scale(2.300)"><g fill="#23272e"><circle cx="0" cy="-9" r="9"/><circle cx="-10" cy="6" r="9"/><circle cx="10" cy="6" r="9"/><path d="M-3,4 C-3,14 -6,22 -9,27 L9,27 C6,22 3,14 3,4 Z"/></g></g><g transform="translate(27 38)"><text x="0" y="0" font-family="Georgia,'Times New Roman',serif" font-weight="bold" font-size="30" fill="#23272e" text-anchor="middle">A</text><g transform="translate(0 20) scale(0.42)"><g fill="#23272e"><circle cx="0" cy="-9" r="9"/><circle cx="-10" cy="6" r="9"/><circle cx="10" cy="6" r="9"/><path d="M-3,4 C-3,14 -6,22 -9,27 L9,27 C6,22 3,14 3,4 Z"/></g></g></g><g transform="translate(223 312) rotate(180)"><text x="0" y="0" font-family="Georgia,'Times New Roman',serif" font-weight="bold" font-size="30" fill="#23272e" text-anchor="middle">A</text><g transform="translate(0 20) scale(0.42)"><g fill="#23272e"><circle cx="0" cy="-9" r="9"/><circle cx="-10" cy="6" r="9"/><circle cx="10" cy="6" r="9"/><path d="M-3,4 C-3,14 -6,22 -9,27 L9,27 C6,22 3,14 3,4 Z"/></g></g></g></svg>