<?xml version="1.0" encoding="UTF-8" standalone="no"?>
<svg xmlns="http://www.w3.org/2000/svg" xmlns:xlink="http://www.w3.org/1999/xlink" xml:space="preserve" width="208" height="303" version="1.0" viewBox="0 0 167.08643 242.66748">
  <path fill="#fff" stroke="#000" stroke-width=".5" d="M166.83643 235.89281c0 3.79171-3.08594 6.8909-6.87011 6.8909H7.1113279C3.3359375 242.78371.25 239.68452.25 235.89281V6.7746656c0-3.78632 3.0859375-6.89089653 6.8613279-6.89089653H159.96632c3.78417 0 6.87011 3.10457653 6.87011 6.89089653V235.89281z"/>
  <use xlink:href="#a" width="167.08643" height="242.66748" transform="rotate(180 83.543215 121.18103)"/>
  <use xlink:href="#b" id="a" width="167.08643" height="242.66748" x="0" y="0" transform="translate(-8.7477182 -2.1924149) scale(.3006846)"/>
  <use xlink:href="#c" width="167.08643" height="242.66748" transform="rotate(180 83.543215 121.33374)"/>
  <path id="b" fill="#000" fill-opacity="1" stroke="none" stroke-linecap="round" stroke-linejoin="round" stroke-miterlimit="4" stroke-opacity="1" stroke-width="1.5" d="M83.468215 104.80874c-3.79776 0-6.875002 3.07724-6.875 6.875 0 1.96016.833225 3.72148 2.15 4.975 1.017544.96866 2.467168 3.16423 2.95 4.925-.941824-.56759-1.790184-1.21446-2.3-1.75-1.253521-1.31678-3.014848-2.125-4.975-2.125-3.797761 0-6.875 3.07724-6.875 6.875-.000001 3.79776 3.07724 6.875 6.875 6.875 1.960159 0 3.72148-.83322 4.975-2.15.537552-.56469 1.446272-1.2792 2.45-1.875-.140792 6.30515-2.304704 10.425-6.25 10.425h15.775c-3.955808 0-6.144768-4.14143-6.275-10.475 1.05816.60735 2.04176 1.33858 2.6 1.925 1.253504 1.31678 3.014864 2.15 4.975 2.15 3.79772 0 6.875-3.07724 6.875-6.875s-3.07728-6.875-6.875-6.875c-1.960128 0-3.721496.80822-4.975 2.125-.530824.55761-1.45276 1.21889-2.45 1.8.467736-1.76943 1.947304-3.99666 2.975-4.975 1.316776-1.25352 2.125-3.01485 2.125-4.975 0-3.79776-3.07724-6.875-6.875-6.875z"/>
  <path id="c" fill-rule="nonzero" stroke="none" stroke-miterlimit="4" d="M12.613281 25.827148v-1.46875h1.5V9.7602539l-1.6875 2.2236331v-1.800782l2.028321-2.7309566h1.690429V24.358398h1.53125v1.46875h-5.0625z" transform="translate(1.3216589 .2158208)"/>
</svg>