<svg xmlns="http://www.w3.org/2000/svg" width="250" height="350" viewBox="0 0 250 350"><defs>
    <linearGradient id="ivory" x1="0" y1="0" x2="0.3" y2="1"><stop offset="0%" stop-color="#fdf8ec"/><stop offset="100%" stop-color="#f0e8d2"/></linearGradient>
    <radialGradient id="ivoryGlow" cx="50%" cy="40%" r="70%"><stop offset="0%" stop-color="#fffefa" stop-opacity="0.7"/><stop offset="100%" stop-color="#fffefa" stop-opacity="0"/></radialGradient></defs>
    <rect x="2.5" y="2.5" width="245" height="345" rx="17" fill="url(#ivory)" stroke="#d8cba2" stroke-width="2"/>
    <rect x="2.5" y="2.5" width="245" height="345" rx="17" fill="url(#ivoryGlow)"/>
    <rect x="11" y="11" width="228" height="328" rx="12" fill="none" stroke="#b08a2e" stroke-width="2.4"/>
    <rect x="15.5" y="15.5" width="219" height="319" rx="9" fill="none" stroke="#c4302b" stroke-width="1" opacity="0.55"/><path d="M62,150 Q62,96 125,92 Q188,96 188,150 L188,300 L62,300 Z" fill="#f3ead2" stroke="#a87f1e" stroke-width="2"/><path d="M70,150 Q70,104 125,100 Q180,104 180,150" fill="none" stroke="#e3b53a" stroke-width="2.5"/>
    <path d="M86,300 L92,210 Q98,178 120,170 L130,170 Q152,178 158,210 L164,300 Z" fill="#b0271c" stroke="#2b2117" stroke-width="2"/>
    <g stroke="#2b2117" stroke-width="1" opacity="0.4" fill="none"><path d="M112,184 Q108,242 104,298"/><path d="M138,184 Q142,242 146,298"/><path d="M125,180 L125,298"/></g>
    <rect x="92" y="226" width="66" height="10" rx="3" fill="#e3b53a" stroke="#2b2117" stroke-width="1.3"/>
    <path d="M120,170 Q108,210 96,236 L108,242 Q118,212 130,184 Z" fill="#b0271c" stroke="#2b2117" stroke-width="1.6"/>
    <ellipse cx="100" cy="240" rx="8.5" ry="9.5" fill="#e8b88a" stroke="#2b2117" stroke-width="1.4"/>
    <g transform="translate(98 208) scale(1.3) rotate(8)"><g fill="#c4302b"><path d="M0,-25 C7,-12 13,-6 19,0 C13,6 7,12 0,25 C-7,12 -13,6 -19,0 C-13,-6 -7,-12 0,-25 Z"/></g></g>
    <path d="M150,176 Q166,188 168,232 Q160,228 150,216 Q150,196 138,184 Z" fill="#b0271c" stroke="#2b2117" stroke-width="1.6"/>
    <ellipse cx="160" cy="230" rx="8" ry="9" fill="#e8b88a" stroke="#2b2117" stroke-width="1.4"/>
    <path d="M104,176 Q125,166 146,176 Q125,184 104,176 Z" fill="#f4efe2" stroke="#2b2117" stroke-width="1.4"/>
    <rect x="117" y="150" width="16" height="20" rx="3" fill="#e8b88a" stroke="#2b2117" stroke-width="1.4"/>
    <path d="M99,122 Q95,148 110,160 Q103,142 104,122 Z" fill="#2b2117"/><path d="M151,122 Q155,148 140,160 Q147,142 146,122 Z" fill="#2b2117"/><ellipse cx="125" cy="126" rx="22" ry="25" fill="#e8b88a" stroke="#2b2117" stroke-width="1.7"/><ellipse cx="104" cy="128" rx="3.4" ry="5" fill="#e8b88a" stroke="#2b2117" stroke-width="1.1"/><ellipse cx="146" cy="128" rx="3.4" ry="5" fill="#e8b88a" stroke="#2b2117" stroke-width="1.1"/><path d="M109,118 Q116,114 122,118" fill="none" stroke="#2b2117" stroke-width="1.6"/><path d="M128,118 Q134,114 141,118" fill="none" stroke="#2b2117" stroke-width="1.6"/><path d="M109,124 Q115,120 121,124 Q115,128 109,124 Z" fill="#fff" stroke="#2b2117" stroke-width="1.1"/><circle cx="115" cy="124" r="2.1" fill="#2b2117"/><path d="M129,124 Q135,120 141,124 Q135,128 129,124 Z" fill="#fff" stroke="#2b2117" stroke-width="1.1"/><circle cx="135" cy="124" r="2.1" fill="#2b2117"/><path d="M125,124 L122,136 Q125,139 128,136" fill="none" stroke="#2b2117" stroke-width="1.4"/><ellipse cx="111" cy="134" rx="3.6" ry="2.4" fill="#b0271c" opacity="0.22"/><ellipse cx="139" cy="134" rx="3.6" ry="2.4" fill="#b0271c" opacity="0.22"/><path d="M118,141 Q125,144 132,141" fill="none" stroke="#9a3b2a" stroke-width="1.6"/><path d="M99,130 Q97,100 125,98 Q153,100 151,130 Q125,118 99,130 Z" fill="#b0271c" stroke="#2b2117" stroke-width="1.7"/><rect x="98" y="126" width="54" height="9" rx="3" fill="#c35d54" stroke="#2b2117" stroke-width="1.3"/><path d="M147,118 Q173,102 179,78 Q165,108 149,112 Z" fill="#e3b53a" stroke="#2b2117" stroke-width="1.2"/><g transform="translate(27 38)"><text x="0" y="0" font-family="Georgia,'Times New Roman',serif" font-weight="bold" font-size="30" fill="#c4302b" text-anchor="middle">J</text><g transform="translate(0 20) scale(0.42)"><g fill="#c4302b"><path d="M0,-25 C7,-12 13,-6 19,0 C13,6 7,12 0,25 C-7,12 -13,6 -19,0 C-13,-6 -7,-12 0,-25 Z"/></g></g></g><g transform="translate(223 312) rotate(180)"><text x="0" y="0" font-family="Georgia,'Times New Roman',serif" font-weight="bold" font-size="30" fill="#c4302b" text-anchor="middle">J</text><g transform="translate(0 20) scale(0.42)"><g fill="#c4302b"><path d="M0,-25 C7,-12 13,-6 19,0 C13,6 7,12 0,25 C-7,12 -13,6 -19,0 C-13,-6 -7,-12 0,-25 Z"/></g></g></g></svg>