<svg xmlns="http://www.w3.org/2000/svg" width="250" height="350" viewBox="0 0 250 350"><defs>
    <linearGradient id="ivory" x1="0" y1="0" x2="0.3" y2="1"><stop offset="0%" stop-color="#fdf8ec"/><stop offset="100%" stop-color="#f0e8d2"/></linearGradient>
    <radialGradient id="ivoryGlow" cx="50%" cy="40%" r="70%"><stop offset="0%" stop-color="#fffefa" stop-opacity="0.7"/><stop offset="100%" stop-color="#fffefa" stop-opacity="0"/></radialGradient></defs>
    <rect x="2.5" y="2.5" width="245" height="345" rx="17" fill="url(#ivory)" stroke="#d8cba2" stroke-width="2"/>
    <rect x="2.5" y="2.5" width="245" height="345" rx="17" fill="url(#ivoryGlow)"/>
    <rect x="11" y="11" width="228" height="328" rx="12" fill="none" stroke="#b08a2e" stroke-width="2.4"/>
    <rect x="15.5" y="15.5" width="219" height="319" rx="9" fill="none" stroke="#c4302b" stroke-width="1" opacity="0.55"/><path d="M62,150 Q62,96 125,92 Q188,96 188,150 L188,300 L62,300 Z" fill="#f3ead2" stroke="#a87f1e" stroke-width="2"/><path d="M70,150 Q70,104 125,100 Q180,104 180,150" fill="none" stroke="#e3b53a" stroke-width="2.5"/>
    
    <path d="M70,300 L74,210 Q80,176 104,166 L146,166 Q170,176 176,210 L180,300 Z"
          fill="#b0271c" stroke="#2b2117" stroke-width="2"/>
    <g stroke="#2b2117" stroke-width="1" opacity="0.4" fill="none">
      <path d="M104,182 Q100,242 96,298"/><path d="M125,178 L125,298"/><path d="M146,182 Q150,242 154,298"/>
      <path d="M86,212 Q84,256 82,298"/><path d="M164,212 Q166,256 168,298"/>
    </g><path d="M116,168 L134,168 L138,300 L112,300 Z" fill="#f4efe2" stroke="#2b2117" stroke-width="1.4"/><g transform="translate(122 196)"><path d="M0,0 l3,0 -1.5,4 z" fill="#2b2117"/><circle cx="-2" cy="-1" r="0.8" fill="#2b2117"/><circle cx="5" cy="-1" r="0.8" fill="#2b2117"/></g><g transform="translate(122 222)"><path d="M0,0 l3,0 -1.5,4 z" fill="#2b2117"/><circle cx="-2" cy="-1" r="0.8" fill="#2b2117"/><circle cx="5" cy="-1" r="0.8" fill="#2b2117"/></g><g transform="translate(122 248)"><path d="M0,0 l3,0 -1.5,4 z" fill="#2b2117"/><circle cx="-2" cy="-1" r="0.8" fill="#2b2117"/><circle cx="5" cy="-1" r="0.8" fill="#2b2117"/></g><g transform="translate(122 274)"><path d="M0,0 l3,0 -1.5,4 z" fill="#2b2117"/><circle cx="-2" cy="-1" r="0.8" fill="#2b2117"/><circle cx="5" cy="-1" r="0.8" fill="#2b2117"/></g><path d="M92,176 Q125,158 158,176 Q150,192 125,186 Q100,192 92,176 Z" fill="#f4efe2" stroke="#2b2117" stroke-width="1.6"/>
    <path d="M74,200 Q60,212 64,250 Q72,246 80,232 Q78,214 90,200 Z" fill="#b0271c" stroke="#2b2117" stroke-width="1.6"/>
    <ellipse cx="68" cy="250" rx="9" ry="10" fill="#e8b88a" stroke="#2b2117" stroke-width="1.4"/>
    <line x1="64" y1="250" x2="64" y2="206" stroke="#3f8a4f" stroke-width="3"/>
    <path d="M64,206 Q54,212 58,222 Q64,214 64,224 Q64,214 70,222 Q74,212 64,206 Z" fill="#e3b53a" stroke="#2b2117" stroke-width="1.2"/>
    <path d="M176,200 Q190,212 186,250 Q178,246 170,232 Q172,214 160,200 Z" fill="#b0271c" stroke="#2b2117" stroke-width="1.6"/>
    <ellipse cx="182" cy="250" rx="9" ry="10" fill="#e8b88a" stroke="#2b2117" stroke-width="1.4"/>
    <g transform="translate(186 232) scale(1.25) rotate(8)"><g fill="#c4302b"><path d="M0,26 C-3,20 -19,9 -19,-6 C-19,-15 -12,-19 -6,-19 C-2,-19 0,-16 0,-13 C0,-16 2,-19 6,-19 C12,-19 19,-15 19,-6 C19,9 3,20 0,26 Z"/></g></g>
    <rect x="116" y="148" width="18" height="20" rx="3" fill="#e8b88a" stroke="#2b2117" stroke-width="1.4"/>
    <path d="M99,118 Q95,144 110,156 Q103,138 104,118 Z" fill="#2b2117"/><path d="M151,118 Q155,144 140,156 Q147,138 146,118 Z" fill="#2b2117"/><path d="M103,114 Q125,100 147,114 Q125,106 103,114 Z" fill="#2b2117"/><ellipse cx="125" cy="122" rx="22" ry="25" fill="#e8b88a" stroke="#2b2117" stroke-width="1.7"/><ellipse cx="104" cy="124" rx="3.4" ry="5" fill="#e8b88a" stroke="#2b2117" stroke-width="1.1"/><ellipse cx="146" cy="124" rx="3.4" ry="5" fill="#e8b88a" stroke="#2b2117" stroke-width="1.1"/><path d="M109,114 Q116,110 122,114" fill="none" stroke="#2b2117" stroke-width="1.6"/><path d="M128,114 Q134,110 141,114" fill="none" stroke="#2b2117" stroke-width="1.6"/><path d="M109,120 Q115,116 121,120 Q115,124 109,120 Z" fill="#fff" stroke="#2b2117" stroke-width="1.1"/><circle cx="115" cy="120" r="2.1" fill="#2b2117"/><path d="M129,120 Q135,116 141,120 Q135,124 129,120 Z" fill="#fff" stroke="#2b2117" stroke-width="1.1"/><circle cx="135" cy="120" r="2.1" fill="#2b2117"/><path d="M125,120 L122,132 Q125,135 128,132" fill="none" stroke="#2b2117" stroke-width="1.4"/><ellipse cx="111" cy="130" rx="3.6" ry="2.4" fill="#b0271c" opacity="0.22"/><ellipse cx="139" cy="130" rx="3.6" ry="2.4" fill="#b0271c" opacity="0.22"/><path d="M118,137 Q125,140 132,137" fill="none" stroke="#9a3b2a" stroke-width="1.6"/><path d="M97,114 L102,82 L116,106 L125,76 L134,106 L148,82 L153,114 Z" fill="#e3b53a" stroke="#2b2117" stroke-width="1.8"/><rect x="95" y="110" width="60" height="13" rx="3" fill="#e3b53a" stroke="#2b2117" stroke-width="1.6"/><circle cx="125" cy="76" r="4" fill="#e3b53a" stroke="#2b2117" stroke-width="1.2"/><g stroke="#2b2117" stroke-width="1"><circle cx="102" cy="82" r="3" fill="#b0271c"/><circle cx="125" cy="76" r="3.2" fill="#2f5b9c"/><circle cx="148" cy="82" r="3" fill="#b0271c"/><circle cx="111" cy="116" r="2.4" fill="#b0271c"/><circle cx="125" cy="116" r="2.6" fill="#2e7d4f"/><circle cx="139" cy="116" r="2.4" fill="#2f5b9c"/></g><g transform="translate(27 38)"><text x="0" y="0" font-family="Georgia,'Times New Roman',serif" font-weight="bold" font-size="30" fill="#c4302b" text-anchor="middle">Q</text><g transform="translate(0 20) scale(0.42)"><g fill="#c4302b"><path d="M0,26 C-3,20 -19,9 -19,-6 C-19,-15 -12,-19 -6,-19 C-2,-19 0,-16 0,-13 C0,-16 2,-19 6,-19 C12,-19 19,-15 19,-6 C19,9 3,20 0,26 Z"/></g></g></g><g transform="translate(223 312) rotate(180)"><text x="0" y="0" font-family="Georgia,'Times New Roman',serif" font-weight="bold" font-size="30" fill="#c4302b" text-anchor="middle">Q</text><g transform="translate(0 20) scale(0.42)"><g fill="#c4302b"><path d="M0,26 C-3,20 -19,9 -19,-6 C-19,-15 -12,-19 -6,-19 C-2,-19 0,-16 0,-13 C0,-16 2,-19 6,-19 C12,-19 19,-15 19,-6 C19,9 3,20 0,26 Z"/></g></g></g></svg>